<?xml version="1.0" encoding="UTF-8"?>
<svg id="Layer_2" data-name="Layer 2" xmlns="http://www.w3.org/2000/svg" viewBox="0 0 30.83 28.05">
  <defs>
    <style>
      .cls-1 {
        fill: #fed08c;
      }

      .cls-2 {
        fill: #fedf9b;
      }

      .cls-3 {
        fill: #f9bb7f;
      }

      .cls-4 {
        fill: #fabc7f;
      }

      .cls-5 {
        fill: #fdcf8c;
      }

      .cls-6 {
        fill: #fe7d91;
      }

      .cls-7 {
        fill: #fd5e79;
      }
    </style>
  </defs>
  <g id="Layer_1-2" data-name="Layer 1">
    <g>
      <path d="M22.81,16.85c-.22.28-.52-.11-.61-.39l-.38-4.79c-1.41-.07-1.89-1.2-1.64-2.49-.26.04-.53.05-.81.05l-.03,1.14c-.19,1.07-1.3,1.45-2.27,1.23-1.28-.29-1.28-1.26-1.27-2.36,0-.04.04-.06.04-.06-.13.08-.68.04-.86,0,.1,1.33-.05,2.4-1.63,2.46-.37.01-1.23-.03-1.3-.45l-.15.02c-.4-.56-.54-1.22-.44-1.98h-.77s-.04,1.15-.04,1.15c-.17.84-.83,1.24-1.64,1.29l-.13,1.71,4.35.02c.79.12,1.21.55,1.37,1.32l.88,12.17h2.8c.05-.25.08-.5.09-.76l.13-.12-.12-.05.75-6.92c.16-.66.48-1.09,1.17-1.26.85-.04,1.72-.05,2.57-.03.01,0,.03.04.04.09l4.88.04c.64,0,1.15.59,1.22,1.26l.83,7.88c.55.08.69-.13,1.01.33v.29c-.03.21-.11.34-.26.4-10.06.02-20.12.03-30.19.02-.21-.02-.34-.15-.38-.42v-.3c.34-.46.45-.23,1-.33l.87-12.13c.05-.76.63-1.35,1.39-1.35h4.57s.31-4.01.31-4.01c.07-.74.64-1.28,1.38-1.31h5.44s0-7.7,0-7.7c0-.2.08-.35.21-.43.12-.08.28-.1.44-.03l5.77,2.41c.18.08.26.26.27.4,0,.18-.09.33-.26.42l-5.52,2.3v2.62s5.38,0,5.38,0c.72,0,1.37.52,1.42,1.26l.54,6.91c.02.2-.21.47-.4.48Z"/>
      <path class="cls-2" d="M22.81,16.85c0,.31.03.62.07.95l4.88.07h-4.88s-2.3-.01-2.3-.01c-.7,0-1.29.53-1.36,1.24l-.74,6.91c-.04.06-.08.11-.14.13-.32.12-1.2-.03-1.52-.21-.53-.31-.66-.74-.76-1.3l-.68-9.74c-.18-1.07-.61-1.87-1.73-2.17-.88-.07-1.65-.19-1.73-1.22-.03-.17.01-.27.14-.29.33.29.83.31,1.25.33.87.05,1.58-.54,1.6-1.42,0-.33-.01-.65.01-.99.33-.03.64-.02,1,0,.05.34,0,.71.02,1.05.05.93.8,1.38,1.65,1.38s1.64-.43,1.66-1.35l.02-1.08c.35-.01.66-.02,1,0,.02.32.01.61,0,.93-.01.9.73,1.57,1.66,1.46l.38,4.88c.02.25.25.48.5.47Z"/>
      <path class="cls-2" d="M14.35,25.82c0,.11,0,.21-.04.31-1.08.03-2.15.02-3.22-.01-.03-1.26-.05-2.52-.07-3.79-.1-.89-.63-1.69-1.33-2.11-.87-.53-1.88-.58-2.74-.15-.24.12-.2.43-.15.63-.02.12-.1.23-.25.32l-.38.49-.14-.02c-.24.03-.55.02-.62.37-.05.24-.11.5-.11.77v3.31c-.07.08-.11.08-.18.06-.49-.1-.84-.78-.92-1.23v-7.69c0-.15.06-.17.17-.07.33.28.79.28,1.22.3.89.04,1.58-.59,1.58-1.49v-1.4s1.98,0,1.98,0v1.51c.02.93.81,1.4,1.68,1.4s1.64-.47,1.64-1.39v-1.5c.39-.06,1.06-.11,1.1.45l.76,10.93Z"/>
      <path class="cls-2" d="M28.79,26.01s0,.06,0,.08c-.04.12-2.16.06-2.41.04-.2.04-.32,0-.36-.12v-1.45c-.02-1.03-.85-1.83-1.83-1.87s-1.85.71-1.96,1.69l-.04,1.57s-.03.04-.06.06c-.34.15-1.17-.92-1.03-1.33v-4.25s.12-.07.12-.07c.44.37,1.09.43,1.58.19.74-.36.81-1,.82-1.77.34-.02.66-.02.99,0,.02.16.02.28.02.43-.03.8.59,1.45,1.37,1.48s1.43-.56,1.47-1.36c0-.18-.02-.35.02-.55.29-.07.59.13.62.45l.7,6.78Z"/>
      <path class="cls-1" d="M12.05,11.2c-.11.62.27,1.29.95,1.3,1.37.02,2.4,1.01,2.49,2.37l.68,9.74c.05.74.55,1.32,1.28,1.4.35.04.7.02,1.02,0-.04.33-.03.66-.11,1.01h-3.02s-.88-12.23-.88-12.23c-.05-.74-.69-1.27-1.4-1.27h-4.33s.16-2,.16-2c.9.1,1.64-.52,1.66-1.4v-1s1.01,0,1.01,0c.05.36,0,.68.02,1.06.03.35.19.79.46,1.03Z"/>
      <path class="cls-1" d="M4.38,17.02s-.06.01-.06.08v7.52c0,.63.43,1.15.98,1.33,0,.35.03.69,0,1.08H1.9s.86-12.02.86-12.02c.02-.27.12-.49.38-.55.23-.05.47-.04.71,0v1.27c0,.49.15.98.52,1.3Z"/>
      <path class="cls-1" d="M10.12,26.01c-.02.06-.06.1-.11.13-.14.08-1.3-.03-1.52-.1-.94-.31-1.31-1.04-1.41-1.96l.02-3.11.12-.07c.66-.26,1.37-.31,2.01.1.56.36.91,1.01.91,1.76l-.02,3.25Z"/>
      <path class="cls-1" d="M21.21,20.35v4.32c0,.59.43,1.08.94,1.25-.02-.58,0-1.07.06-1.55l-.02,2.65h-2.9s.82-7.81.82-7.81c.02-.32.43-.57.63-.38,0,.53.04,1.17.47,1.52Z"/>
      <path class="cls-4" d="M6.8,20.7c.13.06.27.22.42.2l-.02,3.12c0,1.17.9,2.07,2.07,2.01.3-.01.58.02.85-.02v1s-3.9.01-3.9.01v-4.33c-.01-.67.31-.82-.19-1.2.25-.26.41-.66.77-.79Z"/>
      <path class="cls-1" d="M25.06,24.38v1.74c-.61.03-1.23.03-1.86.01l-.09-.12v-1.39c-.01-.54.37-.97.88-1.02s.99.28,1.07.79Z"/>
      <path class="cls-6" d="M16.86,4.15s-.06,0-.08,0c-.11-.04-.05-2.04-.04-2.28-.03-.16,0-.26.12-.29,1.08.39,2.08.84,3.15,1.29l-3.15,1.29Z"/>
      <path class="cls-1" d="M14.35,25.82c.03.38.1.77.09,1.2h-3.39s-.03-4.69-.03-4.69c.14,1.2.01,2.42.07,3.7h3.18c.08,0,.07-.18.07-.2Z"/>
      <path class="cls-7" d="M16.87,1.57v2.58s-1,.43-1,.43V1.15c.4.08.68.31,1,.42Z"/>
      <path class="cls-1" d="M28.79,26.01c.03.33.11.65.11,1.01h-2.88c-.04-.36,0-.69,0-1.01h2.77Z"/>
      <path class="cls-1" d="M6.26,15.91c0,.43-.39.5-.73.5s-.71-.04-.75-.43c-.05-.5,0-1.01-.02-1.55h1.51s0,1.49,0,1.49Z"/>
      <path class="cls-1" d="M11.57,15.92c-.02.43-.4.49-.74.5s-.73-.07-.75-.48c-.03-.5-.01-1.01,0-1.52h1.49c0,.51.02.99,0,1.5Z"/>
      <path class="cls-5" d="M13.99,10.14c-.03.43-.41.49-.74.49s-.69-.05-.74-.43c-.05-.35-.01-.71-.01-1.08h1.5c0,.36.02.68,0,1.03Z"/>
      <path class="cls-5" d="M18.33,10.12c-.02.44-.4.51-.75.51s-.7-.06-.74-.46c-.03-.33,0-.67,0-1.05h1.5c.01.33.02.66,0,1Z"/>
      <path class="cls-4" d="M23.12,26.01l1.93.02v-1.65c.14.86.01,1.73.06,2.64h-1.98c-.02-.36-.02-.68,0-1.01Z"/>
      <path class="cls-5" d="M22.66,18.76c.08.4.07.96-.43,1.02-.22.03-.47-.1-.54-.34-.06-.21-.04-.43-.02-.66h.98Z"/>
      <path class="cls-5" d="M26.53,19.37c-.04.23-.24.38-.44.4-.23.02-.47-.11-.53-.36-.06-.21-.04-.42-.02-.65h.98c.05.18.04.39.01.6Z"/>
      <path class="cls-3" d="M9.63,9.12c0,.42.12,1.11-.15,1.36-.11.1-.37.19-.5.09.04-.55-.12-1.54.65-1.46Z"/>
      <path class="cls-5" d="M21.83,10.56c-.05.12-.36.02-.45-.06-.12-.1-.2-.26-.2-.46v-.92c.28-.08.59.13.61.44s.1.63.05,1Z"/>
    </g>
  </g>
</svg>