<?xml version="1.0" encoding="UTF-8"?>
<svg xmlns="http://www.w3.org/2000/svg" viewBox="0 0 93.9 17.52">
  <defs>
    <style>
      .cls-1 {
        isolation: isolate;
      }

      .cls-2 {
        mix-blend-mode: multiply;
      }

      .cls-3 {
        fill: #fff;
      }
    </style>
  </defs>
  <g class="cls-1">
    <g id="Layer_2" data-name="Layer 2">
      <g id="Layer_1-2" data-name="Layer 1">
        <g class="cls-2">
          <g>
            <path class="cls-3" d="M22.06,8.53c.74,0,1.3-.19,1.67-.56.37-.37.55-.86.55-1.47,0-.62-.19-1.1-.56-1.44-.37-.34-.93-.51-1.68-.5h-2.02s.03,3.99.03,3.99h2.02Z"/>
            <polygon class="cls-3" points="71.19 4.82 69.33 10.13 73.13 10.11 71.19 4.82"/>
            <path class="cls-3" d="M54,8.3c.74,0,1.3-.19,1.67-.56.37-.37.55-.86.55-1.47,0-.62-.19-1.1-.56-1.44-.37-.34-.93-.51-1.68-.5h-2.02s.03,3.99.03,3.99h2.02Z"/>
            <path class="cls-3" d="M93.55,16.91l-4.83-8.63,5.18-8.28L.13.97l5.63,7.58L0,17.52l93.55-.61ZM70.4,3.14h1.58s3.85,10.4,3.85,10.4h-1.45s-.86-2.32-.86-2.32l-4.58.03-.83,2.34h-1.45s3.72-10.45,3.72-10.45ZM53.97,3.2c.79,0,1.46.13,2.01.39.55.27.96.63,1.24,1.09.27.46.41.99.42,1.58,0,.72-.2,1.36-.61,1.92-.41.56-1.04.93-1.87,1.11l2.67,4.38h-1.64s-2.53-4.26-2.53-4.26h-1.66s.03,4.3.03,4.3h-1.37s-.08-10.49-.08-10.49l3.39-.02ZM40.97,3.27v1.13s-4.27.03-4.27.03l.03,3.51,3.83-.03v1.13s-3.82.03-3.82.03l.03,3.61,4.28-.03v1.13s-5.64.04-5.64.04l-.08-10.51,5.65-.04ZM22.02,3.42c.79,0,1.46.13,2.01.39.55.27.96.63,1.24,1.09.27.46.41.99.42,1.58,0,.72-.2,1.36-.61,1.92-.41.56-1.04.93-1.87,1.11l2.67,4.38h-1.64s-2.53-4.26-2.53-4.26h-1.66s.03,4.3.03,4.3h-1.37s-.08-10.49-.08-10.49l3.39-.02Z"/>
          </g>
        </g>
      </g>
    </g>
  </g>
</svg>