<?xml version="1.0" encoding="UTF-8"?>
<svg id="Layer_2" data-name="Layer 2" xmlns="http://www.w3.org/2000/svg" viewBox="0 0 1.65 1.63">
  <defs>
    <style>
      .cls-1 {
        fill: #fff;
      }
    </style>
  </defs>
  <g id="Layer_1-2" data-name="Layer 1">
    <path class="cls-1" d="M1.62,1.13c-.06-.09-.18-.17-.28-.23-.01,0-.03-.01-.04,0l-.26.22s-.13-.04-.16-.06c-.1-.08-.19-.17-.26-.27-.02-.03-.07-.11-.06-.15l.2-.27s0-.03,0-.04c-.04-.07-.08-.13-.12-.19C.58.05.49-.04.37.02c-.04.02-.08.05-.12.08L.1.24C.04.3,0,.38,0,.47c0,.17.1.35.2.48.15.21.34.38.56.52.08.05.17.09.26.13.12.04.28.06.39-.03.05-.05.1-.1.15-.15.07-.08.13-.18.07-.29ZM1.5,1.39s-.08.09-.13.13c-.08.07-.21.06-.31.03-.09-.03-.16-.06-.24-.11-.22-.13-.42-.31-.57-.52-.09-.12-.18-.29-.18-.45,0-.07.03-.14.08-.19l.13-.13s.06-.05.09-.07c.05-.03.1-.02.14,0,.08.06.14.17.2.25l-.19.26c-.04.05.02.16.06.21.08.12.18.22.29.3.04.03.08.05.13.07.03,0,.07,0,.09-.01l.24-.2c.08.05.19.11.24.19.06.08,0,.16-.06.23Z"/>
  </g>
</svg>