<?xml version="1.0" encoding="UTF-8"?>
<svg xmlns="http://www.w3.org/2000/svg" xmlns:xlink="http://www.w3.org/1999/xlink" viewBox="0 0 296.56 176.45">
  <defs>
    <style>
      .cls-1 {
        fill: none;
      }

      .cls-2, .cls-3 {
        fill: #543417;
      }

      .cls-2, .cls-4 {
        font-family: Aeonik-Bold, Aeonik;
        font-size: 24.86px;
        font-weight: 700;
      }

      .cls-5 {
        isolation: isolate;
      }

      .cls-6 {
        letter-spacing: .39em;
      }

      .cls-7 {
        letter-spacing: .39em;
      }

      .cls-8 {
        mix-blend-mode: luminosity;
        opacity: .48;
      }

      .cls-9 {
        letter-spacing: .43em;
      }

      .cls-10 {
        letter-spacing: .43em;
      }

      .cls-11 {
        letter-spacing: .49em;
      }

      .cls-12 {
        letter-spacing: .49em;
      }

      .cls-13 {
        letter-spacing: .48em;
      }

      .cls-14 {
        letter-spacing: .5em;
      }

      .cls-15 {
        clip-path: url(#clippath-1);
      }

      .cls-16, .cls-4 {
        fill: #fff;
      }

      .cls-17 {
        clip-path: url(#clippath);
      }

      .cls-18 {
        fill: #fff200;
      }
    </style>
    <clipPath id="clippath">
      <rect class="cls-1" x="32.37" y="68.04" width="111.84" height="49.13"/>
    </clipPath>
    <clipPath id="clippath-1">
      <rect class="cls-1" x="31.01" y="66.81" width="111.84" height="49.13"/>
    </clipPath>
  </defs>
  <g class="cls-5">
    <g id="Layer_2" data-name="Layer 2">
      <g id="Isolation_Mode" data-name="Isolation Mode">
        <g>
          <g class="cls-8">
            <g>
              <g>
                <g>
                  <path class="cls-3" d="M92.63,32c-5.59,0-9.85,1.15-12.78,3.44-2.93,2.29-4.4,5.59-4.4,9.89,0,3.86,1.44,6.9,4.32,9.13,2.88,2.24,6.69,3.35,11.44,3.35,6.26,0,11.03-2.37,14.33-7.12.06,2.18.67,3.83,1.84,4.94,1.17,1.12,3.13,1.68,5.87,1.68h3.77v-6.29h-2.1c-1.9,0-2.85-1.03-2.85-3.1v-18.44c0-4.97-1.5-8.79-4.48-11.44-2.99-2.65-7.22-3.98-12.7-3.98-5.14,0-9.32,1.17-12.53,3.52-3.21,2.35-5.07,5.62-5.57,9.81h6.87c.45-2.18,1.63-3.92,3.56-5.24,1.93-1.31,4.37-1.97,7.33-1.97,3.35,0,5.96.78,7.84,2.35,1.87,1.56,2.81,3.74,2.81,6.54v2.93h-12.57ZM105.2,39.88c0,3.63-1.2,6.55-3.6,8.76-2.4,2.21-5.7,3.31-9.89,3.31-2.85,0-5.11-.64-6.79-1.93-1.68-1.29-2.51-2.99-2.51-5.11,0-4.75,3.18-7.12,9.55-7.12h13.24v2.1Z"/>
                  <path class="cls-3" d="M125.6,54.63c1.7,1.79,4.57,2.68,8.59,2.68h7.88v-6.29h-7.46c-1.73,0-2.95-.38-3.65-1.13-.7-.75-1.05-2.02-1.05-3.81v-25.23h10.81v-6.29h-10.81V2.58h-6.87v11.99h-7.71v6.29h7.71v25.31c0,3.86.85,6.68,2.56,8.46Z"/>
                  <path class="cls-3" d="M144.24,14.57v23.8c0,6.7,1.54,11.62,4.61,14.75,3.07,3.13,7.15,4.69,12.23,4.69,5.87,0,10.42-2.07,13.66-6.2l.92,5.7h5.95V14.57h-6.87v21.37c0,4.81-1.1,8.61-3.31,11.4-2.21,2.79-5.27,4.19-9.18,4.19-3.58,0-6.33-1.16-8.25-3.48-1.93-2.32-2.89-5.68-2.89-10.1V14.57h-6.87Z"/>
                  <path class="cls-3" d="M195.78,21.02l-.92-6.45h-5.95v42.74h6.87v-21.79c0-4.02.88-7.4,2.64-10.14.02-.03.05-.06.07-.09,5.45-5.7,13.88-6.93,17.71-16.13-9.54,5.48-14.86,2.03-20.42,11.86Z"/>
                  <path class="cls-3" d="M247.58,37.28c.11-1.34.17-2.32.17-2.93-.11-4.13-1.03-7.74-2.77-10.81-1.73-3.07-4.11-5.42-7.12-7.04-3.02-1.62-6.48-2.43-10.39-2.43s-7.49.91-10.56,2.72c-3.07,1.82-5.46,4.37-7.17,7.67-1.7,3.3-2.56,7.12-2.56,11.48s.88,8.12,2.64,11.44c1.76,3.32,4.23,5.9,7.42,7.71,3.18,1.82,6.9,2.72,11.15,2.72,4.86,0,8.97-1.38,12.32-4.15,3.35-2.77,5.45-6.33,6.29-10.69h-6.96c-.73,2.74-2.16,4.88-4.31,6.41-2.15,1.54-4.76,2.31-7.84,2.31-3.97,0-7.18-1.26-9.64-3.77-2.46-2.51-3.74-5.87-3.85-10.06v-.59h33.18ZM219.01,23.29c2.46-2.12,5.31-3.19,8.55-3.19,3.63,0,6.63,1.01,9.01,3.02,2.37,2.01,3.73,4.83,4.06,8.46h-25.81c.34-3.41,1.73-6.17,4.19-8.3Z"/>
                  <path class="cls-3" d="M262.25,21.65c1.79-1.2,4.13-1.8,7.04-1.8s5.22.73,7.12,2.18c1.9,1.45,2.99,3.3,3.27,5.53h6.87c-.34-4.36-2.08-7.71-5.24-10.06-3.16-2.35-7.25-3.52-12.28-3.52-3.07,0-5.84.54-8.3,1.63-2.46,1.09-4.4,2.61-5.82,4.57-1.42,1.96-2.14,4.19-2.14,6.7,0,2.79.73,4.99,2.18,6.58,1.45,1.59,3.35,2.75,5.7,3.48,2.35.73,5.36,1.31,9.05,1.76,2.63.34,4.65.67,6.08,1.01,1.42.34,2.58.95,3.48,1.84.89.89,1.34,2.18,1.34,3.86,0,1.96-.94,3.53-2.81,4.74-1.87,1.2-4.32,1.8-7.33,1.8-3.41,0-6.19-.81-8.34-2.43-2.15-1.62-3.28-3.71-3.39-6.29h-6.87c.05,4.58,1.77,8.16,5.15,10.73,3.38,2.57,7.86,3.86,13.45,3.86,3.13,0,5.98-.53,8.55-1.59,2.57-1.06,4.61-2.57,6.12-4.53,1.51-1.96,2.26-4.22,2.26-6.79,0-2.96-.74-5.31-2.22-7.04-1.48-1.73-3.43-2.99-5.87-3.77-2.43-.78-5.52-1.4-9.26-1.84-2.68-.34-4.68-.64-5.99-.92-1.31-.28-2.39-.81-3.23-1.59-.84-.78-1.26-1.9-1.26-3.35,0-1.96.89-3.53,2.68-4.74Z"/>
                  <path class="cls-3" d="M60.49,23.83c1.98,2.32,2.97,5.69,2.97,10.1,0,0-.7,19.37,1.37,23.33.24.5.73.53.79.53,4.68.34,9.03,1.52,9.1,1.5-1.9-.95-4.38-3.63-4.39-8.22v-17.56c0-6.7-1.58-11.62-4.73-14.75-3.16-3.13-7.33-4.69-12.53-4.69-6.15,0-10.84,2.1-14.08,6.29l-.92-5.78h-5.95v42.74h6.87v-21.37c0-4.8,1.14-8.6,3.44-11.4,2.29-2.79,5.45-4.19,9.47-4.19,3.74,0,6.61,1.16,8.59,3.48Z"/>
                  <path class="cls-3" d="M282.75,9.05s0-.03.01-.04c-.01.02-.02.05-.03.08,0-.01,0-.02.02-.03,0,0,0,0,0,0Z"/>
                  <path class="cls-3" d="M104.92,5.12c-.11.03-.17.05-.17.06.05-.02.11-.04.16-.05,0,0,0,0,.01,0Z"/>
                  <path class="cls-3" d="M107.84,1.27s0,0,0,0c-.02.05-.03.1-.03.12,0-.04.01-.08.03-.11,0,0,0,0,0,0Z"/>
                  <path class="cls-3" d="M254.77,73.28c-.14-.03-.11.02,0,0h0Z"/>
                  <path class="cls-3" d="M271.43,109.13c-.05-.03.03.05.08.07-.01,0-.02-.02-.03-.03-.02-.02-.03-.02-.05-.04Z"/>
                  <path class="cls-3" d="M260.74,117.22s-.04-.06-.06-.08c0,0,0,0,0,.01.02.02.04.04.05.06Z"/>
                  <path class="cls-3" d="M259.57,114.47c.02-.17-.02-.18-.02-.11,0,.02,0,.04,0,.06,0,.02,0,.03,0,.05Z"/>
                  <path class="cls-3" d="M250.66,24.61c-2.62-5.75.78-8.46.79-8.49,3.82-4.29,6.71-6.45,6.58-14.89-5.01,6.94-9.8,5.75-10.79,14.78-.39,6.34,3.26,8.44,3.43,8.6Z"/>
                  <g>
                    <path class="cls-3" d="M197.24,99.5c-1.08-1.02-5.29-.8-12.7.68l-3.48.69-2.16-1.34c-2.91-1.8-5.74-3.15-11.38-5.42-11.52-4.64-13.74-5.73-15.44-7.54-1.49-1.59-1.64-3.46-.47-5.75,1.27-2.48,5.05-6.14,8.72-8.45,10.33-6.49,22.16-8.77,28.23-5.43,6.95,3.82,2.6,13.85-5.44,19.65-1.33.96-1.61,1.27-1.58,1.77.05,1.08,1.37,2.21,2.69,2.31,1.75.14,6.37-4.82,8.58-9.2,2.95-5.85,1.83-9.88,1.38-11.06-1.2-3.14-4.14-5.59-8.03-6.69-2.9-.82-7.97-.96-11.54-.32-11.06,1.99-22.38,8.36-26.27,14.79-2.49,4.1-1.33,7.63,2.34,10.67,2.67,2.2,5.44,3.59,13.36,6.7,9.14,3.59,14.17,6.02,13.11,6.34-.26.08-1.76.53-3.33.99-1.57.46-4.58,1.53-6.69,2.36-10.38,4.1-14.22,7.89-11.52,11.35.9,1.15,1.97,1.85,3.77,2.45,2.1.7,8.27.95,11.42.46,7.24-1.13,13.15-4.02,14.99-7.35,1.28-2.3.71-5.52-1.43-8.06-.59-.71-1.01-1.32-.92-1.36.34-.16,4.31-.97,7.01-1.42,2.73-.46,4.59-.63,6.04-.57.4.02.81-.14.98-.37.23-.32.19-.48-.22-.88ZM179.14,112.8c-2.45,1.7-7.62,3.38-11.91,3.87-2.28.26-6.95.11-8.04-.26-.42-.14-.91-.42-1.08-.62-.28-.32-.26-.48.21-1.34,1-1.85,3.37-3.61,7.77-5.78,3.48-1.72,12.85-5.02,14.01-4.93.71.06,2.35,2.35,2.5,3.49.25,1.89-.97,3.86-3.46,5.59Z"/>
                    <path class="cls-3" d="M207.79,78.88c1.59,1.03,2.64.68,4.06-1.35,1.47-2.1,1.35-3.53-.4-4.63-1.04-.66-2.3-.34-3.59.91-1.96,1.89-1.98,3.85-.07,5.08Z"/>
                    <path class="cls-3" d="M295.92,93.06c-.66-.42-.85-.33-2.05.94-3.54,3.75-6.83,5.5-10.44,5.54-1.58.02-2.27-.15-3.47-.84-2.1-1.21-2.74-2.97-2.7-7.39.04-3.83-.36-4.67-2.42-5.17-1.58-.38-4.43,1.22-9.56,5.38l-3.91,3.16,1.86-3c1.97-3.18,2.06-3.74.84-5.05-.68-.73-1.38-1-2.69-1.01-.7-.01-2.1,2.43-3.34,5.33-.34.36-.87.91-1.32,1.37-1.15,1.19-4.13,2.95-7,4.13-1.86.77-8.52,2.61-8.7,2.4-.05-.05.42-1.65,1.05-3.55,1.47-4.47,1.69-6.95.71-7.99-1.91-2.02-3.41-1.42-8.16,3.25-3.43,3.37-6.31,5.75-6.92,5.7-.57-.04.07-2.21,1.26-4.25.55-.94,1.84-2.49,2.87-3.45,1.75-1.63,1.94-1.72,3.04-1.42,1.86.5,2.49-.79,1.15-2.35-2.08-2.41-6.55-.58-9.49,3.8-.3.23-.62.49-1,.8-8.67,7.23-21.05,10.74-24.1,6.83-1.3-1.67.21-6.41,2.99-9.35,1.42-1.5,1.5-2.65.31-4.04-.75-.86-1.19-1.08-2.2-1.09-1.11-.01-1.42.19-2.53,1.64-1.98,2.6-3.1,5.65-3.13,8.54-.02,1.33.2,2.95.47,3.59,2.77,6.45,10.41,5.61,12.36,5.28,4.19-.71,10.06-3.47,14.64-6.74-.3,2.53.61,4.52,2.66,5.07,2.07.55,4.45-.88,9.09-5.45l1.92-1.89-.68,2.16c-.37,1.19-1.01,3.03-1.42,4.1l-.75,1.93-2.81.88c-1.55.48-4.79,1.69-7.2,2.69-18.54,7.64-30.92,20.05-29.1,29.19.28,1.42,2.63,8.31,13.9,4.58,9.77-3.24,19.92-15.43,27.45-30.93,1.05-2.17,2.04-4.14,2.19-4.37.15-.24,2.39-.95,4.97-1.57,2.58-.63,5.91-1.67,7.4-2.32,1.65-.72,3.1-1.49,4.31-2.25-.33,1.14-.56,2.19-.62,3-.1,1.29.02,1.74.59,2.21.39.32.98.61,1.31.63s2.88-1.9,5.67-4.27c4.25-3.61,9.11-7.19,9.69-7.15.08,0,.17.84.2,1.84.1,3.9,2.2,7.39,5.55,9.23,3.68,2.02,7.58.99,9.44.28,3.09-1.18,5.55-2.93,7.23-5.12,1.41-1.85,1.57-2.83.57-3.46ZM227.42,115.33c-7.07,11.3-14.98,18.57-21.9,20.12-9.49,2.12-6.48-7.12-5.57-9.03,2.86-5.95,10.73-12.9,19.99-17.63,3.9-1.99,13.39-5.81,13.66-5.5.31.36-3.45,7.67-6.18,12.04Z"/>
                  </g>
                </g>
                <path class="cls-16" d="M2.16,99.28s0,0,0,0c0,0,.02,0,.03-.01,0,0-.02,0-.03.01Z"/>
                <path class="cls-16" d="M43.4,89.36s0,0,0-.01c0,0,0-.01,0-.02-.04.12-.01.08,0,.03Z"/>
                <path class="cls-16" d="M40.31,99.58s.02-.03.03-.05c0,0-.02.02-.04.06,0,0,0,0,0,0Z"/>
                <path class="cls-16" d="M33.88,99.79s.03.01.04.02c0,0,0,0,0,0-.05-.05-.08-.04-.04-.02Z"/>
                <path class="cls-16" d="M85.28,108.13s-.02,0,.04,0c0,0,0,0,0,0-.01,0-.03,0-.04,0Z"/>
                <path class="cls-16" d="M1.37,94.19s0,0,0,0c.04-.21,0-.07,0,0Z"/>
                <path class="cls-16" d="M75.14,103.5s0,0,0-.01c.01-.03.04-.11,0,.01Z"/>
              </g>
              <g class="cls-17">
                <g>
                  <path class="cls-3" d="M14.97,122.69c-.08-.07-.17-.13-.26-.19-.13-.11-.26-.22-.4-.31-.32-.25-.67-.46-.99-.69-.32-.23-.64-.44-.96-.66-.65-.44-1.29-.9-1.92-1.35-.3-.21-.6-.43-.89-.66-1.33-1.04-2.58-2.19-3.7-3.46-.29-.33-.57-.67-.85-1.02-1-1.32-1.86-2.72-2.52-4.24-.58-1.41-.99-2.91-1.22-4.42-.14-1.18-.15-2.37-.01-3.55.17-1.14.5-2.24.94-3.31.36-.83.81-1.64,1.24-2.44.23-.43.45-.86.69-1.29.24-.43.47-.86.69-1.3.28-.58.56-1.19.75-1.81-.05.11-.1.23-.14.34.26-.59.44-1.21.58-1.83.14-.64.23-1.29.26-1.94.05-1.22-.1-2.46-.42-3.63-.61-2.27-1.72-4.37-2.49-6.58-.39-1.12-.69-2.27-.87-3.44-.17-1.42-.17-2.86,0-4.28.11-.74.28-1.47.47-2.2.19-.75.44-1.49.73-2.2.15-.33.32-.66.47-1,.42-.87.92-1.71,1.49-2.49.07-.09.13-.18.2-.26.81-1.03,1.74-1.96,2.76-2.77.3-.23.61-.45.92-.65.17-.11.35-.22.52-.33.19-.11.39-.21.57-.34.17-.11.34-.23.51-.33.3-.19.43-.56.29-.89-.14-.33-.49-.5-.84-.41-.22.05-.45.11-.67.17.04,0,.09-.01.13-.02-.1.02-.19.04-.28.07.02,0,.05-.02.07-.03-.02,0-.05.02-.07.03-.04.01-.07.03-.11.05-2.5,1.04-4.75,2.65-6.52,4.71-.56.65-1.08,1.34-1.55,2.06.08-.1.15-.2.23-.3-.18.23-.33.45-.47.7-.09.16-.18.32-.26.48-.18.33-.34.67-.49,1.02-.36.82-.7,1.65-.92,2.52-.42,1.61-.63,3.29-.62,4.96,0,.91.1,1.8.22,2.7.11.77.27,1.52.48,2.27.45,1.57,1.12,3.07,1.74,4.58.66,1.6,1.25,3.24,1.52,4.96.1.86.11,1.73.01,2.59-.15.95-.42,1.86-.79,2.75-.17.39-.35.78-.52,1.17l.13-.31c-.57,1.11-1.17,2.21-1.69,3.34-.55,1.17-1.06,2.35-1.38,3.61-.3,1.2-.45,2.45-.45,3.68,0,1.24.15,2.48.38,3.69.24,1.24.69,2.44,1.18,3.59.44,1.04.96,2.04,1.58,2.98,1.3,2.01,2.95,3.8,4.77,5.35,1.82,1.55,3.79,2.97,5.96,3.99.29.14.59.3.89.41.16.07.33.13.5.19.11.04.23.09.35.12.23.08.48.1.71.03.28-.08.57-.29.71-.55.28-.53.17-1.25-.36-1.59Z"/>
                  <path class="cls-3" d="M106.27,108.12s-.03.08-.05.11c-.02.04-.03.08-.05.12.03-.08.06-.15.1-.23Z"/>
                  <path class="cls-3" d="M83.9,108.96c-.02.1-.03.19-.04.29.01-.1.03-.19.04-.29Z"/>
                  <path class="cls-3" d="M83.9,108.96s0,0,0,0c0-.01,0-.03,0-.04,0,.01,0,.03,0,.04Z"/>
                  <path class="cls-3" d="M96.23,110.02c.12-.22.22-.46.3-.69.12-.35.16-.74.16-1.11,0-.78-.23-1.53-.58-2.21-.18-.35-.41-.65-.65-.95-.17-.21-.36-.4-.56-.57-.3-.24-.6-.48-.94-.67-.33-.19-.69-.34-1.05-.48-1.22-.46-2.61-.47-3.87-.17-1.25.3-2.45,1-3.32,1.95-.96,1.05-1.6,2.43-1.82,3.84-.06.44-.11.89-.11,1.34,0,.45.05.89.12,1.34.12.8.37,1.56.71,2.29.68,1.43,1.8,2.65,3.13,3.5.34.22.69.41,1.06.58.42.19.85.34,1.3.47.36.1.8-.12.89-.5.09-.42-.13-.74-.5-.89-.03-.01-.07-.03-.1-.04,0,0-.02,0-.03-.02-.09-.04-.17-.09-.26-.13-.17-.08-.33-.16-.49-.26-.3-.17-.59-.36-.86-.57-.48-.39-.92-.82-1.3-1.31-.34-.46-.63-.95-.86-1.47-.19-.48-.33-.98-.41-1.49-.05-.48-.04-.96,0-1.43.09-.55.23-1.09.43-1.6.19-.42.42-.82.69-1.2.25-.31.53-.59.84-.85.26-.18.53-.34.82-.48.34-.13.68-.22,1.04-.28.37-.04.74-.03,1.11,0,.33.06.66.14.98.26.25.12.49.26.72.42.15.13.3.27.43.42.11.16.21.34.3.51.05.15.1.3.13.46,0,.09,0,.19,0,.28-.02.07-.03.13-.05.2-.03.06-.06.12-.08.18-.06.14-.09.27-.14.42-.02.13-.03.26-.05.38.02.13.03.26.05.38.08.3.27.56.52.75.21.16.42.25.68.28.3.04.66,0,.92-.17.29-.21.56-.4.75-.72ZM91.25,105.98s0,0,0,0c.03,0,.05,0,.08.01-.03,0-.05,0-.08-.01Z"/>
                  <path class="cls-3" d="M44.37,105.44c-1.05.03-2.11.23-3.09.61-.53.21-1.05.45-1.54.75-.49.31-.96.66-1.4,1.05-1.62,1.45-2.71,3.48-3.09,5.62-.19,1.08-.22,2.19-.08,3.28.07.56.18,1.11.35,1.65.09.29.18.58.3.85.1.22.23.44.33.66.1.22.22.44.34.66.14.25.5.36.75.2.27-.17.33-.47.2-.75-.02-.05-.05-.1-.07-.15-.01-.03-.09-.19-.02-.05-.05-.1-.08-.2-.12-.3-.08-.2-.12-.41-.16-.62-.04-.21-.09-.42-.13-.64-.02-.1-.03-.21-.05-.31,0,0,0-.01,0-.02,0-.05-.01-.11-.02-.16-.08-.83-.07-1.67.03-2.5.16-.96.41-1.9.77-2.81.28-.62.62-1.22,1.02-1.77.39-.49.84-.94,1.33-1.33.53-.39,1.09-.72,1.69-.98.58-.23,1.19-.4,1.81-.5.6-.07,1.2-.07,1.79,0,.5.08,1.01.2,1.48.39.28.13.54.28.79.46.17.14.32.29.46.46.12.18.23.36.33.56.08.21.14.42.18.64.01.18.01.35,0,.53-.02.11-.05.23-.09.34-.04.09-.09.17-.14.25-.08.1-.17.19-.27.27-.1.07-.2.12-.3.17.07-.03.13-.06.2-.09h0c-.07.03-.14.06-.2.09-.06.02-.12.04-.18.06-.07,0-.14,0-.2-.01.03,0,.06,0,.09.01-.2-.02-.4,0-.58.11-.17.11-.29.25-.37.43-.08.18-.11.4-.05.59.08.24.22.4.42.54.52.38,1.28.5,1.89.29.29-.1.57-.23.81-.42.34-.26.6-.55.83-.91.36-.58.53-1.28.54-1.95.01-.72-.18-1.4-.46-2.06-1.01-2.32-3.75-3.24-6.11-3.18ZM47.95,111.85h0s.04-.02.06-.03c-.02,0-.04.02-.06.03Z"/>
                  <path class="cls-3" d="M113.8,74.45c-.06.38-.16.75-.3,1.1-.55,1.18-1.54,2.19-1.52,3.57,0,.75.31,1.46.82,2,.47.49,1.06.8,1.68,1.05.58.23,1.2.34,1.82.41.61.07,1.24.06,1.85.01,1.38-.11,2.72-.44,4-.98,1.27-.54,2.43-1.25,3.48-2.14,1.02-.86,1.9-1.92,2.6-3.05,1.42-2.29,2.12-5.02,2.11-7.71,0-1.47-.22-2.95-.59-4.37-.37-1.44-.91-2.82-1.64-4.12-.17-.3-.36-.59-.53-.89-.24-.44-.87-.61-1.29-.34-.44.28-.59.83-.34,1.29,0,.01.01.03.02.04.11.26.23.52.35.78.02.05.04.09.06.14.19.46.36.92.53,1.39.16.46.34.92.48,1.39.28.89.49,1.81.62,2.73.15,1.23.17,2.48.02,3.72-.16,1.1-.45,2.17-.87,3.2-.4.92-.9,1.79-1.5,2.59-.56.71-1.2,1.35-1.91,1.92-.77.58-1.6,1.06-2.48,1.45-.88.36-1.81.61-2.75.75-.76.09-1.55.11-2.31.03-.38-.06-.76-.16-1.12-.3-.21-.1-.41-.21-.6-.34-.1-.09-.19-.18-.27-.27-.04-.06-.08-.12-.11-.19-.02-.07-.04-.13-.05-.2,0-.08,0-.16,0-.24.03-.18.09-.35.15-.52.22-.47.5-.9.74-1.35.29-.55.53-1.13.64-1.74.23-1.24.1-2.46-.09-3.69-.09-.6-.2-1.2-.29-1.8-.1-.77-.14-1.54-.05-2.31.07-.43.18-.84.34-1.24.09-.21.2-.41.32-.61.06-.11.13-.21.2-.31.04-.06.08-.11.12-.17.02-.02.03-.04.05-.07,0,0-.01.02-.02.02.17-.21.36-.42.56-.61.09-.09.18-.17.28-.25.05-.05.11-.09.16-.13.02-.01.04-.03.05-.04,0,0,.01,0,.02-.01.23-.17.46-.32.71-.46.12-.07.25-.13.38-.19.06-.03.12-.05.18-.08,0,0-.01,0-.02,0,0,0,0,0,.01,0,.04-.02.08-.03.13-.05.28-.1.56-.19.85-.26.14-.03.28-.06.42-.09.06-.01.12-.02.19-.03.01,0,.02,0,.03,0,.05,0,.11-.01.16-.02.08,0,.15-.01.23-.02.04,0,.08,0,.11,0,.05,0,.1,0,.15-.02,0,0,0,0,.01,0,.16-.01.32-.03.48-.03.15,0,.34-.01.47,0,.14.01.33.06.48.1.2.05.41-.06.46-.26.05-.2-.07-.41-.26-.47-.25-.07-.5-.11-.75-.18-.25-.06-.5-.11-.75-.15-.06,0-.11-.01-.17-.02-.04,0-.1-.02-.1-.02-.07,0-.14,0-.21,0-.13,0-.26,0-.39,0-.29.01-.58.04-.88.08-1.03.15-2.04.52-2.91,1.11-.86.58-1.58,1.36-2.09,2.27-.52.95-.78,1.99-.81,3.07-.03,1.16.17,2.32.33,3.46.12.89.2,1.78.1,2.67Z"/>
                  <path class="cls-3" d="M116.16,65.08s0,0,0,0c-.03.04-.11.15,0,0Z"/>
                  <path class="cls-3" d="M118.49,63.31s-.1.05,0,0h0Z"/>
                  <path class="cls-3" d="M142.9,84.66c-.03-.44-.16-.85-.48-1.17-.29-.29-.75-.5-1.16-.48-.43.02-.87.16-1.16.48-.28.31-.51.73-.48,1.17,0,.14.02.27.03.41,0,.18,0,.36.02.53.03.44.02.88-.03,1.32-.07.42-.17.82-.32,1.22-.24.51-.55.99-.89,1.44-.51.65-1.1,1.24-1.75,1.75-.78.59-1.63,1.07-2.52,1.46-1.1.45-2.25.77-3.42.94-1.56.19-3.13.18-4.68-.02-.72-.1-1.42-.24-2.12-.42.64-.66,1.29-1.3,1.96-1.93,1.62-1.51,3.26-3.01,4.76-4.65,1.55-1.7,2.94-3.56,4.03-5.59,1.08-2.02,1.91-4.19,2.36-6.44.42-2.12.55-4.3.28-6.44-.13-1.09-.33-2.16-.62-3.22-.3-1.06-.69-2.09-1.16-3.09-.89-1.92-2.12-3.69-3.6-5.2-1.44-1.47-3.14-2.72-5.01-3.58-.92-.42-1.87-.78-2.85-1.05-.99-.27-1.99-.44-3.01-.57-.93-.11-1.87-.17-2.81-.18-.97-.01-1.94.04-2.91.13-.24.02-.47.05-.71.07-.29.03-.6.05-.88.11-.29.04-.58.09-.86.15-.26.05-.54.08-.79.17-.26.04-.51.08-.77.13-.13.02-.27.05-.4.07-.14.02-.29.04-.42.08.02,0,.05,0,.07,0-.22.03-.41.08-.58.25-.15.15-.26.39-.25.6,0,.22.08.45.25.6.15.14.38.28.6.25.56-.07,1.14-.07,1.71-.13.15.01.3,0,.44,0,.15,0,.3,0,.44,0,.3,0,.59,0,.89-.02.59-.04,1.17-.06,1.76-.08,1.15-.03,2.31-.04,3.46.03.57.03,1.14.08,1.71.15,1.5.21,2.98.58,4.38,1.16,1.13.5,2.21,1.12,3.19,1.87,1.07.84,2.03,1.82,2.88,2.89.88,1.16,1.61,2.42,2.19,3.76.6,1.47,1.02,3,1.24,4.57.2,1.6.2,3.22,0,4.83-.25,1.73-.73,3.42-1.4,5.04-.63,1.47-1.41,2.87-2.32,4.19-.24.35-.49.69-.74,1.02-1.24,1.58-2.64,3.02-4.1,4.41-1.47,1.4-2.99,2.74-4.38,4.22-.2.21-.4.43-.59.64-.22-.08-.44-.17-.66-.26-1.75-.75-3.41-1.69-4.97-2.77-.4-.28-.79-.57-1.18-.86-1.48-1.15-2.85-2.45-4.07-3.86-.33-.38-.64-.76-.95-1.15-.94-1.24-1.79-2.55-2.51-3.94-.22-.42-.43-.86-.62-1.3-1.15-2.77-1.68-5.72-2.29-8.64-.31-1.49-.65-2.97-1.12-4.42-.4-1.22-.99-2.37-1.77-3.39,0-.01-.13-.15-.15-.2.09.11.07.09-.05-.06-.02-.02-.04-.04-.06-.06-.05-.06-.11-.12-.16-.18-.12-.13-.24-.25-.37-.37-.28-.26-.57-.51-.87-.74-.03-.02-.07-.05-.1-.07.06.04.03.02-.06-.05-.11-.05-.14-.06-.08-.03-.07-.04-.15-.07-.22-.11-.17-.08-.34-.16-.5-.26-.33-.19-.66-.38-1-.55-.24-.12-.45.24-.21.36.45.23.89.5,1.21.9.03.03.05.06.08.11.02.02.03.04.05.06,0,.01.05.05.05.04.03.06.04.1.1.16.02.02.04.04.06.06.05.05.09.1.14.15.08.09.15.18.22.27.02.02.04.04.05.07,0,0,0,0,0,0,.04.05.08.11.12.16.28.39.53.81.76,1.22.12.21.23.42.33.64.05.1.1.2.14.31.02.05.11.26.01.02.02.06.05.12.07.18.38.94.65,1.92.88,2.91.27,1.14.49,2.28.69,3.43.41,2.3.76,4.62,1.43,6.86.66,2.18,1.69,4.23,2.95,6.13,1.19,1.8,2.59,3.49,4.15,4.99,1.61,1.55,3.39,2.92,5.3,4.07,1.18.72,2.42,1.35,3.71,1.88-.6.77-1.16,1.56-1.66,2.39-.44.71-.84,1.46-1.18,2.24-.31.1-.62.2-.93.3-1.98.68-3.85,1.61-5.76,2.46-.2.09-.4.17-.59.26-.71.29-1.43.56-2.16.77.04-.43.06-.85.07-1.28.02-1.28-.12-2.56-.4-3.81-.25-1.13-.65-2.23-1.13-3.29-.93-2.06-2.27-3.96-3.83-5.59-1.57-1.64-3.42-3.04-5.45-4.05-1.16-.57-2.37-1.05-3.6-1.41-1.24-.36-2.51-.6-3.79-.76-2.48-.32-4.98-.24-7.45.1-.89.12-1.77.29-2.64.51-.8-.87-1.66-1.68-2.58-2.42-.28-.23-.57-.46-.87-.68-.32-.27-.69-.52-1.03-.76-.33-.23-.66-.45-.99-.67-.68-.44-1.39-.84-2.11-1.22-1.52-.8-3.13-1.43-4.76-1.96-.77-.25-1.54-.48-2.32-.66-.79-.18-1.59-.34-2.39-.48-.34-.06-.69-.11-1.04-.16.07-.17.13-.34.2-.5.58-1.34,1.28-2.63,2.1-3.83.21-.31.43-.61.66-.91.97-1.24,2.07-2.38,3.28-3.38.15-.12.3-.25.46-.37.04-.03.07-.05.11-.08.08-.06.17-.13.26-.19.31-.22.62-.44.95-.65.65-.42,1.32-.79,2.02-1.12.09-.04.19-.09.28-.13.05-.02.1-.05.16-.07.02,0,.04-.02.05-.02.04-.02.02,0-.05.02.05-.02.1-.04.14-.06.09-.04.18-.09.27-.13.05-.02.09-.04.14-.06.02,0,.03-.01.05-.02,0,0,0,0,.01,0,.2-.05.4-.13.6-.19.21-.06.41-.12.62-.17.27-.07.47-.39.38-.67-.09-.29-.37-.45-.67-.38-.62.15-1.22.34-1.83.52-.64.19-1.27.47-1.87.75-1.17.55-2.27,1.22-3.3,2-.57.43-1.13.89-1.65,1.38-.49.47-.96.97-1.4,1.48-.95,1.1-1.8,2.3-2.52,3.56-.56.97-1.04,1.98-1.46,3.02-.72-.05-1.45-.08-2.17-.09-.11,0-.22,0-.32,0-1.44-.04-2.89.04-4.33.17-.21.02-.41.04-.62.06-.11.01-.22.02-.32.03-.17.02-.36.02-.53.06-1.09.11-2.17.25-3.24.44-1.04.18-2.07.41-3.1.68-.96.26-1.91.56-2.84.94-.94.38-1.85.8-2.71,1.34-.78.49-1.53,1.06-2.17,1.72-.6.62-1.13,1.34-1.49,2.13-.41.9-.65,1.83-.7,2.82-.04.71.04,1.43.19,2.13-1.75.23-3.49.6-5.15,1.23-2.09.8-4.06,1.97-5.57,3.65-.41.46-.79.95-1.13,1.46-.33.51-.58,1.04-.81,1.59-.42.99-.62,2.05-.73,3.11-.21,2.05.07,4.13.18,6.18.02.41.07.84.04,1.26-.23,1.29-.94,2.6-.3,3.89.07.13.15.25.24.37.15.2.3.39.47.56.28.27.61.52.95.71.73.41,1.51.6,2.34.7.74.09,1.48.04,2.22-.07.65-.09,1.29-.24,1.92-.44,1.43-.45,2.81-1.11,4.08-1.91,1.27-.8,2.47-1.75,3.49-2.86,1.14-1.24,2.01-2.67,2.65-4.22.57-1.38.85-2.88.81-4.37-.04-1.38-.33-2.76-.75-4.07-.41-1.26-.92-2.49-1.39-3.72-.12-.3-.23-.61-.34-.91,1.3-.07,2.61-.08,3.91,0,.62.03,1.25.09,1.87.17,1.61.23,3.18.62,4.69,1.23,1.15.5,2.25,1.13,3.25,1.89.77.62,1.48,1.31,2.1,2.09.54.72.99,1.5,1.35,2.33.29.71.5,1.46.62,2.22.05.46.07.93.04,1.39.02-.13.03-.26.05-.38-.03.21-.05.42-.07.62-.07.4-.17.79-.31,1.17-.16.34-.35.67-.57.97-.23.27-.48.53-.75.76-.14.09-.28.18-.43.25-.14.05-.29.09-.44.12-.11,0-.22,0-.32,0-.07-.02-.15-.04-.22-.06-.05-.03-.1-.06-.15-.09-.05-.04-.09-.09-.14-.14-.04-.06-.07-.11-.1-.17-.02-.05-.03-.1-.04-.15,0-.02,0-.05,0-.07,0,0,0,0,0,0,.07-.14.11-.29.11-.45.05-.2.04-.41-.03-.61-.1-.36-.37-.74-.71-.92-.36-.19-.79-.28-1.19-.16-.36.12-.76.35-.92.71-.1.23-.23.49-.28.74-.05.25-.09.51-.09.76,0,.27.04.54.1.8.03.14.07.27.12.39.1.24.19.49.33.71.14.22.3.43.47.62.09.11.19.2.3.29.15.12.3.25.46.35.09.06.19.11.3.15.62.28,1.3.44,1.98.38.74-.07,1.42-.26,2.07-.63.52-.3.98-.7,1.38-1.14.36-.4.7-.84.97-1.31.27-.46.48-.97.64-1.48.16-.51.24-1.03.3-1.56.1-.95,0-1.92-.19-2.85-.4-1.91-1.33-3.66-2.52-5.19-.61-.78-1.32-1.48-2.09-2.1-.89-.71-1.82-1.34-2.84-1.86-2.03-1.04-4.24-1.7-6.5-2.01-1.3-.18-2.61-.28-3.92-.29-1.13,0-2.27.04-3.4.13-.03-.13-.06-.25-.09-.38-.03-.16-.06-.32-.09-.48-.05-.49-.06-.98,0-1.46.07-.41.18-.82.33-1.21.19-.41.42-.81.69-1.17.4-.49.85-.93,1.35-1.33.72-.54,1.5-.99,2.3-1.38.21-.1.41-.19.62-.28.83-.34,1.68-.64,2.54-.88.95-.27,1.92-.49,2.9-.66.51-.09,1.02-.17,1.54-.24.94-.12,1.88-.21,2.82-.25.97-.05,1.95-.06,2.92-.04.48,0,.96.03,1.44.04.17.02.36.02.53.03.13,0,.25.02.38.03.25.02.51.04.76.06.03,0,.06,0,.09,0-.27.96-.49,1.94-.65,2.93-.51,3.16-.51,6.35.05,9.51.27,1.55.71,3.06,1.27,4.53.61,1.61,1.33,3.18,2.02,4.76.14.32.28.65.42.97.67,1.6,1.27,3.24,1.65,4.94.1.45.18.89.25,1.34.14,1.11.16,2.22.03,3.33-.13.84-.34,1.67-.66,2.46-.23.51-.5.99-.82,1.44-.25.32-.54.61-.85.86-.14.1-.29.19-.45.26-.16.06-.33.11-.5.14-.12,0-.24,0-.36,0-.08-.02-.15-.04-.23-.06-.05-.02-.09-.05-.14-.08-.06-.05-.11-.11-.16-.16-.04-.05-.07-.11-.1-.17-.04-.09-.09-.17-.16-.25-.09-.13-.2-.24-.34-.32-.26-.15-.65-.22-.94-.12-.3.1-.58.28-.73.56-.14.27-.25.65-.12.94.21.5.41.98.83,1.34.39.33.82.58,1.31.72.4.11.84.15,1.26.1.26-.03.52-.06.78-.13.26-.07.5-.18.75-.28.41-.18.77-.45,1.11-.73.3-.25.57-.53.81-.83.31-.38.6-.78.85-1.21.26-.45.46-.92.65-1.4.32-.8.53-1.65.65-2.51.14-1.01.2-2.01.13-3.03-.15-2.13-.69-4.21-1.44-6.21-.76-1.99-1.69-3.91-2.55-5.86-.08-.17-.15-.35-.23-.53-.74-1.78-1.36-3.61-1.74-5.5-.09-.46-.17-.93-.24-1.4-.24-1.82-.29-3.67-.15-5.51.04-.49.09-.98.15-1.47.15-1.05.36-2.1.63-3.13.44.08.88.16,1.31.26.78.18,1.56.38,2.34.6.77.22,1.55.44,2.31.69.82.27,1.63.57,2.43.91.08.04.17.07.25.11.23.1.46.22.69.3,1.51.67,3,1.45,4.36,2.39.31.22.62.44.92.67.53.42,1.05.86,1.54,1.31-.44.17-.88.36-1.32.57-1.01.48-1.98,1.04-2.87,1.72-.95.71-1.83,1.49-2.58,2.42-1.44,1.77-2.5,3.88-2.88,6.15-.1.61-.18,1.22-.19,1.84-.01.61.04,1.21.13,1.82.16,1.18.58,2.26,1.09,3.33.23.48.46.95.67,1.43.16.4.3.82.37,1.25.02.22.02.43,0,.65-.07.35-.2.69-.33,1.03-.18.47-.31.94-.33,1.45-.02,1.01.58,2,1.49,2.43.74.35,1.56.49,2.37.43.76-.06,1.54-.2,2.27-.41,1.39-.39,2.73-1.04,3.91-1.87,1.2-.84,2.28-1.84,3.18-3,.49-.62.94-1.26,1.33-1.95.39-.68.72-1.39,1.01-2.12.56-1.41.87-2.9.97-4.4.11-1.57-.06-3.16-.44-4.69-.38-1.51-.98-2.98-1.73-4.34-.46-.84-.99-1.66-1.57-2.44.11-.02.23-.05.34-.07.4-.07.8-.14,1.2-.19,1.79-.23,3.59-.3,5.39-.17.48.03.96.08,1.44.14,1.79.26,3.55.71,5.23,1.4,1.42.61,2.76,1.39,3.99,2.32,1.25.99,2.39,2.13,3.37,3.38.89,1.18,1.65,2.45,2.24,3.81.48,1.18.82,2.41,1,3.67.02.2.04.4.07.6.1.99.1,1.99.02,2.99-.87.11-1.75.13-2.62.03-.52-.08-1.03-.21-1.52-.41-.36-.16-.69-.35-1.01-.58-.28-.23-.54-.49-.77-.77-.18-.25-.34-.52-.47-.8-.09-.24-.16-.48-.2-.73-.02-.23-.02-.45,0-.68.03-.16.07-.32.13-.47.08-.16.16-.31.26-.45.14-.17.31-.33.48-.48.2-.14.41-.24.61-.38-.02.02-.04.03-.06.05.06-.03.12-.06.18-.08.21-.08.43-.14.66-.18.1,0,.2-.01.3-.02h0c.1,0,.19,0,.28.02.13.02.26.06.38.1.02,0,.05.02.07.03,0,0,0,0,0,0,.08.04.16.08.23.13.32.2.81.08.99-.26.09-.17.13-.37.07-.56-.06-.19-.17-.31-.33-.43-.45-.33-.97-.5-1.52-.58-.2-.06-.44-.04-.65-.03-.22.01-.44.04-.66.08-.39.07-.76.21-1.11.38-.7.35-1.31.9-1.73,1.56-.96,1.52-.6,3.54.42,4.93.56.76,1.25,1.41,2.08,1.87.93.51,1.94.78,2.99.92.71.09,1.42.1,2.13.05-.23.95-.53,1.88-.9,2.78-.54,1.26-1.22,2.45-2.05,3.54-.37.47-.76.92-1.19,1.34-.21.21-.43.41-.66.6-.05.05-.11.09-.17.14-.02.02-.05.04-.07.06-.02.01-.04.03-.05.04-.03.02-.05.04-.08.06-.09.06-.17.12-.24.19-.23.17-.47.32-.72.47-.11.07-.23.13-.34.19-.06.03-.12.06-.18.09-.02,0-.04.02-.05.02,0,0,0,0-.01,0-.11.04-.21.08-.32.11-.06.02-.12.03-.19.05-.02,0-.05,0-.07.01-.08,0-.16.01-.24.02-.01,0-.12,0-.14,0-.03,0-.2-.03-.09,0,.11.03-.05,0-.07-.01-.03,0-.3-.07-.29-.09.08.04.09.04.03.01-.02-.01-.05-.02-.07-.03-.05-.02-.09-.05-.13-.08-.04-.02-.14-.13-.04-.02-.03-.03-.06-.05-.09-.07-.04-.03-.07-.07-.11-.11-.01-.01-.02-.03-.03-.04-.03-.04-.05-.08-.07-.12-.01-.02-.02-.04-.03-.07-.01-.02-.01-.03-.01-.03,0-.03-.01-.07-.02-.08,0-.02,0-.04-.01-.06-.03-.26-.22-.52-.52-.5-.28.01-.52.23-.52.52,0,.56.28,1.1.72,1.45.25.2.51.35.81.45.1.04.21.06.32.08.11.02.22.03.33.04.02,0,.05,0,.06,0,.06,0,.11.01.18,0,.68-.05,1.3-.25,1.92-.53.18-.08.36-.18.54-.27.08-.04.16-.09.23-.13.02-.01.05-.03.07-.04,0,0,0,0,0,0,.08-.03.14-.07.2-.12.72-.51,1.4-1.06,2.02-1.69.69-.7,1.3-1.48,1.85-2.29.64-.95,1.19-1.96,1.63-3.01.43-1.03.79-2.09,1.03-3.18.5-.11.99-.24,1.47-.39,1.85-.59,3.59-1.45,5.36-2.22.15-.07.3-.13.46-.2.53-.22,1.07-.43,1.62-.62-.02.1-.04.19-.06.29-.38,2-.31,4.06.31,6.01.63,1.97,1.7,3.78,3.2,5.21,1.46,1.39,3.22,2.42,5.1,3.12,1,.37,2.05.62,3.11.77,1.17.16,2.34.23,3.52.14,1.12-.08,2.28-.24,3.35-.6.54-.18,1.09-.41,1.57-.72.55-.36,1-.79,1.38-1.33.33-.47.53-1.03.61-1.59.05-.37.04-.69-.02-1.06-.05-.3-.16-.58-.29-.86-.41-.85-1.25-1.42-2.02-1.91-.29-.18-.58-.36-.85-.56-.16-.13-.3-.27-.43-.42-.08-.12-.16-.25-.22-.38-.1-.27-.16-.55-.21-.84-.11-.93-.1-1.88-.31-2.81-.19-.84-.57-1.67-1.08-2.36-.29-.39-.59-.77-.94-1.11-.35-.34-.75-.65-1.15-.94-.75-.54-1.59-.94-2.46-1.27-1.83-.69-3.83-.82-5.76-.66-.78.07-1.56.17-2.33.32.46-.77.97-1.52,1.51-2.23.2-.26.41-.51.62-.76.09.03.19.06.28.08,2.23.64,4.58.95,6.9.8,2.33-.15,4.64-.67,6.74-1.71,1.97-.97,3.69-2.48,4.85-4.34.3-.48.58-.98.8-1.49-.04.1-.08.2-.13.3.13-.27.28-.53.4-.8.16-.37.32-.74.44-1.12.22-.69.35-1.41.31-2.13ZM36.64,91.39c.51,1.3,1.01,2.61,1.3,3.98.06.28.11.55.15.83.09.77.1,1.55,0,2.32-.12.79-.34,1.56-.64,2.3-.39.88-.87,1.73-1.44,2.5-.69.87-1.49,1.64-2.36,2.32-1.11.84-2.32,1.55-3.59,2.11-.96.39-1.97.7-3,.85-.51.06-1.02.07-1.53.01-.36-.06-.7-.15-1.04-.27-.19-.09-.37-.19-.54-.31-.12-.1-.23-.21-.33-.33-.03-.04-.05-.08-.08-.12,0-.09,0-.17,0-.26.09-.53.26-1.05.38-1.57.08-.33.14-.67.16-1.01.02-.35-.02-.71-.04-1.05-.09-1.44-.24-2.89-.27-4.33-.01-.72.01-1.45.1-2.17.11-.73.29-1.45.57-2.14.27-.59.6-1.15.98-1.67.51-.64,1.1-1.22,1.75-1.74.87-.65,1.82-1.19,2.81-1.62,1.61-.66,3.32-1.05,5.05-1.29.18-.02.37-.05.55-.07.32.92.69,1.82,1.04,2.73ZM79.12,86.69c.9,1.19,1.67,2.48,2.26,3.86.48,1.17.82,2.38,1.01,3.63.13,1.08.14,2.17,0,3.24-.16,1.08-.45,2.14-.87,3.16-.45,1.04-1.03,2.03-1.71,2.93-.67.85-1.43,1.61-2.28,2.28-.77.58-1.61,1.08-2.5,1.47-.82.33-1.68.57-2.55.7-.33.04-.66.05-.99.02-.15-.03-.3-.07-.45-.12-.05-.03-.1-.05-.14-.08-.01-.01-.03-.03-.04-.04,0,0,0-.01-.01-.02,0-.01,0-.03-.01-.04,0-.04,0-.08,0-.12.09-.42.28-.82.42-1.23.19-.54.28-1.13.25-1.71-.07-1.17-.51-2.22-1-3.27-.22-.46-.45-.92-.65-1.39-.26-.64-.44-1.3-.54-1.98-.09-.76-.08-1.53,0-2.3.14-.9.38-1.79.73-2.63.39-.88.87-1.71,1.45-2.48.62-.78,1.34-1.48,2.12-2.1,1.06-.8,2.22-1.46,3.44-1.99.48-.2.97-.38,1.46-.54.21.25.42.5.61.75ZM96.41,114.42s.01.02.03.06c0,0-.02-.03-.03-.06ZM125.56,100.16c.79.12,1.57.34,2.32.64.63.28,1.24.63,1.8,1.04.39.32.75.67,1.07,1.06.25.34.47.71.65,1.1.13.36.23.73.29,1.11.12,1.03.08,2.1.39,3.1.2.63.51,1.2.96,1.68.35.38.78.68,1.21.96.37.24.76.47,1.12.73.14.11.26.24.38.37.04.07.08.13.12.2.02.06.04.13.05.19,0,.08,0,.16,0,.25-.02.11-.05.22-.09.33-.07.13-.14.26-.22.38-.11.13-.23.25-.36.36-.25.18-.52.33-.81.46-.73.28-1.5.45-2.27.56-1.27.16-2.55.16-3.82,0-1.19-.17-2.37-.49-3.48-.94-.96-.42-1.87-.95-2.71-1.58-.69-.55-1.31-1.16-1.86-1.85-.5-.67-.91-1.41-1.25-2.18-.33-.82-.58-1.68-.71-2.56-.1-.84-.1-1.7,0-2.54.11-.77.31-1.52.56-2.26.41-.1.82-.2,1.23-.29.51-.11,1.02-.2,1.53-.27,1.29-.16,2.61-.21,3.91-.06Z"/>
                  <path class="cls-3" d="M73.91,67.32s0-.04,0-.06c0-.06-.02-.12-.02-.17.01.08.02.15.03.23Z"/>
                  <path class="cls-3" d="M73.9,67.26c.05.39.12.78.22,1.16.11.44.26.87.42,1.29.33.91.71,1.81.99,2.74.15.48.26.98.34,1.48.08.77,0,1.53,0,2.3,0,.45.03.92.13,1.37.11.5.35.94.67,1.35.25.32.58.57.92.8.34.23.75.4,1.15.51.47.12.98.16,1.46.12.5-.04,1.01-.12,1.49-.29,1.47-.5,2.79-1.33,3.88-2.43,1.09-1.1,1.91-2.41,2.48-3.84.26-.65.45-1.32.56-2.01.07-.42.15-.87.15-1.3,0-.36-.01-.72-.04-1.08-.02-.18-.04-.36-.06-.55-.24-1.9-.9-3.75-2.07-5.28-.34-.44-.69-.85-1.09-1.23-.22-.21-.6-.24-.82,0-.23.25-.21.57,0,.82.06.07.12.14.17.21.01.01.02.03.03.04.03.03.05.07.08.1.11.14.21.29.31.44.2.32.39.64.56.98.08.16.16.33.23.49.02.04.03.08.05.12.04.09.07.18.1.27.13.35.24.7.34,1.06.1.37.17.75.23,1.13.1.81.09,1.62-.02,2.44l.04-.27c-.02.16-.04.32-.06.48-.11.77-.32,1.53-.61,2.25-.31.71-.71,1.38-1.17,2-.47.59-1.01,1.13-1.6,1.6-.62.47-1.28.87-2,1.19-.47.19-.97.36-1.47.44-.26.03-.52.03-.78,0-.17-.03-.34-.08-.5-.14-.09-.05-.18-.1-.27-.16-.09-.08-.18-.17-.27-.26-.06-.09-.12-.18-.16-.28-.06-.17-.11-.34-.14-.52-.05-.66.04-1.32.06-1.98.02-.75-.08-1.51-.27-2.23-.36-1.35-.99-2.61-1.46-3.91-.21-.58-.39-1.18-.48-1.79-.06-.52-.07-1.05-.02-1.58.05-.35.14-.69.27-1.02.09-.21.2-.41.31-.61.07-.12.14-.22.22-.33-.15.23-.01.02.04-.04.04-.05.23-.22.03-.07.15-.12.27-.23.33-.43.05-.17.03-.4-.07-.55-.1-.15-.25-.29-.43-.33-.17-.04-.4-.04-.55.07-.17.13-.35.24-.52.37-.12.1-.24.21-.34.32-.15.16-.29.33-.39.52-.11.19-.19.4-.27.6-.27.66-.37,1.4-.38,2.12,0,.44.04.87.1,1.3Z"/>
                  <path class="cls-3" d="M88.6,68.67c0,.07.02.14.03.2,0,.01,0,.03,0,.04-.01-.08-.02-.16-.03-.24Z"/>
                  <path class="cls-3" d="M91.52,79.66c.85.81,2.1,1.24,3.27,1.1.66-.08,1.28-.27,1.86-.61.51-.3.99-.7,1.38-1.14,1.62-1.84,2.23-4.38,2-6.79-.24-2.43-1.16-4.73-2.62-6.68-.73-.97-1.54-1.87-2.41-2.71-.21-.2-.42-.41-.64-.6-.13-.12-.28-.21-.42-.31-.06-.04-.11-.08-.17-.12,0,0-.01,0-.02-.01-.03-.03-.07-.06-.1-.08-.45-.37-.9-.73-1.34-1.11-.22-.19-.44-.38-.66-.57-.19-.16-.48-.2-.66,0-.16.17-.2.49,0,.66.52.45,1.05.9,1.53,1.4.11.11.21.22.32.33.06.07.13.13.19.2.02.02.04.05.06.07.02.02.14.18.05.06.13.16.25.33.39.48.12.12.23.25.35.37.23.25.45.51.67.76.11.13.22.26.32.39.05.06.1.12.14.18.03.04.06.07.09.11,0,0,0,0,0,0,0,0,0,0,0,0,.41.54.8,1.1,1.15,1.69.37.62.71,1.26,1,1.93.37.91.64,1.86.78,2.84.1.82.11,1.65.01,2.47-.1.65-.27,1.3-.51,1.91-.2.45-.44.88-.73,1.27-.24.29-.5.57-.79.81-.21.15-.44.29-.68.4-.19.07-.38.12-.57.16-.18.01-.37.01-.55,0-.18-.03-.36-.08-.53-.15-.13-.07-.26-.14-.39-.23-.09-.08-.18-.17-.26-.26-.06-.08-.11-.17-.15-.26-.03-.09-.05-.18-.07-.27,0-.12,0-.24,0-.36.02-.12.05-.23.09-.34.04-.08.09-.16.14-.24.09-.1.19-.2.29-.29.11-.08.24-.15.36-.22.21-.11.36-.32.45-.53.09-.22.13-.49.06-.72-.15-.47-.56-.81-1.07-.81-.18,0-.37.03-.55.06-.19.03-.37.13-.54.22-.25.14-.5.32-.68.54-.38.47-.66,1-.79,1.59-.13.6-.14,1.21.02,1.81.16.59.5,1.16.95,1.58Z"/>
                  <path class="cls-3" d="M28.66,65.82c.36,1.29.92,2.54,1.67,3.65,1.56,2.32,3.9,4.11,6.53,5.03,1.3.46,2.72.68,4.1.69,1.38,0,2.8-.2,4.08-.72.69-.28,1.34-.6,1.94-1.05.32-.25.64-.5.92-.79.27-.28.52-.6.75-.92.41-.58.71-1.24.92-1.92.2-.66.3-1.39.25-2.08-.06-.8-.25-1.55-.62-2.26-.3-.57-.73-1.09-1.24-1.49-.29-.23-.59-.45-.92-.63-.33-.17-.67-.32-1.02-.42-.36-.11-.75-.17-1.13-.19-.13,0-.25,0-.38,0-.23.01-.49.03-.71.09-.21.05-.42.16-.61.26-.15.08-.31.17-.44.28-.11.08-.2.18-.28.31-.14.23-.19.58-.11.84.09.26.25.52.5.65.23.12.52.2.77.13.05,0,.09,0,.14,0,.12,0,.25.02.37.02.19,0,.38,0,.58,0,.26.05.51.12.75.21.23.11.44.24.65.38.21.18.4.37.58.58.12.17.22.34.31.53.09.23.15.48.2.72.03.3.03.59,0,.89-.06.35-.16.7-.29,1.04-.16.34-.34.66-.56.96-.26.32-.56.61-.88.87-.43.31-.89.57-1.37.79-.69.28-1.41.46-2.14.57-.92.11-1.85.1-2.78,0-1.07-.16-2.12-.45-3.12-.86-.82-.36-1.6-.8-2.32-1.33-.7-.56-1.34-1.2-1.9-1.9-.29-.38-.55-.78-.8-1.19-.13-.22-.25-.44-.36-.67-.06-.11-.11-.22-.16-.33-.03-.06-.05-.12-.08-.18-.01-.03-.02-.05-.03-.08,0,0,0,0,0,0-.02-.04-.05-.11-.05-.13-.02-.05-.04-.11-.06-.16-.05-.12-.09-.24-.13-.37-.09-.25-.16-.5-.23-.75-.13-.48-.23-.98-.33-1.47-.03-.14-.05-.28-.07-.42,0-.03,0-.06-.01-.08,0,0,0,0,0,0,0,0,0-.04-.01-.07,0,0,0-.01,0,0,0-.05,0-.12,0-.14-.02-.29-.02-.58-.02-.86,0-.31-.28-.61-.59-.59-.34.02-.57.26-.59.59-.04.64-.04,1.3-.01,1.94.04.69.18,1.39.37,2.06Z"/>
                  <path class="cls-3" d="M29.51,62.84s0,.04,0,.06c0,0,0,0,0,0,0-.04-.01-.07-.01-.08h0s0,.01,0,.02Z"/>
                </g>
                <path class="cls-18" d="M71.4,95.88c.37,3,2.31,5.33,1.96,6.32-.04.11-.08.22-.11.33-.1.16-.21.32-.29.5-.2.42-.03.73.27.9.1.1.25.16.46.14.11.01.23.01.33,0,1.12-.15,2.27-.99,3.13-1.7,1.67-1.37,2.95-3.27,3.44-5.4.52-2.27.02-4.69-1.26-6.6-.53-.79-1.18-1.46-1.91-2.03,0,0-6.7,2.07-6.03,7.54Z"/>
              </g>
            </g>
            <text class="cls-2" transform="translate(30.28 171.33)"><tspan class="cls-9" x="0" y="0">B</tspan><tspan class="cls-14" x="26.82" y="0">Y SHR</tspan><tspan class="cls-11" x="160.44" y="0">E</tspan><tspan class="cls-7" x="186.77" y="0">Y</tspan><tspan class="cls-13" x="212.96" y="0">A</tspan><tspan class="cls-14" x="242.12" y="0">S</tspan></text>
          </g>
          <g>
            <g>
              <g>
                <g>
                  <path class="cls-16" d="M91.26,30.77c-5.59,0-9.85,1.15-12.78,3.44-2.93,2.29-4.4,5.59-4.4,9.89,0,3.86,1.44,6.9,4.32,9.13,2.88,2.24,6.69,3.35,11.44,3.35,6.26,0,11.03-2.37,14.33-7.12.06,2.18.67,3.83,1.84,4.94,1.17,1.12,3.13,1.68,5.87,1.68h3.77v-6.29h-2.1c-1.9,0-2.85-1.03-2.85-3.1v-18.44c0-4.97-1.5-8.79-4.48-11.44-2.99-2.65-7.22-3.98-12.7-3.98-5.14,0-9.32,1.17-12.53,3.52-3.21,2.35-5.07,5.62-5.57,9.81h6.87c.45-2.18,1.63-3.92,3.56-5.24,1.93-1.31,4.37-1.97,7.33-1.97,3.35,0,5.96.78,7.84,2.35,1.87,1.56,2.81,3.74,2.81,6.54v2.93h-12.57ZM103.83,38.65c0,3.63-1.2,6.55-3.6,8.76-2.4,2.21-5.7,3.31-9.89,3.31-2.85,0-5.11-.64-6.79-1.93-1.68-1.29-2.51-2.99-2.51-5.11,0-4.75,3.18-7.12,9.55-7.12h13.24v2.1Z"/>
                  <path class="cls-16" d="M124.24,53.4c1.7,1.79,4.57,2.68,8.59,2.68h7.88v-6.29h-7.46c-1.73,0-2.95-.38-3.65-1.13-.7-.75-1.05-2.02-1.05-3.81v-25.23h10.81v-6.29h-10.81V1.36h-6.87v11.99h-7.71v6.29h7.71v25.31c0,3.86.85,6.68,2.56,8.46Z"/>
                  <path class="cls-16" d="M142.88,13.34v23.8c0,6.7,1.54,11.62,4.61,14.75,3.07,3.13,7.15,4.69,12.23,4.69,5.87,0,10.42-2.07,13.66-6.2l.92,5.7h5.95V13.34h-6.87v21.37c0,4.81-1.1,8.61-3.31,11.4-2.21,2.79-5.27,4.19-9.18,4.19-3.58,0-6.33-1.16-8.25-3.48-1.93-2.32-2.89-5.68-2.89-10.1V13.34h-6.87Z"/>
                  <path class="cls-16" d="M194.41,19.79l-.92-6.45h-5.95v42.74h6.87v-21.79c0-4.02.88-7.4,2.64-10.14.02-.03.05-.06.07-.09,5.45-5.7,13.88-6.93,17.71-16.13-9.54,5.48-14.86,2.03-20.42,11.86Z"/>
                  <path class="cls-16" d="M246.22,36.05c.11-1.34.17-2.32.17-2.93-.11-4.13-1.03-7.74-2.77-10.81-1.73-3.07-4.11-5.42-7.12-7.04-3.02-1.62-6.48-2.43-10.39-2.43s-7.49.91-10.56,2.72c-3.07,1.82-5.46,4.37-7.17,7.67-1.7,3.3-2.56,7.12-2.56,11.48s.88,8.12,2.64,11.44c1.76,3.32,4.23,5.9,7.42,7.71,3.18,1.82,6.9,2.72,11.15,2.72,4.86,0,8.97-1.38,12.32-4.15,3.35-2.77,5.45-6.33,6.29-10.69h-6.96c-.73,2.74-2.16,4.88-4.31,6.41-2.15,1.54-4.76,2.31-7.84,2.31-3.97,0-7.18-1.26-9.64-3.77-2.46-2.51-3.74-5.87-3.85-10.06v-.59h33.18ZM217.64,22.06c2.46-2.12,5.31-3.19,8.55-3.19,3.63,0,6.63,1.01,9.01,3.02,2.37,2.01,3.73,4.83,4.06,8.46h-25.81c.34-3.41,1.73-6.17,4.19-8.3Z"/>
                  <path class="cls-16" d="M260.88,20.42c1.79-1.2,4.13-1.8,7.04-1.8s5.22.73,7.12,2.18c1.9,1.45,2.99,3.3,3.27,5.53h6.87c-.34-4.36-2.08-7.71-5.24-10.06-3.16-2.35-7.25-3.52-12.28-3.52-3.07,0-5.84.54-8.3,1.63-2.46,1.09-4.4,2.61-5.82,4.57-1.42,1.96-2.14,4.19-2.14,6.7,0,2.79.73,4.99,2.18,6.58,1.45,1.59,3.35,2.75,5.7,3.48,2.35.73,5.36,1.31,9.05,1.76,2.63.34,4.65.67,6.08,1.01,1.42.34,2.58.95,3.48,1.84.89.89,1.34,2.18,1.34,3.86,0,1.96-.94,3.53-2.81,4.74-1.87,1.2-4.32,1.8-7.33,1.8-3.41,0-6.19-.81-8.34-2.43-2.15-1.62-3.28-3.71-3.39-6.29h-6.87c.05,4.58,1.77,8.16,5.15,10.73,3.38,2.57,7.86,3.86,13.45,3.86,3.13,0,5.98-.53,8.55-1.59,2.57-1.06,4.61-2.57,6.12-4.53,1.51-1.96,2.26-4.22,2.26-6.79,0-2.96-.74-5.31-2.22-7.04-1.48-1.73-3.43-2.99-5.87-3.77-2.43-.78-5.52-1.4-9.26-1.84-2.68-.34-4.68-.64-5.99-.92-1.31-.28-2.39-.81-3.23-1.59-.84-.78-1.26-1.9-1.26-3.35,0-1.96.89-3.53,2.68-4.74Z"/>
                  <path class="cls-16" d="M59.12,22.6c1.98,2.32,2.97,5.69,2.97,10.1,0,0-.7,19.37,1.37,23.33.24.5.73.53.79.53,4.68.34,9.03,1.52,9.1,1.5-1.9-.95-4.38-3.63-4.39-8.22v-17.56c0-6.7-1.58-11.62-4.73-14.75-3.16-3.13-7.33-4.69-12.53-4.69-6.15,0-10.84,2.1-14.08,6.29l-.92-5.78h-5.95v42.74h6.87v-21.37c0-4.8,1.14-8.6,3.44-11.4,2.29-2.79,5.45-4.19,9.47-4.19,3.74,0,6.61,1.16,8.59,3.48Z"/>
                  <path class="cls-16" d="M281.38,7.82s0-.03.01-.04c-.01.02-.02.05-.03.08,0-.01,0-.02.02-.03,0,0,0,0,0,0Z"/>
                  <path class="cls-16" d="M103.55,3.89c-.11.03-.17.05-.17.06.05-.02.11-.04.16-.05,0,0,0,0,.01,0Z"/>
                  <path class="cls-16" d="M106.47.04s0,0,0,0c-.02.05-.03.1-.03.12,0-.04.01-.08.03-.11,0,0,0,0,0,0Z"/>
                  <path class="cls-16" d="M253.4,72.05c-.14-.03-.11.02,0,0h0Z"/>
                  <path class="cls-16" d="M270.07,107.9c-.05-.03.03.05.08.07-.01,0-.02-.02-.03-.03-.02-.02-.03-.02-.05-.04Z"/>
                  <path class="cls-16" d="M259.37,116s-.04-.06-.06-.08c0,0,0,0,0,.01.02.02.04.04.05.06Z"/>
                  <path class="cls-16" d="M258.21,113.24c.02-.17-.02-.18-.02-.11,0,.02,0,.04,0,.06,0,.02,0,.03,0,.05Z"/>
                  <path class="cls-16" d="M249.3,23.38c-2.62-5.75.78-8.46.79-8.49,3.82-4.29,6.71-6.45,6.58-14.89-5.01,6.94-9.8,5.75-10.79,14.78-.39,6.34,3.26,8.44,3.43,8.6Z"/>
                  <g>
                    <path class="cls-16" d="M195.88,98.27c-1.08-1.02-5.29-.8-12.7.68l-3.48.69-2.16-1.34c-2.91-1.8-5.74-3.15-11.38-5.42-11.52-4.64-13.74-5.73-15.44-7.54-1.49-1.59-1.64-3.46-.47-5.75,1.27-2.48,5.05-6.14,8.72-8.45,10.33-6.49,22.16-8.77,28.23-5.43,6.95,3.82,2.6,13.85-5.44,19.65-1.33.96-1.61,1.27-1.58,1.77.05,1.08,1.37,2.21,2.69,2.31,1.75.14,6.37-4.82,8.58-9.2,2.95-5.85,1.83-9.88,1.38-11.06-1.2-3.14-4.14-5.59-8.03-6.69-2.9-.82-7.97-.96-11.54-.32-11.06,1.99-22.38,8.36-26.27,14.79-2.49,4.1-1.33,7.63,2.34,10.67,2.67,2.2,5.44,3.59,13.36,6.7,9.14,3.59,14.17,6.02,13.11,6.34-.26.08-1.76.53-3.33.99-1.57.46-4.58,1.53-6.69,2.36-10.38,4.1-14.22,7.89-11.52,11.35.9,1.15,1.97,1.85,3.77,2.45,2.1.7,8.27.95,11.42.46,7.24-1.13,13.15-4.02,14.99-7.35,1.28-2.3.71-5.52-1.43-8.06-.59-.71-1.01-1.32-.92-1.36.34-.16,4.31-.97,7.01-1.42,2.73-.46,4.59-.63,6.04-.57.4.02.81-.14.98-.37.23-.32.19-.48-.22-.88ZM177.78,111.57c-2.45,1.7-7.62,3.38-11.91,3.87-2.28.26-6.95.11-8.04-.26-.42-.14-.91-.42-1.08-.62-.28-.32-.26-.48.21-1.34,1-1.85,3.37-3.61,7.77-5.78,3.48-1.72,12.85-5.02,14.01-4.93.71.06,2.35,2.35,2.5,3.49.25,1.89-.97,3.86-3.46,5.59Z"/>
                    <path class="cls-16" d="M206.43,77.65c1.59,1.03,2.64.68,4.06-1.35,1.47-2.1,1.35-3.53-.4-4.63-1.04-.66-2.3-.34-3.59.91-1.96,1.89-1.98,3.85-.07,5.08Z"/>
                    <path class="cls-16" d="M294.56,91.84c-.66-.42-.85-.33-2.05.94-3.54,3.75-6.83,5.5-10.44,5.54-1.58.02-2.27-.15-3.47-.84-2.1-1.21-2.74-2.97-2.7-7.39.04-3.83-.36-4.67-2.42-5.17-1.58-.38-4.43,1.22-9.56,5.38l-3.91,3.16,1.86-3c1.97-3.18,2.06-3.74.84-5.05-.68-.73-1.38-1-2.69-1.01-.7-.01-2.1,2.43-3.34,5.33-.34.36-.87.91-1.32,1.37-1.15,1.19-4.13,2.95-7,4.13-1.86.77-8.52,2.61-8.7,2.4-.05-.05.42-1.65,1.05-3.55,1.47-4.47,1.69-6.95.71-7.99-1.91-2.02-3.41-1.42-8.16,3.25-3.43,3.37-6.31,5.75-6.92,5.7-.57-.04.07-2.21,1.26-4.25.55-.94,1.84-2.49,2.87-3.45,1.75-1.63,1.94-1.72,3.04-1.42,1.86.5,2.49-.79,1.15-2.35-2.08-2.41-6.55-.58-9.49,3.8-.3.23-.62.49-1,.8-8.67,7.23-21.05,10.74-24.1,6.83-1.3-1.67.21-6.41,2.99-9.35,1.42-1.5,1.5-2.65.31-4.04-.75-.86-1.19-1.08-2.2-1.09-1.11-.01-1.42.19-2.53,1.64-1.98,2.6-3.1,5.65-3.13,8.54-.02,1.33.2,2.95.47,3.59,2.77,6.45,10.41,5.61,12.36,5.28,4.19-.71,10.06-3.47,14.64-6.74-.3,2.53.61,4.52,2.66,5.07,2.07.55,4.45-.88,9.09-5.45l1.92-1.89-.68,2.16c-.37,1.19-1.01,3.03-1.42,4.1l-.75,1.93-2.81.88c-1.55.48-4.79,1.69-7.2,2.69-18.54,7.64-30.92,20.05-29.1,29.19.28,1.42,2.63,8.31,13.9,4.58,9.77-3.24,19.92-15.43,27.45-30.93,1.05-2.17,2.04-4.14,2.19-4.37.15-.24,2.39-.95,4.97-1.57,2.58-.63,5.91-1.67,7.4-2.32,1.65-.72,3.1-1.49,4.31-2.25-.33,1.14-.56,2.19-.62,3-.1,1.29.02,1.74.59,2.21.39.32.98.61,1.31.63s2.88-1.9,5.67-4.27c4.25-3.61,9.11-7.19,9.69-7.15.08,0,.17.84.2,1.84.1,3.9,2.2,7.39,5.55,9.23,3.68,2.02,7.58.99,9.44.28,3.09-1.18,5.55-2.93,7.23-5.12,1.41-1.85,1.57-2.83.57-3.46ZM226.06,114.1c-7.07,11.3-14.98,18.57-21.9,20.12-9.49,2.12-6.48-7.12-5.57-9.03,2.86-5.95,10.73-12.9,19.99-17.63,3.9-1.99,13.39-5.81,13.66-5.5.31.36-3.45,7.67-6.18,12.04Z"/>
                  </g>
                </g>
                <path class="cls-16" d="M.79,98.05s0,0,0,0c0,0,.02,0,.03-.01,0,0-.02,0-.03.01Z"/>
                <path class="cls-16" d="M42.03,88.13s0,0,0-.01c0,0,0-.01,0-.02-.04.12-.01.08,0,.03Z"/>
                <path class="cls-16" d="M38.94,98.35s.02-.03.03-.05c0,0-.02.02-.04.06,0,0,0,0,0,0Z"/>
                <path class="cls-16" d="M32.51,98.56s.03.01.04.02c0,0,0,0,0,0-.05-.05-.08-.04-.04-.02Z"/>
                <path class="cls-16" d="M83.92,106.9s-.02,0,.04,0c0,0,0,0,0,0-.01,0-.03,0-.04,0Z"/>
                <path class="cls-16" d="M0,92.96s0,0,0,0c.04-.21,0-.07,0,0Z"/>
                <path class="cls-16" d="M73.77,102.27s0,0,0-.01c.01-.03.04-.11,0,.01Z"/>
              </g>
              <g class="cls-15">
                <g>
                  <path class="cls-16" d="M13.6,121.46c-.08-.07-.17-.13-.26-.19-.13-.11-.26-.22-.4-.31-.32-.25-.67-.46-.99-.69-.32-.23-.64-.44-.96-.66-.65-.44-1.29-.9-1.92-1.35-.3-.21-.6-.43-.89-.66-1.33-1.04-2.58-2.19-3.7-3.46-.29-.33-.57-.67-.85-1.02-1-1.32-1.86-2.72-2.52-4.24-.58-1.41-.99-2.91-1.22-4.42-.14-1.18-.15-2.37-.01-3.55.17-1.14.5-2.24.94-3.31.36-.83.81-1.64,1.24-2.44.23-.43.45-.86.69-1.29.24-.43.47-.86.69-1.3.28-.58.56-1.19.75-1.81-.05.11-.1.23-.14.34.26-.59.44-1.21.58-1.83.14-.64.23-1.29.26-1.94.05-1.22-.1-2.46-.42-3.63-.61-2.27-1.72-4.37-2.49-6.58-.39-1.12-.69-2.27-.87-3.44-.17-1.42-.17-2.86,0-4.28.11-.74.28-1.47.47-2.2.19-.75.44-1.49.73-2.2.15-.33.32-.66.47-1,.42-.87.92-1.71,1.49-2.49.07-.09.13-.18.2-.26.81-1.03,1.74-1.96,2.76-2.77.3-.23.61-.45.92-.65.17-.11.35-.22.52-.33.19-.11.39-.21.57-.34.17-.11.34-.23.51-.33.3-.19.43-.56.29-.89-.14-.33-.49-.5-.84-.41-.22.05-.45.11-.67.17.04,0,.09-.01.13-.02-.1.02-.19.04-.28.07.02,0,.05-.02.07-.03-.02,0-.05.02-.07.03-.04.01-.07.03-.11.05-2.5,1.04-4.75,2.65-6.52,4.71-.56.65-1.08,1.34-1.55,2.06.08-.1.15-.2.23-.3-.18.23-.33.45-.47.7-.09.16-.18.32-.26.48-.18.33-.34.67-.49,1.02-.36.82-.7,1.65-.92,2.52-.42,1.61-.63,3.29-.62,4.96,0,.91.1,1.8.22,2.7.11.77.27,1.52.48,2.27.45,1.57,1.12,3.07,1.74,4.58.66,1.6,1.25,3.24,1.52,4.96.1.86.11,1.73.01,2.59-.15.95-.42,1.86-.79,2.75-.17.39-.35.78-.52,1.17l.13-.31c-.57,1.11-1.17,2.21-1.69,3.34-.55,1.17-1.06,2.35-1.38,3.61-.3,1.2-.45,2.45-.45,3.68,0,1.24.15,2.48.38,3.69.24,1.24.69,2.44,1.18,3.59.44,1.04.96,2.04,1.58,2.98,1.3,2.01,2.95,3.8,4.77,5.35,1.82,1.55,3.79,2.97,5.96,3.99.29.14.59.3.89.41.16.07.33.13.5.19.11.04.23.09.35.12.23.08.48.1.71.03.28-.08.57-.29.71-.55.28-.53.17-1.25-.36-1.59Z"/>
                  <path class="cls-16" d="M104.91,106.89s-.03.08-.05.11c-.02.04-.03.08-.05.12.03-.08.06-.15.1-.23Z"/>
                  <path class="cls-16" d="M82.54,107.73c-.02.1-.03.19-.04.29.01-.1.03-.19.04-.29Z"/>
                  <path class="cls-16" d="M82.54,107.73s0,0,0,0c0-.01,0-.03,0-.04,0,.01,0,.03,0,.04Z"/>
                  <path class="cls-16" d="M94.87,108.79c.12-.22.22-.46.3-.69.12-.35.16-.74.16-1.11,0-.78-.23-1.53-.58-2.21-.18-.35-.41-.65-.65-.95-.17-.21-.36-.4-.56-.57-.3-.24-.6-.48-.94-.67-.33-.19-.69-.34-1.05-.48-1.22-.46-2.61-.47-3.87-.17-1.25.3-2.45,1-3.32,1.95-.96,1.05-1.6,2.43-1.82,3.84-.06.44-.11.89-.11,1.34,0,.45.05.89.12,1.34.12.8.37,1.56.71,2.29.68,1.43,1.8,2.65,3.13,3.5.34.22.69.41,1.06.58.42.19.85.34,1.3.47.36.1.8-.12.89-.5.09-.42-.13-.74-.5-.89-.03-.01-.07-.03-.1-.04,0,0-.02,0-.03-.02-.09-.04-.17-.09-.26-.13-.17-.08-.33-.16-.49-.26-.3-.17-.59-.36-.86-.57-.48-.39-.92-.82-1.3-1.31-.34-.46-.63-.95-.86-1.47-.19-.48-.33-.98-.41-1.49-.05-.48-.04-.96,0-1.43.09-.55.23-1.09.43-1.6.19-.42.42-.82.69-1.2.25-.31.53-.59.84-.85.26-.18.53-.34.82-.48.34-.13.68-.22,1.04-.28.37-.04.74-.03,1.11,0,.33.06.66.14.98.26.25.12.49.26.72.42.15.13.3.27.43.42.11.16.21.34.3.51.05.15.1.3.13.46,0,.09,0,.19,0,.28-.02.07-.03.13-.05.2-.03.06-.06.12-.08.18-.06.14-.09.27-.14.42-.02.13-.03.26-.05.38.02.13.03.26.05.38.08.3.27.56.52.75.21.16.42.25.68.28.3.04.66,0,.92-.17.29-.21.56-.4.75-.72ZM89.89,104.75s0,0,0,0c.03,0,.05,0,.08.01-.03,0-.05,0-.08-.01Z"/>
                  <path class="cls-16" d="M43,104.21c-1.05.03-2.11.23-3.09.61-.53.21-1.05.45-1.54.75-.49.31-.96.66-1.4,1.05-1.62,1.45-2.71,3.48-3.09,5.62-.19,1.08-.22,2.19-.08,3.28.07.56.18,1.11.35,1.65.09.29.18.58.3.85.1.22.23.44.33.66.1.22.22.44.34.66.14.25.5.36.75.2.27-.17.33-.47.2-.75-.02-.05-.05-.1-.07-.15-.01-.03-.09-.19-.02-.05-.05-.1-.08-.2-.12-.3-.08-.2-.12-.41-.16-.62-.04-.21-.09-.42-.13-.64-.02-.1-.03-.21-.05-.31,0,0,0-.01,0-.02,0-.05-.01-.11-.02-.16-.08-.83-.07-1.67.03-2.5.16-.96.41-1.9.77-2.81.28-.62.62-1.22,1.02-1.77.39-.49.84-.94,1.33-1.33.53-.39,1.09-.72,1.69-.98.58-.23,1.19-.4,1.81-.5.6-.07,1.2-.07,1.79,0,.5.08,1.01.2,1.48.39.28.13.54.28.79.46.17.14.32.29.46.46.12.18.23.36.33.56.08.21.14.42.18.64.01.18.01.35,0,.53-.02.11-.05.23-.09.34-.04.09-.09.17-.14.25-.08.1-.17.19-.27.27-.1.07-.2.12-.3.17.07-.03.13-.06.2-.09h0c-.07.03-.14.06-.2.09-.06.02-.12.04-.18.06-.07,0-.14,0-.2-.01.03,0,.06,0,.09.01-.2-.02-.4,0-.58.11-.17.11-.29.25-.37.43-.08.18-.11.4-.05.59.08.24.22.4.42.54.52.38,1.28.5,1.89.29.29-.1.57-.23.81-.42.34-.26.6-.55.83-.91.36-.58.53-1.28.54-1.95.01-.72-.18-1.4-.46-2.06-1.01-2.32-3.75-3.24-6.11-3.18ZM46.58,110.62h0s.04-.02.06-.03c-.02,0-.04.02-.06.03Z"/>
                  <path class="cls-16" d="M112.43,73.22c-.06.38-.16.75-.3,1.1-.55,1.18-1.54,2.19-1.52,3.57,0,.75.31,1.46.82,2,.47.49,1.06.8,1.68,1.05.58.23,1.2.34,1.82.41.61.07,1.24.06,1.85.01,1.38-.11,2.72-.44,4-.98,1.27-.54,2.43-1.25,3.48-2.14,1.02-.86,1.9-1.92,2.6-3.05,1.42-2.29,2.12-5.02,2.11-7.71,0-1.47-.22-2.95-.59-4.37-.37-1.44-.91-2.82-1.64-4.12-.17-.3-.36-.59-.53-.89-.24-.44-.87-.61-1.29-.34-.44.28-.59.83-.34,1.29,0,.01.01.03.02.04.11.26.23.52.35.78.02.05.04.09.06.14.19.46.36.92.53,1.39.16.46.34.92.48,1.39.28.89.49,1.81.62,2.73.15,1.23.17,2.48.02,3.72-.16,1.1-.45,2.17-.87,3.2-.4.92-.9,1.79-1.5,2.59-.56.71-1.2,1.35-1.91,1.92-.77.58-1.6,1.06-2.48,1.45-.88.36-1.81.61-2.75.75-.76.09-1.55.11-2.31.03-.38-.06-.76-.16-1.12-.3-.21-.1-.41-.21-.6-.34-.1-.09-.19-.18-.27-.27-.04-.06-.08-.12-.11-.19-.02-.07-.04-.13-.05-.2,0-.08,0-.16,0-.24.03-.18.09-.35.15-.52.22-.47.5-.9.74-1.35.29-.55.53-1.13.64-1.74.23-1.24.1-2.46-.09-3.69-.09-.6-.2-1.2-.29-1.8-.1-.77-.14-1.54-.05-2.31.07-.43.18-.84.34-1.24.09-.21.2-.41.32-.61.06-.11.13-.21.2-.31.04-.06.08-.11.12-.17.02-.02.03-.04.05-.07,0,0-.01.02-.02.02.17-.21.36-.42.56-.61.09-.09.18-.17.28-.25.05-.05.11-.09.16-.13.02-.01.04-.03.05-.04,0,0,.01,0,.02-.01.23-.17.46-.32.71-.46.12-.07.25-.13.38-.19.06-.03.12-.05.18-.08,0,0-.01,0-.02,0,0,0,0,0,.01,0,.04-.02.08-.03.13-.05.28-.1.56-.19.85-.26.14-.03.28-.06.42-.09.06-.01.12-.02.19-.03.01,0,.02,0,.03,0,.05,0,.11-.01.16-.02.08,0,.15-.01.23-.02.04,0,.08,0,.11,0,.05,0,.1,0,.15-.02,0,0,0,0,.01,0,.16-.01.32-.03.48-.03.15,0,.34-.01.47,0,.14.01.33.06.48.1.2.05.41-.06.46-.26.05-.2-.07-.41-.26-.47-.25-.07-.5-.11-.75-.18-.25-.06-.5-.11-.75-.15-.06,0-.11-.01-.17-.02-.04,0-.1-.02-.1-.02-.07,0-.14,0-.21,0-.13,0-.26,0-.39,0-.29.01-.58.04-.88.08-1.03.15-2.04.52-2.91,1.11-.86.58-1.58,1.36-2.09,2.27-.52.95-.78,1.99-.81,3.07-.03,1.16.17,2.32.33,3.46.12.89.2,1.78.1,2.67Z"/>
                  <path class="cls-16" d="M114.8,63.85s0,0,0,0c-.03.04-.11.15,0,0Z"/>
                  <path class="cls-16" d="M117.12,62.08s-.1.05,0,0h0Z"/>
                  <path class="cls-16" d="M141.53,83.43c-.03-.44-.16-.85-.48-1.17-.29-.29-.75-.5-1.16-.48-.43.02-.87.16-1.16.48-.28.31-.51.73-.48,1.17,0,.14.02.27.03.41,0,.18,0,.36.02.53.03.44.02.88-.03,1.32-.07.42-.17.82-.32,1.22-.24.51-.55.99-.89,1.44-.51.65-1.1,1.24-1.75,1.75-.78.59-1.63,1.07-2.52,1.46-1.1.45-2.25.77-3.42.94-1.56.19-3.13.18-4.68-.02-.72-.1-1.42-.24-2.12-.42.64-.66,1.29-1.3,1.96-1.93,1.62-1.51,3.26-3.01,4.76-4.65,1.55-1.7,2.94-3.56,4.03-5.59,1.08-2.02,1.91-4.19,2.36-6.44.42-2.12.55-4.3.28-6.44-.13-1.09-.33-2.16-.62-3.22-.3-1.06-.69-2.09-1.16-3.09-.89-1.92-2.12-3.69-3.6-5.2-1.44-1.47-3.14-2.72-5.01-3.58-.92-.42-1.87-.78-2.85-1.05-.99-.27-1.99-.44-3.01-.57-.93-.11-1.87-.17-2.81-.18-.97-.01-1.94.04-2.91.13-.24.02-.47.05-.71.07-.29.03-.6.05-.88.11-.29.04-.58.09-.86.15-.26.05-.54.08-.79.17-.26.04-.51.08-.77.13-.13.02-.27.05-.4.07-.14.02-.29.04-.42.08.02,0,.05,0,.07,0-.22.03-.41.08-.58.25-.15.15-.26.39-.25.6,0,.22.08.45.25.6.15.14.38.28.6.25.56-.07,1.14-.07,1.71-.13.15.01.3,0,.44,0,.15,0,.3,0,.44,0,.3,0,.59,0,.89-.02.59-.04,1.17-.06,1.76-.08,1.15-.03,2.31-.04,3.46.03.57.03,1.14.08,1.71.15,1.5.21,2.98.58,4.38,1.16,1.13.5,2.21,1.12,3.19,1.87,1.07.84,2.03,1.82,2.88,2.89.88,1.16,1.61,2.42,2.19,3.76.6,1.47,1.02,3,1.24,4.57.2,1.6.2,3.22,0,4.83-.25,1.73-.73,3.42-1.4,5.04-.63,1.47-1.41,2.87-2.32,4.19-.24.35-.49.69-.74,1.02-1.24,1.58-2.64,3.02-4.1,4.41-1.47,1.4-2.99,2.74-4.38,4.22-.2.21-.4.43-.59.64-.22-.08-.44-.17-.66-.26-1.75-.75-3.41-1.69-4.97-2.77-.4-.28-.79-.57-1.18-.86-1.48-1.15-2.85-2.45-4.07-3.86-.33-.38-.64-.76-.95-1.15-.94-1.24-1.79-2.55-2.51-3.94-.22-.42-.43-.86-.62-1.3-1.15-2.77-1.68-5.72-2.29-8.64-.31-1.49-.65-2.97-1.12-4.42-.4-1.22-.99-2.37-1.77-3.39,0-.01-.13-.15-.15-.2.09.11.07.09-.05-.06-.02-.02-.04-.04-.06-.06-.05-.06-.11-.12-.16-.18-.12-.13-.24-.25-.37-.37-.28-.26-.57-.51-.87-.74-.03-.02-.07-.05-.1-.07.06.04.03.02-.06-.05-.11-.05-.14-.06-.08-.03-.07-.04-.15-.07-.22-.11-.17-.08-.34-.16-.5-.26-.33-.19-.66-.38-1-.55-.24-.12-.45.24-.21.36.45.23.89.5,1.21.9.03.03.05.06.08.11.02.02.03.04.05.06,0,.01.05.05.05.04.03.06.04.1.1.16.02.02.04.04.06.06.05.05.09.1.14.15.08.09.15.18.22.27.02.02.04.04.05.07,0,0,0,0,0,0,.04.05.08.11.12.16.28.39.53.81.76,1.22.12.21.23.42.33.64.05.1.1.2.14.31.02.05.11.26.01.02.02.06.05.12.07.18.38.94.65,1.92.88,2.91.27,1.14.49,2.28.69,3.43.41,2.3.76,4.62,1.43,6.86.66,2.18,1.69,4.23,2.95,6.13,1.19,1.8,2.59,3.49,4.15,4.99,1.61,1.55,3.39,2.92,5.3,4.07,1.18.72,2.42,1.35,3.71,1.88-.6.77-1.16,1.56-1.66,2.39-.44.71-.84,1.46-1.18,2.24-.31.1-.62.2-.93.3-1.98.68-3.85,1.61-5.76,2.46-.2.09-.4.17-.59.26-.71.29-1.43.56-2.16.77.04-.43.06-.85.07-1.28.02-1.28-.12-2.56-.4-3.81-.25-1.13-.65-2.23-1.13-3.29-.93-2.06-2.27-3.96-3.83-5.59-1.57-1.64-3.42-3.04-5.45-4.05-1.16-.57-2.37-1.05-3.6-1.41-1.24-.36-2.51-.6-3.79-.76-2.48-.32-4.98-.24-7.45.1-.89.12-1.77.29-2.64.51-.8-.87-1.66-1.68-2.58-2.42-.28-.23-.57-.46-.87-.68-.32-.27-.69-.52-1.03-.76-.33-.23-.66-.45-.99-.67-.68-.44-1.39-.84-2.11-1.22-1.52-.8-3.13-1.43-4.76-1.96-.77-.25-1.54-.48-2.32-.66-.79-.18-1.59-.34-2.39-.48-.34-.06-.69-.11-1.04-.16.07-.17.13-.34.2-.5.58-1.34,1.28-2.63,2.1-3.83.21-.31.43-.61.66-.91.97-1.24,2.07-2.38,3.28-3.38.15-.12.3-.25.46-.37.04-.03.07-.05.11-.08.08-.06.17-.13.26-.19.31-.22.62-.44.95-.65.65-.42,1.32-.79,2.02-1.12.09-.04.19-.09.28-.13.05-.02.1-.05.16-.07.02,0,.04-.02.05-.02.04-.02.02,0-.05.02.05-.02.1-.04.14-.06.09-.04.18-.09.27-.13.05-.02.09-.04.14-.06.02,0,.03-.01.05-.02,0,0,0,0,.01,0,.2-.05.4-.13.6-.19.21-.06.41-.12.62-.17.27-.07.47-.39.38-.67-.09-.29-.37-.45-.67-.38-.62.15-1.22.34-1.83.52-.64.19-1.27.47-1.87.75-1.17.55-2.27,1.22-3.3,2-.57.43-1.13.89-1.65,1.38-.49.47-.96.97-1.4,1.48-.95,1.1-1.8,2.3-2.52,3.56-.56.97-1.04,1.98-1.46,3.02-.72-.05-1.45-.08-2.17-.09-.11,0-.22,0-.32,0-1.44-.04-2.89.04-4.33.17-.21.02-.41.04-.62.06-.11.01-.22.02-.32.03-.17.02-.36.02-.53.06-1.09.11-2.17.25-3.24.44-1.04.18-2.07.41-3.1.68-.96.26-1.91.56-2.84.94-.94.38-1.85.8-2.71,1.34-.78.49-1.53,1.06-2.17,1.72-.6.62-1.13,1.34-1.49,2.13-.41.9-.65,1.83-.7,2.82-.04.71.04,1.43.19,2.13-1.75.23-3.49.6-5.15,1.23-2.09.8-4.06,1.97-5.57,3.65-.41.46-.79.95-1.13,1.46-.33.51-.58,1.04-.81,1.59-.42.99-.62,2.05-.73,3.11-.21,2.05.07,4.13.18,6.18.02.41.07.84.04,1.26-.23,1.29-.94,2.6-.3,3.89.07.13.15.25.24.37.15.2.3.39.47.56.28.27.61.52.95.71.73.41,1.51.6,2.34.7.74.09,1.48.04,2.22-.07.65-.09,1.29-.24,1.92-.44,1.43-.45,2.81-1.11,4.08-1.91,1.27-.8,2.47-1.75,3.49-2.86,1.14-1.24,2.01-2.67,2.65-4.22.57-1.38.85-2.88.81-4.37-.04-1.38-.33-2.76-.75-4.07-.41-1.26-.92-2.49-1.39-3.72-.12-.3-.23-.61-.34-.91,1.3-.07,2.61-.08,3.91,0,.62.03,1.25.09,1.87.17,1.61.23,3.18.62,4.69,1.23,1.15.5,2.25,1.13,3.25,1.89.77.62,1.48,1.31,2.1,2.09.54.72.99,1.5,1.35,2.33.29.71.5,1.46.62,2.22.05.46.07.93.04,1.39.02-.13.03-.26.05-.38-.03.21-.05.42-.07.62-.07.4-.17.79-.31,1.17-.16.34-.35.67-.57.97-.23.27-.48.53-.75.76-.14.09-.28.18-.43.25-.14.05-.29.09-.44.12-.11,0-.22,0-.32,0-.07-.02-.15-.04-.22-.06-.05-.03-.1-.06-.15-.09-.05-.04-.09-.09-.14-.14-.04-.06-.07-.11-.1-.17-.02-.05-.03-.1-.04-.15,0-.02,0-.05,0-.07,0,0,0,0,0,0,.07-.14.11-.29.11-.45.05-.2.04-.41-.03-.61-.1-.36-.37-.74-.71-.92-.36-.19-.79-.28-1.19-.16-.36.12-.76.35-.92.71-.1.23-.23.49-.28.74-.05.25-.09.51-.09.76,0,.27.04.54.1.8.03.14.07.27.12.39.1.24.19.49.33.71.14.22.3.43.47.62.09.11.19.2.3.29.15.12.3.25.46.35.09.06.19.11.3.15.62.28,1.3.44,1.98.38.74-.07,1.42-.26,2.07-.63.52-.3.98-.7,1.38-1.14.36-.4.7-.84.97-1.31.27-.46.48-.97.64-1.48.16-.51.24-1.03.3-1.56.1-.95,0-1.92-.19-2.85-.4-1.91-1.33-3.66-2.52-5.19-.61-.78-1.32-1.48-2.09-2.1-.89-.71-1.82-1.34-2.84-1.86-2.03-1.04-4.24-1.7-6.5-2.01-1.3-.18-2.61-.28-3.92-.29-1.13,0-2.27.04-3.4.13-.03-.13-.06-.25-.09-.38-.03-.16-.06-.32-.09-.48-.05-.49-.06-.98,0-1.46.07-.41.18-.82.33-1.21.19-.41.42-.81.69-1.17.4-.49.85-.93,1.35-1.33.72-.54,1.5-.99,2.3-1.38.21-.1.41-.19.62-.28.83-.34,1.68-.64,2.54-.88.95-.27,1.92-.49,2.9-.66.51-.09,1.02-.17,1.54-.24.94-.12,1.88-.21,2.82-.25.97-.05,1.95-.06,2.92-.04.48,0,.96.03,1.44.04.17.02.36.02.53.03.13,0,.25.02.38.03.25.02.51.04.76.06.03,0,.06,0,.09,0-.27.96-.49,1.94-.65,2.93-.51,3.16-.51,6.35.05,9.51.27,1.55.71,3.06,1.27,4.53.61,1.61,1.33,3.18,2.02,4.76.14.32.28.65.42.97.67,1.6,1.27,3.24,1.65,4.94.1.45.18.89.25,1.34.14,1.11.16,2.22.03,3.33-.13.84-.34,1.67-.66,2.46-.23.51-.5.99-.82,1.44-.25.32-.54.61-.85.86-.14.1-.29.19-.45.26-.16.06-.33.11-.5.14-.12,0-.24,0-.36,0-.08-.02-.15-.04-.23-.06-.05-.02-.09-.05-.14-.08-.06-.05-.11-.11-.16-.16-.04-.05-.07-.11-.1-.17-.04-.09-.09-.17-.16-.25-.09-.13-.2-.24-.34-.32-.26-.15-.65-.22-.94-.12-.3.1-.58.28-.73.56-.14.27-.25.65-.12.94.21.5.41.98.83,1.34.39.33.82.58,1.31.72.4.11.84.15,1.26.1.26-.03.52-.06.78-.13.26-.07.5-.18.75-.28.41-.18.77-.45,1.11-.73.3-.25.57-.53.81-.83.31-.38.6-.78.85-1.21.26-.45.46-.92.65-1.4.32-.8.53-1.65.65-2.51.14-1.01.2-2.01.13-3.03-.15-2.13-.69-4.21-1.44-6.21-.76-1.99-1.69-3.91-2.55-5.86-.08-.17-.15-.35-.23-.53-.74-1.78-1.36-3.61-1.74-5.5-.09-.46-.17-.93-.24-1.4-.24-1.82-.29-3.67-.15-5.51.04-.49.09-.98.15-1.47.15-1.05.36-2.1.63-3.13.44.08.88.16,1.31.26.78.18,1.56.38,2.34.6.77.22,1.55.44,2.31.69.82.27,1.63.57,2.43.91.08.04.17.07.25.11.23.1.46.22.69.3,1.51.67,3,1.45,4.36,2.39.31.22.62.44.92.67.53.42,1.05.86,1.54,1.31-.44.17-.88.36-1.32.57-1.01.48-1.98,1.04-2.87,1.72-.95.71-1.83,1.49-2.58,2.42-1.44,1.77-2.5,3.88-2.88,6.15-.1.61-.18,1.22-.19,1.84-.01.61.04,1.21.13,1.82.16,1.18.58,2.26,1.09,3.33.23.48.46.95.67,1.43.16.4.3.82.37,1.25.02.22.02.43,0,.65-.07.35-.2.69-.33,1.03-.18.47-.31.94-.33,1.45-.02,1.01.58,2,1.49,2.43.74.35,1.56.49,2.37.43.76-.06,1.54-.2,2.27-.41,1.39-.39,2.73-1.04,3.91-1.87,1.2-.84,2.28-1.84,3.18-3,.49-.62.94-1.26,1.33-1.95.39-.68.72-1.39,1.01-2.12.56-1.41.87-2.9.97-4.4.11-1.57-.06-3.16-.44-4.69-.38-1.51-.98-2.98-1.73-4.34-.46-.84-.99-1.66-1.57-2.44.11-.02.23-.05.34-.07.4-.07.8-.14,1.2-.19,1.79-.23,3.59-.3,5.39-.17.48.03.96.08,1.44.14,1.79.26,3.55.71,5.23,1.4,1.42.61,2.76,1.39,3.99,2.32,1.25.99,2.39,2.13,3.37,3.38.89,1.18,1.65,2.45,2.24,3.81.48,1.18.82,2.41,1,3.67.02.2.04.4.07.6.1.99.1,1.99.02,2.99-.87.11-1.75.13-2.62.03-.52-.08-1.03-.21-1.52-.41-.36-.16-.69-.35-1.01-.58-.28-.23-.54-.49-.77-.77-.18-.25-.34-.52-.47-.8-.09-.24-.16-.48-.2-.73-.02-.23-.02-.45,0-.68.03-.16.07-.32.13-.47.08-.16.16-.31.26-.45.14-.17.31-.33.48-.48.2-.14.41-.24.61-.38-.02.02-.04.03-.06.05.06-.03.12-.06.18-.08.21-.08.43-.14.66-.18.1,0,.2-.01.3-.02h0c.1,0,.19,0,.28.02.13.02.26.06.38.1.02,0,.05.02.07.03,0,0,0,0,0,0,.08.04.16.08.23.13.32.2.81.08.99-.26.09-.17.13-.37.07-.56-.06-.19-.17-.31-.33-.43-.45-.33-.97-.5-1.52-.58-.2-.06-.44-.04-.65-.03-.22.01-.44.04-.66.08-.39.07-.76.21-1.11.38-.7.35-1.31.9-1.73,1.56-.96,1.52-.6,3.54.42,4.93.56.76,1.25,1.41,2.08,1.87.93.51,1.94.78,2.99.92.71.09,1.42.1,2.13.05-.23.95-.53,1.88-.9,2.78-.54,1.26-1.22,2.45-2.05,3.54-.37.47-.76.92-1.19,1.34-.21.21-.43.41-.66.6-.05.05-.11.09-.17.14-.02.02-.05.04-.07.06-.02.01-.04.03-.05.04-.03.02-.05.04-.08.06-.09.06-.17.12-.24.19-.23.17-.47.32-.72.47-.11.07-.23.13-.34.19-.06.03-.12.06-.18.09-.02,0-.04.02-.05.02,0,0,0,0-.01,0-.11.04-.21.08-.32.11-.06.02-.12.03-.19.05-.02,0-.05,0-.07.01-.08,0-.16.01-.24.02-.01,0-.12,0-.14,0-.03,0-.2-.03-.09,0,.11.03-.05,0-.07-.01-.03,0-.3-.07-.29-.09.08.04.09.04.03.01-.02-.01-.05-.02-.07-.03-.05-.02-.09-.05-.13-.08-.04-.02-.14-.13-.04-.02-.03-.03-.06-.05-.09-.07-.04-.03-.07-.07-.11-.11-.01-.01-.02-.03-.03-.04-.03-.04-.05-.08-.07-.12-.01-.02-.02-.04-.03-.07-.01-.02-.01-.03-.01-.03,0-.03-.01-.07-.02-.08,0-.02,0-.04-.01-.06-.03-.26-.22-.52-.52-.5-.28.01-.52.23-.52.52,0,.56.28,1.1.72,1.45.25.2.51.35.81.45.1.04.21.06.32.08.11.02.22.03.33.04.02,0,.05,0,.06,0,.06,0,.11.01.18,0,.68-.05,1.3-.25,1.92-.53.18-.08.36-.18.54-.27.08-.04.16-.09.23-.13.02-.01.05-.03.07-.04,0,0,0,0,0,0,.08-.03.14-.07.2-.12.72-.51,1.4-1.06,2.02-1.69.69-.7,1.3-1.48,1.85-2.29.64-.95,1.19-1.96,1.63-3.01.43-1.03.79-2.09,1.03-3.18.5-.11.99-.24,1.47-.39,1.85-.59,3.59-1.45,5.36-2.22.15-.07.3-.13.46-.2.53-.22,1.07-.43,1.62-.62-.02.1-.04.19-.06.29-.38,2-.31,4.06.31,6.01.63,1.97,1.7,3.78,3.2,5.21,1.46,1.39,3.22,2.42,5.1,3.12,1,.37,2.05.62,3.11.77,1.17.16,2.34.23,3.52.14,1.12-.08,2.28-.24,3.35-.6.54-.18,1.09-.41,1.57-.72.55-.36,1-.79,1.38-1.33.33-.47.53-1.03.61-1.59.05-.37.04-.69-.02-1.06-.05-.3-.16-.58-.29-.86-.41-.85-1.25-1.42-2.02-1.91-.29-.18-.58-.36-.85-.56-.16-.13-.3-.27-.43-.42-.08-.12-.16-.25-.22-.38-.1-.27-.16-.55-.21-.84-.11-.93-.1-1.88-.31-2.81-.19-.84-.57-1.67-1.08-2.36-.29-.39-.59-.77-.94-1.11-.35-.34-.75-.65-1.15-.94-.75-.54-1.59-.94-2.46-1.27-1.83-.69-3.83-.82-5.76-.66-.78.07-1.56.17-2.33.32.46-.77.97-1.52,1.51-2.23.2-.26.41-.51.62-.76.09.03.19.06.28.08,2.23.64,4.58.95,6.9.8,2.33-.15,4.64-.67,6.74-1.71,1.97-.97,3.69-2.48,4.85-4.34.3-.48.58-.98.8-1.49-.04.1-.08.2-.13.3.13-.27.28-.53.4-.8.16-.37.32-.74.44-1.12.22-.69.35-1.41.31-2.13ZM35.28,90.16c.51,1.3,1.01,2.61,1.3,3.98.06.28.11.55.15.83.09.77.1,1.55,0,2.32-.12.79-.34,1.56-.64,2.3-.39.88-.87,1.73-1.44,2.5-.69.87-1.49,1.64-2.36,2.32-1.11.84-2.32,1.55-3.59,2.11-.96.39-1.97.7-3,.85-.51.06-1.02.07-1.53.01-.36-.06-.7-.15-1.04-.27-.19-.09-.37-.19-.54-.31-.12-.1-.23-.21-.33-.33-.03-.04-.05-.08-.08-.12,0-.09,0-.17,0-.26.09-.53.26-1.05.38-1.57.08-.33.14-.67.16-1.01.02-.35-.02-.71-.04-1.05-.09-1.44-.24-2.89-.27-4.33-.01-.72.01-1.45.1-2.17.11-.73.29-1.45.57-2.14.27-.59.6-1.15.98-1.67.51-.64,1.1-1.22,1.75-1.74.87-.65,1.82-1.19,2.81-1.62,1.61-.66,3.32-1.05,5.05-1.29.18-.02.37-.05.55-.07.32.92.69,1.82,1.04,2.73ZM77.76,85.46c.9,1.19,1.67,2.48,2.26,3.86.48,1.17.82,2.38,1.01,3.63.13,1.08.14,2.17,0,3.24-.16,1.08-.45,2.14-.87,3.16-.45,1.04-1.03,2.03-1.71,2.93-.67.85-1.43,1.61-2.28,2.28-.77.58-1.61,1.08-2.5,1.47-.82.33-1.68.57-2.55.7-.33.04-.66.05-.99.02-.15-.03-.3-.07-.45-.12-.05-.03-.1-.05-.14-.08-.01-.01-.03-.03-.04-.04,0,0,0-.01-.01-.02,0-.01,0-.03-.01-.04,0-.04,0-.08,0-.12.09-.42.28-.82.42-1.23.19-.54.28-1.13.25-1.71-.07-1.17-.51-2.22-1-3.27-.22-.46-.45-.92-.65-1.39-.26-.64-.44-1.3-.54-1.98-.09-.76-.08-1.53,0-2.3.14-.9.38-1.79.73-2.63.39-.88.87-1.71,1.45-2.48.62-.78,1.34-1.48,2.12-2.1,1.06-.8,2.22-1.46,3.44-1.99.48-.2.97-.38,1.46-.54.21.25.42.5.61.75ZM95.05,113.19s.01.02.03.06c0,0-.02-.03-.03-.06ZM124.19,98.93c.79.12,1.57.34,2.32.64.63.28,1.24.63,1.8,1.04.39.32.75.67,1.07,1.06.25.34.47.71.65,1.1.13.36.23.73.29,1.11.12,1.03.08,2.1.39,3.1.2.63.51,1.2.96,1.68.35.38.78.68,1.21.96.37.24.76.47,1.12.73.14.11.26.24.38.37.04.07.08.13.12.2.02.06.04.13.05.19,0,.08,0,.16,0,.25-.02.11-.05.22-.09.33-.07.13-.14.26-.22.38-.11.13-.23.25-.36.36-.25.18-.52.33-.81.46-.73.28-1.5.45-2.27.56-1.27.16-2.55.16-3.82,0-1.19-.17-2.37-.49-3.48-.94-.96-.42-1.87-.95-2.71-1.58-.69-.55-1.31-1.16-1.86-1.85-.5-.67-.91-1.41-1.25-2.18-.33-.82-.58-1.68-.71-2.56-.1-.84-.1-1.7,0-2.54.11-.77.31-1.52.56-2.26.41-.1.82-.2,1.23-.29.51-.11,1.02-.2,1.53-.27,1.29-.16,2.61-.21,3.91-.06Z"/>
                  <path class="cls-16" d="M72.54,66.09s0-.04,0-.06c0-.06-.02-.12-.02-.17.01.08.02.15.03.23Z"/>
                  <path class="cls-16" d="M72.53,66.03c.05.39.12.78.22,1.16.11.44.26.87.42,1.29.33.91.71,1.81.99,2.74.15.48.26.98.34,1.48.08.77,0,1.53,0,2.3,0,.45.03.92.13,1.37.11.5.35.94.67,1.35.25.32.58.57.92.8.34.23.75.4,1.15.51.47.12.98.16,1.46.12.5-.04,1.01-.12,1.49-.29,1.47-.5,2.79-1.33,3.88-2.43,1.09-1.1,1.91-2.41,2.48-3.84.26-.65.45-1.32.56-2.01.07-.42.15-.87.15-1.3,0-.36-.01-.72-.04-1.08-.02-.18-.04-.36-.06-.55-.24-1.9-.9-3.75-2.07-5.28-.34-.44-.69-.85-1.09-1.23-.22-.21-.6-.24-.82,0-.23.25-.21.57,0,.82.06.07.12.14.17.21.01.01.02.03.03.04.03.03.05.07.08.1.11.14.21.29.31.44.2.32.39.64.56.98.08.16.16.33.23.49.02.04.03.08.05.12.04.09.07.18.1.27.13.35.24.7.34,1.06.1.37.17.75.23,1.13.1.81.09,1.62-.02,2.44l.04-.27c-.02.16-.04.32-.06.48-.11.77-.32,1.53-.61,2.25-.31.71-.71,1.38-1.17,2-.47.59-1.01,1.13-1.6,1.6-.62.47-1.28.87-2,1.19-.47.19-.97.36-1.47.44-.26.03-.52.03-.78,0-.17-.03-.34-.08-.5-.14-.09-.05-.18-.1-.27-.16-.09-.08-.18-.17-.27-.26-.06-.09-.12-.18-.16-.28-.06-.17-.11-.34-.14-.52-.05-.66.04-1.32.06-1.98.02-.75-.08-1.51-.27-2.23-.36-1.35-.99-2.61-1.46-3.91-.21-.58-.39-1.18-.48-1.79-.06-.52-.07-1.05-.02-1.58.05-.35.14-.69.27-1.02.09-.21.2-.41.31-.61.07-.12.14-.22.22-.33-.15.23-.01.02.04-.04.04-.05.23-.22.03-.07.15-.12.27-.23.33-.43.05-.17.03-.4-.07-.55-.1-.15-.25-.29-.43-.33-.17-.04-.4-.04-.55.07-.17.13-.35.24-.52.37-.12.1-.24.21-.34.32-.15.16-.29.33-.39.52-.11.19-.19.4-.27.6-.27.66-.37,1.4-.38,2.12,0,.44.04.87.1,1.3Z"/>
                  <path class="cls-16" d="M87.23,67.44c0,.07.02.14.03.2,0,.01,0,.03,0,.04-.01-.08-.02-.16-.03-.24Z"/>
                  <path class="cls-16" d="M90.15,78.43c.85.81,2.1,1.24,3.27,1.1.66-.08,1.28-.27,1.86-.61.51-.3.99-.7,1.38-1.14,1.62-1.84,2.23-4.38,2-6.79-.24-2.43-1.16-4.73-2.62-6.68-.73-.97-1.54-1.87-2.41-2.71-.21-.2-.42-.41-.64-.6-.13-.12-.28-.21-.42-.31-.06-.04-.11-.08-.17-.12,0,0-.01,0-.02-.01-.03-.03-.07-.06-.1-.08-.45-.37-.9-.73-1.34-1.11-.22-.19-.44-.38-.66-.57-.19-.16-.48-.2-.66,0-.16.17-.2.49,0,.66.52.45,1.05.9,1.53,1.4.11.11.21.22.32.33.06.07.13.13.19.2.02.02.04.05.06.07.02.02.14.18.05.06.13.16.25.33.39.48.12.12.23.25.35.37.23.25.45.51.67.76.11.13.22.26.32.39.05.06.1.12.14.18.03.04.06.07.09.11,0,0,0,0,0,0,0,0,0,0,0,0,.41.54.8,1.1,1.15,1.69.37.62.71,1.26,1,1.93.37.91.64,1.86.78,2.84.1.82.11,1.65.01,2.47-.1.65-.27,1.3-.51,1.91-.2.45-.44.88-.73,1.27-.24.29-.5.57-.79.81-.21.15-.44.29-.68.4-.19.07-.38.12-.57.16-.18.01-.37.01-.55,0-.18-.03-.36-.08-.53-.15-.13-.07-.26-.14-.39-.23-.09-.08-.18-.17-.26-.26-.06-.08-.11-.17-.15-.26-.03-.09-.05-.18-.07-.27,0-.12,0-.24,0-.36.02-.12.05-.23.09-.34.04-.08.09-.16.14-.24.09-.1.19-.2.29-.29.11-.08.24-.15.36-.22.21-.11.36-.32.45-.53.09-.22.13-.49.06-.72-.15-.47-.56-.81-1.07-.81-.18,0-.37.03-.55.06-.19.03-.37.13-.54.22-.25.14-.5.32-.68.54-.38.47-.66,1-.79,1.59-.13.6-.14,1.21.02,1.81.16.59.5,1.16.95,1.58Z"/>
                  <path class="cls-16" d="M27.3,64.59c.36,1.29.92,2.54,1.67,3.65,1.56,2.32,3.9,4.11,6.53,5.03,1.3.46,2.72.68,4.1.69,1.38,0,2.8-.2,4.08-.72.69-.28,1.34-.6,1.94-1.05.32-.25.64-.5.92-.79.27-.28.52-.6.75-.92.41-.58.71-1.24.92-1.92.2-.66.3-1.39.25-2.08-.06-.8-.25-1.55-.62-2.26-.3-.57-.73-1.09-1.24-1.49-.29-.23-.59-.45-.92-.63-.33-.17-.67-.32-1.02-.42-.36-.11-.75-.17-1.13-.19-.13,0-.25,0-.38,0-.23.01-.49.03-.71.09-.21.05-.42.16-.61.26-.15.08-.31.17-.44.28-.11.08-.2.18-.28.31-.14.23-.19.58-.11.84.09.26.25.52.5.65.23.12.52.2.77.13.05,0,.09,0,.14,0,.12,0,.25.02.37.02.19,0,.38,0,.58,0,.26.05.51.12.75.21.23.11.44.24.65.38.21.18.4.37.58.58.12.17.22.34.31.53.09.23.15.48.2.72.03.3.03.59,0,.89-.06.35-.16.7-.29,1.04-.16.34-.34.66-.56.96-.26.32-.56.61-.88.87-.43.31-.89.57-1.37.79-.69.28-1.41.46-2.14.57-.92.11-1.85.1-2.78,0-1.07-.16-2.12-.45-3.12-.86-.82-.36-1.6-.8-2.32-1.33-.7-.56-1.34-1.2-1.9-1.9-.29-.38-.55-.78-.8-1.19-.13-.22-.25-.44-.36-.67-.06-.11-.11-.22-.16-.33-.03-.06-.05-.12-.08-.18-.01-.03-.02-.05-.03-.08,0,0,0,0,0,0-.02-.04-.05-.11-.05-.13-.02-.05-.04-.11-.06-.16-.05-.12-.09-.24-.13-.37-.09-.25-.16-.5-.23-.75-.13-.48-.23-.98-.33-1.47-.03-.14-.05-.28-.07-.42,0-.03,0-.06-.01-.08,0,0,0,0,0,0,0,0,0-.04-.01-.07,0,0,0-.01,0,0,0-.05,0-.12,0-.14-.02-.29-.02-.58-.02-.86,0-.31-.28-.61-.59-.59-.34.02-.57.26-.59.59-.04.64-.04,1.3-.01,1.94.04.69.18,1.39.37,2.06Z"/>
                  <path class="cls-16" d="M28.14,61.61s0,.04,0,.06c0,0,0,0,0,0,0-.04-.01-.07-.01-.08h0s0,.01,0,.02Z"/>
                </g>
                <path class="cls-18" d="M70.04,94.65c.37,3,2.31,5.33,1.96,6.32-.04.11-.08.22-.11.33-.1.16-.21.32-.29.5-.2.42-.03.73.27.9.1.1.25.16.46.14.11.01.23.01.33,0,1.12-.15,2.27-.99,3.13-1.7,1.67-1.37,2.95-3.27,3.44-5.4.52-2.27.02-4.69-1.26-6.6-.53-.79-1.18-1.46-1.91-2.03,0,0-6.7,2.07-6.03,7.54Z"/>
              </g>
            </g>
            <text class="cls-4" transform="translate(28.91 170.1)"><tspan class="cls-10" x="0" y="0">B</tspan><tspan class="cls-14" x="26.82" y="0">Y SHR</tspan><tspan class="cls-12" x="160.44" y="0">E</tspan><tspan class="cls-6" x="186.77" y="0">Y</tspan><tspan class="cls-13" x="212.96" y="0">A</tspan><tspan class="cls-14" x="242.12" y="0">S</tspan></text>
          </g>
        </g>
      </g>
    </g>
  </g>
</svg>