<?xml version="1.0" encoding="UTF-8"?>
<svg xmlns="http://www.w3.org/2000/svg" viewBox="0 0 5113.57 709.69">
  <defs>
    <style>
      .cls-1 {
        isolation: isolate;
      }

      .cls-2 {
        fill: #f9e4c0;
        mix-blend-mode: multiply;
      }
    </style>
  </defs>
  <g class="cls-1">
    <g id="Layer_2" data-name="Layer 2">
      <g id="Layer_1-2" data-name="Layer 1">
        <path class="cls-2" d="M2.64,369.46s-6.28-150.93,269.37-49.33c300.22,110.66,420.26,73.38,513.65,20.01,93.39-53.37,346.88-231.25,722.67-2.22,375.79,229.03,496.18,95.67,649.29-2.22,43.9-28.07,195.68-84.5,351.33,13.34,155.65,97.84,242.37-17.79,266.83-40.02s231.25-366.89,704.88-28.91c389.77,278.14,606.36-50.59,670.84-175.72,28.7-55.69,85.75-82.75,146.87-96.47,408.42-91.68,759.51,641.22,815.2,700L0,709.69l2.64-340.23Z"/>
      </g>
    </g>
  </g>
</svg>