<?xml version="1.0" encoding="utf-8"?>
<!-- Generator: Adobe Illustrator 30.1.0, SVG Export Plug-In . SVG Version: 9.03 Build 0)  -->
<svg version="1.1" id="Layer_1" xmlns="http://www.w3.org/2000/svg" xmlns:xlink="http://www.w3.org/1999/xlink" x="0px" y="0px"
	 viewBox="0 0 37.2 54.1" style="enable-background:new 0 0 37.2 54.1;" xml:space="preserve">
<style type="text/css">
	.st0{fill:#95AA3F;}
	.st1{fill:#F4D30F;}
</style>
<g>
	<g>
		<g>
			<g>
				<g>
					<path class="st0" d="M32.3,22.1c-0.8-1.1-4.7-6.1-4.9-6.3c-0.2,0-4.8,1.1-7.3,2.1c-1.7,0.6-3.2,1.4-4.7,2.3c-1.6,1-3,2-4.2,3.3
						c-2.4,2.4-4.1,5.2-4.7,8.3c-0.2,0.8-0.3,1.7-0.3,2.5c0,0.8,0.1,1.6,0.2,2.5c0.3,1.6,0.9,3,1.8,4.5c0.4,0.6,0.8,1.3,1.1,1.9
						c0.3,0.5,0.5,1.1,0.6,1.7c0,0.3,0,0.6,0,0.9c-0.1,0.5-0.3,0.9-0.5,1.4c-0.3,0.6-0.5,1.3-0.5,2c0,1.4,0.9,2.7,2.4,3.3
						c1.2,0.5,2.6,0.7,3.9,0.6c1.3-0.1,2.5-0.3,3.7-0.5c2.3-0.5,4.5-1.4,6.4-2.5c2-1.1,3.7-2.5,5.2-4c0.8-0.8,1.5-1.7,2.2-2.6
						c0.6-0.9,1.2-1.9,1.6-2.9c0.9-1.9,1.4-3.9,1.6-5.9c0.2-2.1-0.1-4.3-0.7-6.3C34.5,25.9,33.5,23.9,32.3,22.1z M31.7,35.2
						c-0.3,1.5-0.7,2.9-1.4,4.3c-0.7,1.4-1.7,2.7-2.8,4c-1.1,1.1-2.3,2.2-3.7,3.1c-1.3,0.8-2.6,1.5-4.1,2c-1.3,0.4-2.7,0.8-4.2,0.9
						c-0.5,0-1.1,0.1-1.6,0c-0.2,0-0.5-0.1-0.7-0.2c-0.1,0-0.2-0.1-0.2-0.1c0,0,0,0-0.1-0.1c0,0,0,0,0,0c0,0,0,0,0-0.1
						c0-0.1,0-0.1,0-0.2c0.1-0.6,0.5-1.1,0.7-1.7c0.3-0.7,0.5-1.5,0.4-2.3c-0.1-1.6-0.8-3-1.6-4.4c-0.4-0.6-0.7-1.2-1.1-1.9
						c-0.4-0.9-0.7-1.8-0.9-2.7c-0.1-1-0.1-2.1,0-3.1c0.2-1.2,0.6-2.4,1.2-3.6c0.6-1.2,1.4-2.3,2.4-3.3c1-1.1,2.2-2,3.5-2.8
						c1.7-1.1,3.6-2,5.6-2.7c0.8-0.3,1.6-0.5,2.4-0.7c0.3,0.3,0.7,0.7,1,1c1.5,1.6,2.7,3.4,3.7,5.2c0.8,1.6,1.3,3.2,1.6,4.9
						C31.9,32.3,31.9,33.8,31.7,35.2z"/>
					<path class="st0" d="M5.2,4.2c-0.5,0.4-1,0.9-1.5,1.4c-0.4,0.5-0.8,1-1.2,1.6C2.3,7.6,2.1,8,1.9,8.4c-0.3,0.8-0.5,1.6-0.8,2.4
						c-0.2,1-0.4,2.1-0.3,3.2C1,15.4,1.3,16.7,2,17.9c0.5,1,1.2,1.8,2.1,2.5c0.5,0.4,1,0.8,1.5,1c0.5,0.3,1.1,0.5,1.7,0.7
						c0.6,0.2,1.2,0.3,1.9,0.3c0.2,0,0.4,0,0.6,0c0.4,0,0.8-0.1,1.2-0.2c0.3-0.1,0.7-0.3,1-0.5c0.2-0.1,0.5-0.3,0.7-0.5
						c0.2-0.1,0.3-0.3,0.4-0.5c0.2-0.4,0.3-1,0.1-1.4c-0.2-0.4-0.4-0.9-0.8-1.1C12,18,11.5,17.9,11.1,18c-0.1,0-0.1,0-0.2,0
						c-0.2,0-0.4,0-0.6,0c-0.3,0-0.6,0-0.9,0c-0.4-0.1-0.8-0.2-1.2-0.3c-0.4-0.2-0.7-0.4-1.1-0.6c-0.4-0.3-0.7-0.6-1-1
						c-0.2-0.3-0.4-0.6-0.5-0.9c-0.2-0.4-0.3-0.8-0.4-1.2c-0.1-0.5-0.1-1,0-1.5c0.1-0.6,0.2-1.2,0.4-1.8C5.7,10.1,6,9.5,6.4,9
						c0.4-0.6,0.9-1.1,1.4-1.5c0.7-0.5,1.4-1,2.2-1.4c1.1-0.5,2.3-0.8,3.5-1.1c1.5-0.2,3-0.2,4.5-0.1c1.8,0.2,3.5,0.7,5.1,1.3
						c1.4,0.6,2.7,1.3,3.8,2.2c1.2,0.9,2.2,2,3.2,3.2c0.5,0.6,0.9,1.3,1.4,2c0.2,0.4,0.4,0.7,0.6,1.1c0.1,0.2,0.2,0.4,0.3,0.6
						c0,0.1,0.1,0.2,0.1,0.3c0,0,0,0.1,0.1,0.1c0,0,0,0,0,0c0,0.1,0.1,0.2,0.1,0.2c0,0.1,0.1,0.2,0.1,0.3c0.1,0.2,0.2,0.4,0.2,0.6
						c0.2,0.4,0.3,0.8,0.4,1.3c0.2,0.8,0.4,1.7,0.6,2.5c0.1,0.2,0.1,0.5,0.1,0.7c0,0,0,0.1,0,0.1c0,0,0,0,0,0c0,0,0,0.1,0,0.1
						c0,0,0,0,0,0c0,0.1,0,0.2,0,0.2c0,0.5,0.1,1,0.1,1.5c0,0.5,0.5,1,1,1c0.6,0,0.9-0.5,0.9-1c0-1.1,0-2.2-0.1-3.3
						c-0.1-1.2-0.4-2.4-0.7-3.5c-0.6-2.2-1.6-4.3-2.9-6.2C30,6.5,26.1,3.5,21.7,2c-2.2-0.7-4.5-1.1-6.7-1c-2.3,0-4.6,0.4-6.6,1.4
						C7.2,2.9,6.2,3.4,5.2,4.2z"/>
				</g>
				<path class="st1" d="M13.6,34.1c0.6,4,3.7,7.1,3.1,8.4c-0.1,0.1-0.1,0.3-0.2,0.4c-0.2,0.2-0.3,0.4-0.5,0.7
					c-0.3,0.6-0.1,1,0.4,1.2c0.2,0.1,0.4,0.2,0.7,0.2c0.2,0,0.4,0,0.5,0c1.8-0.2,3.7-1.4,5.2-2.3c2.8-1.9,4.9-4.4,5.7-7.2
					c0.9-3,0.1-6.2-2-8.8c-0.9-1-1.9-1.9-3.1-2.7C23.6,23.9,12.6,26.8,13.6,34.1z"/>
			</g>
		</g>
	</g>
</g>
</svg>
