<?xml version="1.0" encoding="UTF-8"?>
<svg id="Layer_2" data-name="Layer 2" xmlns="http://www.w3.org/2000/svg" viewBox="0 0 34.44 34.44">
  <defs>
    <style>
      .cls-1 {
        fill: #3d1412;
      }
    </style>
  </defs>
  <g id="Layer_1-2" data-name="Layer 1">
    <path class="cls-1" d="M12.63,17.8v-5.63l4.59-3.64,4.59,3.64v5.63c0,.32-.26.57-.57.57h-1.72v-2.87c0-.95-.77-1.72-1.72-1.72h-1.15c-.95,0-1.72.77-1.72,1.72v2.87h-1.72c-.32,0-.57-.26-.57-.57M17.23,5.5l6.31,5.1-.73.89s0,0-.01,0h0s-5.2-4.13-5.2-4.13c-.21-.17-.5-.17-.71,0l-5.22,4.13-.73-.89,6.32-5.1ZM20.66,5.74h1.15v1.98l-1.15-.93v-1.06ZM16.07,18.37v-2.87c0-.32.26-.57.57-.57h1.15c.32,0,.57.26.57.57v2.87h-2.3ZM1.15,33.3v-2.3h32.14v2.3H1.15ZM8.04,23.54h3.48c1.54,1.63,3.23,3.1,5.06,4.39.39.27.91.27,1.3,0,1.83-1.29,3.52-2.76,5.06-4.39h3.56l6.8,6.31H1.15s6.89-6.31,6.89-6.31ZM10.49,3.65c1.88-1.61,4.28-2.5,6.76-2.49.53,0,1.06.04,1.59.12,4.26.65,7.66,3.9,8.51,8.13,1.8,9.07-8.9,16.74-10.13,17.58-1.06-.73-10.33-7.35-10.33-15.5,0-3.01,1.31-5.87,3.6-7.84ZM34.07,29.01l-6.8-6.31c-.21-.2-.49-.31-.78-.31h-2.53c2.91-3.4,5.53-8.07,4.51-13.21C27.53,4.48,23.75.87,19.01.14c-3.32-.52-6.7.43-9.25,2.62-2.55,2.18-4.02,5.37-4.02,8.73,0,4.22,2.27,8.02,4.74,10.91h-2.44c-.29,0-.57.11-.78.31L.36,29.01c-.21.2-.34.48-.35.77,0,.02-.01.05-.01.07v3.44c0,.31.11.6.33.82.22.22.51.34.82.33h32.14c.31,0,.6-.11.82-.33.22-.22.34-.51.33-.82v-3.44s0-.05-.01-.07c-.01-.29-.14-.57-.35-.77ZM15.5,19.52h5.74c.95,0,1.72-.77,1.72-1.72v-5.18c.28-.04.54-.18.72-.4l.74-.89c.2-.24.29-.54.26-.84-.03-.3-.18-.58-.42-.78l-1.3-1.05v-2.91c0-.63-.51-1.15-1.15-1.15h-1.15c-.63,0-1.15.51-1.15,1.15v.13l-1.57-1.27c-.43-.34-1.03-.34-1.46,0l-6.31,5.1c-.24.19-.39.47-.42.78-.03.3.06.61.26.84l.74.89c.18.22.44.36.72.4v5.18c0,.95.77,1.72,1.72,1.72h2.3Z"/>
  </g>
</svg>