<?xml version="1.0" encoding="UTF-8"?>
<svg id="Layer_2" data-name="Layer 2" xmlns="http://www.w3.org/2000/svg" viewBox="0 0 31.85 33.42">
  <defs>
    <style>
      .cls-1 {
        fill: #3d1412;
      }
    </style>
  </defs>
  <g id="Layer_1-2" data-name="Layer 1">
    <path class="cls-1" d="M18.32,27.08c-.16.19-.34.39-.52.58-.18.2-.17.51.03.69.2.18.51.17.69-.03.19-.2.37-.41.54-.61.18-.21.15-.51-.06-.69-.21-.18-.52-.15-.69.06ZM20.82,24.09c-.24-.12-.54-.01-.65.23-.11.22-.23.45-.36.67-.13.23-.05.53.18.67.23.13.53.05.67-.18.14-.25.27-.5.39-.74.12-.24.01-.54-.23-.65h0ZM21.83,22.03c.01-.16.02-.32.02-.47,0-.13,0-.27-.01-.4-.02-.27-.25-.47-.52-.45-.27.02-.47.25-.45.52,0,.11.01.22.01.33,0,.13,0,.26-.02.39-.02.27.18.51.45.53.27.02.51-.18.53-.45ZM20.37,17.76c-.18-.21-.49-.23-.69-.05-.21.18-.23.49-.05.69.16.19.31.39.44.59.15.23.45.29.68.14.23-.15.29-.45.14-.68-.15-.23-.33-.46-.52-.68h0ZM18.24,15.95c-.22-.14-.46-.29-.71-.43-.24-.13-.53-.05-.67.19-.13.24-.05.53.19.67.23.13.45.26.66.4.23.15.53.08.68-.15.15-.23.08-.53-.15-.68ZM14.45,13.97c-.24-.13-.53-.05-.67.19-.13.24-.05.53.19.67.23.13.47.26.72.38.24.12.54.03.66-.22.12-.24.03-.54-.22-.66-.24-.12-.47-.24-.69-.37ZM11.69,13.28c.21.18.51.15.69-.06.18-.21.15-.52-.06-.69-.2-.17-.38-.34-.55-.51-.19-.19-.5-.2-.69-.01-.19.19-.2.5-.01.69.19.19.39.39.62.58ZM10.05,8.81c-.27,0-.5.21-.5.48,0,.04,0,.07,0,.1,0,.27.03.54.08.8.06.27.32.43.58.38.26-.06.43-.32.38-.58-.04-.2-.06-.4-.06-.6,0-.03,0-.05,0-.08,0-.27-.21-.5-.48-.5ZM10.68,7.25c.22.16.53.11.68-.11.14-.19.3-.39.47-.58.18-.2.17-.51-.04-.69-.2-.18-.51-.17-.69.04-.2.22-.38.44-.54.66-.16.22-.11.53.11.68h0ZM15.91,29.46c-.18.15-.29.23-.29.23-.22.16-.26.47-.09.69.16.22.47.26.69.09,0,0,.12-.09.32-.26.21-.17.24-.48.07-.69-.17-.21-.48-.24-.69-.07ZM2.93,32.44h-1.9s0,0,0,0h0s-.04-.05-.04-.1c0-.07.03-.09.04-.1,4.57-2.8,10.65-7.03,10.65-11.35,0-1.97-1.25-3.73-3.72-5.24-3.14-1.93-4.11-4.16-1.78-6.99-1.39,2.87.1,5.18,2.8,6.9.2.12.26.16.46.29,7.97,5.08,1.53,11.67-6.49,16.6ZM17.85,33.42h9.54c.82,0,1.56-.49,1.94-1.27,4.44-9.13,3.42-17.36-6.37-20.38-3.15-.97-6.94-2.56-7.1-4.61-.13-1.64,2.05-3.57,6.46-5.73.7-.34.46-1.42-.31-1.42h-3.55c-.61,0-1.21.14-1.77.41-1.37.67-3.17,1.62-4.92,2.76-5.18,2.91-7.84,5.72-7.89,8.37-.03,1.81,1.16,3.47,3.54,4.93,2.16,1.32,3.26,2.81,3.26,4.41,0,4.28-7.66,8.97-10.18,10.51-.91.56-.53,2.02.52,2.02h14.54c.27,0,.49-.22.49-.49s-.22-.49-.49-.49H4.75c8.34-5.48,13.45-12.38,4.94-17.59-5.3-3.25-3.1-6.95,2.05-10.48,1.87-1.28,3.89-2.35,5.38-3.08.43-.21.88-.31,1.34-.31h1.3c-2.59,1.4-6.4,3.89-6.24,6.83.06,1.13.7,2.2,1.9,3.18,1.27,1.03,3.22,2,5.79,2.88,4.47,1.53,6.91,4.06,7.25,7.52.03.27.27.47.54.44.27-.03.47-.27.44-.54-.39-3.88-3.05-6.69-7.91-8.35-4.5-1.54-6.93-3.33-7.03-5.18-.04-.69.23-1.33.62-1.91-1.46,3.56,3.87,5.71,7.55,6.85,3.72,1.15,6.2,3.1,7.37,5.8,1.98,4.56-.15,10.24-1.6,13.22-.21.44-.62.72-1.06.72h-1.58c1.69-2.57,3.22-5.71,3.6-8.75.03-.27-.16-.51-.43-.55-.27-.03-.51.16-.55.43-.19,1.53-.94,4.71-3.81,8.87h-6.77c-.27,0-.49.22-.49.49s.22.49.49.49h0ZM14.25,4.07c-.13-.24-.43-.32-.67-.18,0,0-.14.08-.36.22-.23.15-.29.45-.14.68.15.23.45.29.68.14.19-.12.3-.19.31-.19.23-.13.32-.43.18-.67Z"/>
  </g>
</svg>