<?xml version="1.0" encoding="UTF-8"?>
<svg id="Layer_2" data-name="Layer 2" xmlns="http://www.w3.org/2000/svg" viewBox="0 0 27.03 27.03">
  <defs>
    <style>
      .cls-1 {
        fill: #3d1412;
      }
    </style>
  </defs>
  <g id="Layer_1-2" data-name="Layer 1">
    <path class="cls-1" d="M26.23,23.72c0,.1-.15.05-.23.07H.86s-.06-.03-.06-.07v-1.12s.03-.07.06-.07c1.9,0,13.55,0,15.03,0,.22,0,.4-.18.4-.4s-.18-.4-.4-.4h-7.84v-8.72c0-.22-.18-.4-.4-.4h-1.03V4.31h1v.99s0,0,0,0c-.4.21-.64.62-.64,1.07s.22.68.38,1.01c-.26.36-.41.8-.41,1.26,0,.74.37,1.17.5,1.48.18.34.6.46.93.28l3.06-1.63c.22-.12.36-.35.36-.61,0-.27-.14-.39-.33-.79-.38-.71-1.13-1.17-1.98-1.15-.15-.21-.31-.91-1.07-1.06v-.88h10.2v.88c-.35.07-.66.29-.84.62l-.24.44c-.85-.02-1.6.44-1.98,1.15-.19.39-.33.52-.33.79s.14.49.37.61c3.18,1.66,3.08,1.71,3.38,1.71.25,0,.49-.14.61-.36.14-.3.5-.74.5-1.48,0-.46-.15-.9-.41-1.26.15-.32.38-.57.38-1.01s-.25-.86-.64-1.07c0,0,0,0-.01,0v-.99h1v8.31h-1.08c-.22,0-.4.18-.4.4v8.72h-1.46c-.22,0-.4.18-.4.4s.18.4.4.4h8.69s.07.03.07.07v1.12ZM25.21,26.23H1.82v-1.65h23.39v1.65ZM5.82,5.47l-1.78-1.16h1.78v1.16ZM5.82,10.01l-2.34-1.55,2.34-1.55v3.09ZM5.82,12.62h-1.77l1.77-1.15v1.15ZM3.1,9.17l2.38,1.57-2.38,1.55v-3.12ZM3.1,4.64l2.38,1.55-2.38,1.57v-3.12ZM3.1.79h1.26l-1.26,1.84V.79ZM6.79,3.52h-3.33l1.64-2.41,1.69,2.41ZM9.13.79l-1.64,2.34-1.64-2.34h3.27ZM9.87,7.08c.79.19.97.9,1.09,1.06l-2.87,1.53-.2-.37c-.35-.67-.11-1.5.57-1.86.26-.1.71-.53,1.41-.36ZM7.94,6.83c-.11-.22-.18-.29-.18-.44,0-.44.59-.58.79-.2l.13.25c-.09.04-.6.3-.74.39ZM11.57,3.52h-3.38l1.69-2.41,1.69,2.41ZM13.91.79l-1.64,2.34-1.64-2.34h3.27ZM16.37,3.52h-3.39l1.69-2.42,1.7,2.42ZM18.69.79l-1.63,2.32-1.63-2.32h3.27ZM18.34,6.43l.13-.25c.2-.37.79-.25.79.2,0,.16-.08.23-.18.44-.08-.05-.59-.33-.74-.39ZM19.21,8.18c.29.76-.21,1.31-.27,1.5l-2.87-1.53.2-.37c.35-.66,1.17-.93,1.86-.57.43.23.86.38,1.08.97ZM21.13,3.52h-3.39l1.7-2.42,1.69,2.42ZM23.48.79l-1.63,2.37-1.66-2.37h3.29ZM23.92,3.52h-1.35l1.35-1.96v1.96ZM21.2,5.47v-1.16h1.78l-1.78,1.16ZM23.93,7.75l-2.38-1.56,2.38-1.55v3.11ZM21.2,10.02v-3.1l2.37,1.55-2.37,1.55ZM23.93,12.29l-2.38-1.55,2.38-1.56v3.1ZM21.2,12.62v-1.15l1.77,1.15h-1.77ZM26.17,21.74h0v-5.82c0-.22-.18-.4-.4-.4s-.4.18-.4.4v5.82h-5.64v-8.33h5.64v.91c0,.22.18.4.4.4s.4-.18.4-.4v-1.31c0-.22-.18-.4-.4-.4h-1.04c0-.39,0-10.59,0-12.22,0-.22-.18-.4-.4-.4H2.7c-.22,0-.4.18-.4.4v12.22h-1.1c-.22,0-.4.18-.4.4v6.08c0,.22.18.4.4.4s.4-.18.4-.4v-5.68h5.64v8.33H1.61v-1.06c0-.22-.18-.4-.4-.4s-.4.18-.4.4v1.06c-.45.03-.81.4-.81.86v1.12c0,.47.39.86.86.86h.16v2.05c0,.22.18.4.4.4h24.18c.22,0,.4-.18.4-.4v-2.05h.16c.47,0,.86-.39.86-.86v-1.12c0-.47-.39-.86-.86-.86Z"/>
  </g>
</svg>