<?xml version="1.0" encoding="UTF-8"?>
<svg id="Layer_2" data-name="Layer 2" xmlns="http://www.w3.org/2000/svg" viewBox="0 0 26.8 26.8">
  <defs>
    <style>
      .cls-1 {
        fill: #3d1412;
      }
    </style>
  </defs>
  <g id="Layer_1-2" data-name="Layer 1">
    <path class="cls-1" d="M9.41,23.6h2.35c.16,0,.31-.07.42-.17.11-.11.17-.26.17-.42s-.07-.31-.17-.42c-.11-.11-.26-.17-.42-.17h-2.35c-.16,0-.31.07-.42.17-.11.11-.17.26-.17.42s.07.31.17.42c.11.11.26.17.42.17M15.04,23.6h2.35c.16,0,.31-.07.42-.17.11-.11.17-.26.17-.42s-.07-.31-.17-.42c-.11-.11-.26-.17-.42-.17h-2.35c-.16,0-.31.07-.42.17-.11.11-.17.26-.17.42s.07.31.17.42c.11.11.26.17.42.17ZM20.66,23.6h2.35c.16,0,.31-.07.42-.17.11-.11.17-.26.17-.42s-.07-.31-.17-.42c-.11-.11-.26-.17-.42-.17h-2.35c-.16,0-.31.07-.42.17-.11.11-.17.25-.17.42s.07.31.17.42c.11.11.25.17.42.17ZM25.41,25.61H1.18v-5.22h24.43v5.22h-.2ZM1.39,17.19h24.22v2.02H1.18v-2.02h.2ZM2.77,8.49c0-.28.11-.53.3-.71.18-.18.43-.3.71-.3s.53.11.71.3c.18.18.3.43.3.71v3.27c0,.28-.11.53-.3.71-.18.18-.44.3-.71.3s-.53-.11-.71-.3c-.18-.18-.3-.44-.3-.71v-3.27ZM15.6,5.44c0-.28.11-.53.3-.71.18-.18.44-.3.71-.3s.53.11.71.3c.18.18.3.44.3.71v6.32c0,.28-.11.53-.3.71-.18.18-.44.3-.71.3s-.53-.11-.71-.3c-.18-.18-.3-.44-.3-.71v-6.32ZM10.4,8.48l.71,4.32h-1.84l.72-4.33h.4ZM23.21,6.93l.74,5.88h-1.89l.75-5.88h.4ZM26.2,16.01h-2.6v-2.02h1.01c.09,0,.17-.02.24-.05.08-.03.14-.08.2-.15.06-.06.1-.14.12-.22.02-.08.03-.17.02-.25l-1.61-12.81c-.02-.15-.09-.28-.2-.37-.1-.09-.24-.15-.39-.15s-.29.06-.39.15c-.11.09-.18.22-.2.37l-1.62,12.81c-.01.08,0,.17.02.25.02.08.07.15.12.22.06.06.13.11.2.15.07.03.16.05.24.05h1.04v2.02h-5.22v-2.13l.14-.05c.43-.15.8-.44,1.06-.8.25-.36.4-.79.4-1.26v-6.32c0-.6-.25-1.15-.64-1.55-.4-.4-.95-.64-1.55-.64s-1.15.25-1.55.64c-.4.4-.64.95-.64,1.55v6.32c0,.47.15.91.4,1.26.26.37.63.65,1.06.8l.14.05v2.13h-5.22v-2.02h1.01c.09,0,.17-.02.25-.05.08-.04.15-.09.2-.15.06-.07.1-.14.12-.23.02-.08.03-.17.01-.26l-1.61-9.76c-.02-.14-.1-.27-.2-.35-.1-.09-.24-.14-.38-.14-.15,0-.28.05-.38.14-.1.09-.18.21-.2.35l-1.62,9.76c-.01.09,0,.17.01.26.02.08.06.16.12.23.06.07.13.12.2.15.08.04.16.05.25.05h1.04v2.02h-5.24v-2.13l.14-.05c.43-.15.8-.44,1.06-.8.25-.36.4-.79.4-1.26v-3.27c0-.6-.25-1.15-.64-1.55-.4-.4-.95-.64-1.55-.64s-1.15.25-1.55.64c-.4.4-.64.95-.64,1.55v3.27c0,.47.15.91.4,1.26.26.37.63.65,1.06.8l.14.05v2.13H.59c-.16,0-.31.07-.42.17-.11.11-.17.26-.17.42v9.61c0,.16.07.31.17.42.11.11.25.17.42.17h25.61c.16,0,.31-.07.42-.17.11-.11.17-.26.17-.42v-9.61c0-.16-.07-.31-.17-.42-.11-.11-.26-.17-.42-.17ZM3.37,4.21c.06.06.12.1.19.13.07.03.15.04.23.04s.16-.02.23-.04c.07-.03.13-.07.19-.13l1.6-1.6c.12-.11.17-.27.17-.42s-.06-.3-.17-.42c-.12-.12-.27-.17-.42-.17s-.3.06-.42.17l-1.18,1.18-1.18-1.18c-.11-.12-.27-.17-.42-.17s-.3.06-.42.17c-.11.12-.17.27-.17.42s.06.3.17.42l1.6,1.6ZM12.98,2.61c.06.06.12.1.19.13.07.03.15.04.23.04s.16-.02.23-.04c.07-.03.13-.07.19-.13l1.6-1.6c.12-.11.17-.27.17-.42s-.06-.3-.17-.42c-.12-.12-.27-.17-.42-.17s-.3.06-.42.17l-1.18,1.18-1.18-1.18C12.1.06,11.95,0,11.8,0s-.3.06-.42.17c-.12.12-.17.27-.17.42s.06.3.17.42l1.6,1.6ZM3.79,23.6h2.35c.16,0,.31-.07.42-.17.11-.11.17-.26.17-.42s-.07-.31-.17-.42c-.11-.11-.26-.17-.42-.17h-2.35c-.16,0-.31.07-.42.17-.11.11-.17.25-.17.42s.07.31.17.42c.11.11.26.17.42.17Z"/>
  </g>
</svg>