<?xml version="1.0" encoding="UTF-8"?>
<svg id="Layer_2" data-name="Layer 2" xmlns="http://www.w3.org/2000/svg" viewBox="0 0 39.43 26.84">
  <defs>
    <style>
      .cls-1 {
        fill: #3d1412;
      }
    </style>
  </defs>
  <g id="Layer_1-2" data-name="Layer 1">
    <path class="cls-1" d="M11.61,25.67v-9.43h.56c2.2,3.19,4.4,6.39,6.59,9.59h-7.15v-.16ZM11.26,13.09v2.15h-2.31v-2.15h.1l-.04-.13c.4-.3.71-.68.93-1.11.22-.43.33-.91.33-1.41,0-.87-.35-1.66-.92-2.23-.57-.57-1.36-.92-2.23-.92s-1.66.35-2.23.92c-.57.57-.92,1.36-.92,2.23,0,.5.12.98.33,1.41.22.43.53.82.93,1.11l-.04.13h.1v2.15h-2.3V5.64h8.27v7.45ZM10.44,25.83h-1.48v-9.59h1.64v9.59h-.16ZM7.13,12.58c-.59,0-1.13-.24-1.52-.63-.39-.39-.63-.93-.63-1.52s.24-1.13.63-1.52c.39-.39.93-.63,1.52-.63s1.13.24,1.52.63c.39.39.63.93.63,1.52,0,.59-.24,1.13-.63,1.52-.39.39-.92.63-1.52.63ZM7.79,15.23h-1.48v-1.74l.19.04c.1.02.21.04.31.05.1,0,.21.02.32.02s.22,0,.32-.02c.11-.01.21-.03.31-.05l.19-.04v1.74h-.16ZM7.79,17.88h-1.48v-1.64h1.64v1.64h-.16ZM7.79,20.53h-1.48v-1.64h1.64v1.64h-.16ZM7.79,23.18h-1.48v-1.64h1.64v1.64h-.16ZM7.79,25.83h-1.48v-1.64h1.64v1.64h-.16ZM5.14,25.83h-1.48v-9.59h1.64v9.59h-.16ZM1.01,4.48v-.82h12.24v.98H1.01v-.16ZM7.19,1.07l3.18,1.27-.06.31H3.94l-.06-.31,3.18-1.27h.12ZM14.74,13.59c.14,0,.26.06.35.14.09.09.14.21.14.35v1.15h-2.97v-1.64h2.48ZM21.77,25.83h-1.79c-2.2-3.2-4.39-6.4-6.59-9.59h2.09c2.2,3.19,4.4,6.39,6.59,9.59h-.3ZM23.53,15.57c0-.18.07-.35.19-.46.12-.12.28-.19.46-.19h1.65v6.28h-.16c-.14,0-.27.06-.36.15-.09.09-.15.22-.15.36v1.99c0,.14.06.27.15.36.09.09.22.15.36.15h3.97c.14,0,.26-.06.36-.15.09-.09.15-.22.15-.36v-1.99c0-.14-.06-.27-.15-.36-.09-.09-.22-.15-.36-.15h-.16v-6.28h2.97v6.28h-.16c-.14,0-.27.06-.36.15-.09.09-.15.22-.15.36v1.99c0,.14.06.27.15.36.09.09.22.15.36.15h3.97c.14,0,.26-.06.36-.15.09-.09.15-.22.15-.36v-1.99c0-.14-.06-.27-.15-.36-.09-.09-.22-.15-.36-.15h-.16v-6.28h1.48c.18,0,.34.07.46.19.12.12.19.28.19.46v10.26s-14.72,0-14.72,0v-10.26ZM26.34,22.2h2.81v.98h-2.97v-.98h.16ZM27,14.92h1.48v6.28h-1.64v-6.28h.16ZM32.96,22.2h2.81v.98h-2.97v-.98h.16ZM33.62,14.92h1.48v6.28h-1.64v-6.28h.16ZM20.37,6.97c.14,0,.27-.06.36-.15.09-.09.15-.22.15-.36,0-.41.17-.78.43-1.05.27-.27.64-.44,1.05-.44s.78.17,1.05.43c.27.27.44.64.44,1.05,0,.14.06.27.15.36.09.09.22.15.36.15.23,0,.43.09.58.24.15.15.24.35.24.58s-.09.43-.24.58c-.15.15-.35.24-.58.24h-3.97c-.23,0-.43-.09-.58-.24-.15-.15-.24-.35-.24-.58s.09-.43.24-.58c.15-.15.35-.24.58-.24ZM20.37,9.62h3.97c.51,0,.96-.2,1.29-.54.33-.33.54-.79.54-1.29,0-.4-.13-.78-.35-1.08-.22-.31-.54-.54-.92-.66l-.09-.03-.02-.09c-.13-.57-.44-1.06-.87-1.41-.43-.35-.98-.55-1.56-.55s-1.13.2-1.56.55c-.43.35-.75.84-.87,1.41l-.02.09-.09.03c-.38.12-.7.36-.92.66-.22.31-.35.68-.35,1.08,0,.5.2.96.54,1.29.33.33.79.54,1.29.54ZM32.34,7.96c.17,0,.34.06.48.15.14.1.24.23.3.4l.05.15-.15.05c-.19.07-.36.16-.51.28-.15.12-.29.26-.4.43l-.09.13-.13-.09c-.11-.08-.21-.18-.27-.3-.06-.12-.1-.25-.1-.39,0-.23.09-.43.24-.58.15-.15.35-.24.58-.24ZM33.62,9.62c.14,0,.27-.06.36-.15.09-.09.15-.22.15-.36,0-.41.17-.78.43-1.05.27-.27.64-.43,1.05-.43s.78.17,1.05.43c.27.27.44.64.44,1.05,0,.14.06.27.15.36.09.09.22.15.36.15.23,0,.43.09.58.24.15.15.24.35.24.58s-.09.43-.24.58c-.15.15-.35.24-.58.24h-3.97c-.23,0-.43-.09-.58-.24-.15-.15-.24-.35-.24-.58s.09-.43.24-.58c.15-.15.35-.24.58-.24ZM31.8,10.63c.05.46.27.87.6,1.17.33.29.76.47,1.22.47h3.97c.51,0,.96-.21,1.29-.54.33-.33.54-.79.54-1.29,0-.4-.13-.77-.35-1.08-.22-.31-.54-.54-.92-.66l-.09-.03-.02-.09c-.1-.43-.3-.82-.59-1.14-.29-.32-.65-.56-1.07-.7l-.09-.07-.33-.57-.87.5.03.05-.2.06c-.22.06-.43.15-.62.27-.19.12-.37.26-.52.43l-.11.11-.12-.1c-.17-.15-.36-.27-.57-.35-.21-.08-.43-.12-.66-.12-.5,0-.96.2-1.29.54-.33.33-.54.79-.54,1.29,0,.38.12.74.33,1.04.2.28.47.51.8.65l.14-.07.02.23ZM31.84,5.31h1.01v-1.01h-1.01v1.01ZM29.08,7.48l.5-.87-.87-.5-.5.87.87.5ZM28.71,11.46l.87-.5-.5-.87-.87.5.5.87ZM39.42,26.84v-1.01h-.17v-10.26c0-.46-.19-.87-.49-1.18-.3-.3-.72-.49-1.18-.49h-13.41c-.46,0-.87.19-1.18.49-.3.3-.49.72-.49,1.18v8.63s-.29.09-.29.09l-5.96-8.67-.03-.09v-1.45c0-.41-.17-.79-.44-1.06-.27-.27-.65-.44-1.06-.44h-2.48s0-6.94,0-6.94h1.48c.14,0,.27-.06.36-.15.09-.09.15-.22.15-.36v-1.99c0-.1-.03-.2-.09-.28-.06-.08-.13-.15-.23-.19L7.31.04s-.06-.02-.09-.03c-.03,0-.06,0-.1,0s-.06,0-.09,0c-.03,0-.06.02-.09.03L.32,2.68c-.1.04-.18.1-.23.19-.05.08-.09.18-.09.28v1.99c0,.14.06.27.15.36.09.09.22.15.36.15h1.48v10.09c0,.14.06.27.15.36.09.09.22.15.36.15h.16v9.59H0v1.01h39.42Z"/>
  </g>
</svg>