<?xml version="1.0" encoding="UTF-8"?>
<svg id="Layer_2" data-name="Layer 2" xmlns="http://www.w3.org/2000/svg" viewBox="0 0 30.48 27.71">
  <defs>
    <style>
      .cls-1 {
        fill: #3d1412;
        fill-rule: evenodd;
      }
    </style>
  </defs>
  <g id="Layer_1-2" data-name="Layer 1">
    <path class="cls-1" d="M24.86,7.53v1.08c.68,0,1.37,0,2.05,0,.31,0,.56-.18.57-.48.02-.31-.17-.57-.51-.58-.71-.02-1.41-.01-2.12,0M5.62,7.53c-.71,0-1.42-.02-2.13,0-.34.01-.53.27-.51.58.02.3.27.48.58.48.29,0,.59,0,.88,0h1.18v-1.08ZM22.96,17.16c1.35,0,2.7,0,4.04-.01.12,0,.3-.14.38-.22.16-.15.15-.35.06-.54-.1-.21-.27-.31-.51-.31-1.32,0-2.65,0-3.97,0v1.07ZM7.52,16.09c-1.35,0-2.7-.01-4.06,0-.37,0-.58.41-.45.72.11.26.34.35.63.35,1.29,0,2.59,0,3.88,0v-1.07ZM25.64,18.23h-2.68v5.32h2.68v-5.32ZM4.83,23.55h2.68v-5.31h-2.68v5.31ZM22.96,15.02h2.66v-5.35h-2.66v5.35ZM7.91,5.35h14.65c-1.76-1.22-3.51-2.45-5.28-3.65-1.14-.77-2.36-.87-3.62-.27-.51.24-.96.6-1.42.92-1.45,1-2.89,2-4.33,3ZM6.75,8.59h16.96v-2.15H6.75v2.15ZM12.23,23.55h6.01c0-2.35.06-4.69-.02-7.04-.07-1.82-1.93-3-3.75-2.56-1.31.32-2.22,1.47-2.23,2.75-.01,2.28,0,4.56,0,6.84ZM29.38,26.65c0-.22,0-.44,0-.66-.02-.45-.23-.8-.6-1.08-.32-.24-.71-.29-1.1-.29-8.29,0-16.58,0-24.87,0-.12,0-.24,0-.35.01-.62.07-1.08.36-1.26.94-.1.33-.1.71-.12,1.07h28.3ZM11.13,23.56v-.14c0-2.24,0-4.48,0-6.71.01-2.54,2.53-4.4,5.13-3.78,1.81.44,3.08,2.02,3.09,3.79,0,2.24,0,4.48,0,6.72v.12h2.48v-13.88h-13.18v13.89h2.48ZM3.69,18.21c-.9-.09-1.8-.46-1.8-1.47,0-.31.07-.67.25-.94.18-.27.49-.5.8-.64.25-.11.51-.12.78-.14v-.98c0-.21,0-.41,0-.62,0-.33.18-.61.57-.6.38,0,.54.28.54.62,0,.53,0,1.06,0,1.58h2.69v-5.34h-2.69v.35c0,.56,0,1.12,0,1.68,0,.35-.12.67-.56.65-.43-.01-.54-.32-.54-.67,0-.68,0-1.36,0-2.03-.05,0-.1,0-.15,0-.95-.01-1.69-.67-1.69-1.59,0-.91.75-1.57,1.7-1.58.69,0,1.37,0,2.06,0,0-.18,0-.35.01-.53.03-.19.13-.4.29-.52,2.21-1.54,4.41-3.09,6.63-4.6,1.71-1.16,3.76-1.1,5.45.07,2.13,1.47,4.24,2.95,6.37,4.41.32.22.49.49.44.88-.01.09-.01.19,0,.29.11,0,.22,0,.33,0,.7.01,1.41-.03,2.11.06.9.11,1.42.92,1.33,1.74-.09.77-.81,1.35-1.62,1.37-.07,0-.13,0-.2,0v5.37c.63,0,1.19.19,1.56.74.22.33.3.7.25,1.08-.12.95-.94,1.27-1.81,1.37v5.37c.11,0,.21,0,.32,0,.46.02.93,0,1.38.09,1.2.25,1.99,1.24,2,2.4,0,.35,0,.71,0,1.06,0,.35-.21.56-.58.57-.09,0-.18,0-.27,0H.85c-.16,0-.29.03-.45-.04-.17-.08-.39-.25-.39-.45,0-.56-.04-1.13.06-1.68.19-1.08,1.2-1.87,2.34-1.94.43-.02.86-.01,1.29,0v-5.38Z"/>
  </g>
</svg>