<?xml version="1.0" encoding="UTF-8"?>
<svg id="Layer_2" data-name="Layer 2" xmlns="http://www.w3.org/2000/svg" viewBox="0 0 30.43 28.98">
  <defs>
    <style>
      .cls-1 {
        fill: #3d1412;
        fill-rule: evenodd;
      }
    </style>
  </defs>
  <g id="Layer_1-2" data-name="Layer 1">
    <path class="cls-1" d="M20.32,13.2c-.55-.31-3.71-.15-4.37-.16v-.76c-.15-1.5.62-5.35.18-6.37,0,0-.05-.38-.59.05l-3.96,6.93c-1.77,3.04-1.6,2.75.88,2.75.78,0,1.56,0,2.34,0-.05,1.47-.88,6.36-.54,7.33.76.11,1.04-.86,1.82-2.11l3.16-5.1c.39-.61,1.54-2.09,1.08-2.55M0,13.13v2.6c.22.66.32,1.9.56,2.7.27.9.54,1.58.95,2.38,1.47,2.87,3.85,5.17,6.75,6.58,2.91,1.41,4.2,1.1,5.24,1.6h3.44c.46-.23,2.81-.63,3.7-.95.42-.15,1.36-.65,1.66-.63.44.03,1,.55,1.74.62,1.68.17,2.59-.68,3.25-1.45,1.81-2.14,1.58-1.24.65-2.52.38-.76,2.18-1.81,1.36-2.65-.93-.73-1.45.95-2.5,1.64-.4-.22-.77-.51-1.03-1.04,2.56-2.04,1.44-3.55.15-2.16-.43.46-.75.84-1.15,1.23-1.18-.34-.38-1.32-2.76,1.39-1.36,1.55-.68,1.96-.73,3.77-2.61,1.32-6.23,1.71-9.35.98C2.45,24.97-1.69,14.45,3.97,6.87,6.85,3.01,13.04-.19,19.97,2.19c9.29,3.19,8.87,12.09,9.28,12.87.61.16.7.07,1.18-.24v-2.04c-.37-.71-.42-1.83-.7-2.67C26.72,1.05,17.64.35,16.94,0h-3.08c-.55.21-2.09.35-2.85.56C6.98,1.69,3.4,4.4,1.56,8.08.12,10.97.43,12.05,0,13.13Z"/>
  </g>
</svg>