<?xml version="1.0" encoding="UTF-8"?>
<svg id="Layer_2" xmlns="http://www.w3.org/2000/svg" version="1.1" viewBox="0 0 32.7 34.3">
  <!-- Generator: Adobe Illustrator 30.1.0, SVG Export Plug-In . SVG Version: 2.1.1 Build 136)  -->
  <defs>
    <style>
      .st0 {
        fill: #3d1412;
      }
    </style>
  </defs>
  <path class="st0" d="M30.1,24.7c1.2.6,1.7,1.8,1.5,3s-1.3,2.1-2.5,2.1h-10.5c-.8,0-1.5-.3-2-.9l-8.7-10.1c-.9-1.1-.9-2.6.1-3.7l6.4-6.4c.2-.2.4-.2.7,0l4.9-6c.1-.1.3-.2.5-.2s.3.2.4.3c1.2,3.4,3.3,4.9,6.7,5.5s.3.2.3.3,0,.4,0,.5l-5.6,5.8,2.8,7.1,5.1,2.4ZM21.4,14.6l5.1-5.3c-.8-.2-1.6-.5-2.3-.9-1.8-.9-3.2-2.4-4-4.4l-4.8,5.8c.2.9.5,1.7.9,2.5.3.5.6,1,1,1.5,1.2,1.2,2.6,1.3,4.1.8ZM23.2,20.2l-.4-.9-2.7,1.4c-.2.1-.5,0-.6-.2s0-.5.2-.6l2.7-1.4-.4-.9-3.3,1.7c-.2.1-.5,0-.6-.2s0-.5.2-.6l3.3-1.7-.3-.8c-1.8.5-3.3.3-4.7-1-1.2-1.3-1.7-2.8-2.2-4.5l-2,2,1.7,1.9c0,.2,0,.4,0,.6-.8,1.5-.8,3.1-.2,4.6.3.8.7,1.5,1.2,2.1l3.8,4.5h5.6c.8-.7,1.6-1.1,2.5-1.5l-2.7-1.3-.8-2-2.2,1.1c-.2.1-.5-.1-.6-.3,0-.2,0-.5.2-.6l2.2-1.1ZM14.1,21.5c-.6-.8-.9-1.5-1.2-2.3-.5-1.6-.4-3.3.3-4.8l-1.4-1.5-3.2,3.2c-.6.6-.7,1.6-.1,2.3l3.9,4.6,1.6-1.3ZM22.7,29c.2-.8.5-1.5.9-2.2h-4.9c-.1,0-.3,0-.4-.2l-3.6-4.3-1.6,1.3,4.1,4.7c.3.4.8.7,1.3.7h4.2ZM29,29c.9,0,1.5-.7,1.6-1.5s-.3-1.6-1-1.9l-1.3-.6c-2.1.5-4.1,1.7-4.7,4h5.4Z"/>
  <path class="st0" d="M14.5,29.9H4.5c-.3,0-.5-.2-.5-.5s.2-.5.5-.5h10c.3,0,.5.2.5.4s-.1.5-.4.5Z"/>
  <path class="st0" d="M11.4,8.7h-4.8c-.3,0-.5-.2-.5-.5s.2-.5.4-.5h4.9c.2,0,.4.2.4.4s-.1.5-.4.5Z"/>
  <path class="st0" d="M9.2,11.3h-4.8c-.3,0-.5-.2-.5-.4s.2-.5.5-.5h4.8c.3,0,.5.2.5.5s-.2.5-.5.5Z"/>
  <path class="st0" d="M10.2,25.1h-4.8c-.3,0-.5-.2-.5-.5s.2-.5.5-.5h4.7c.3,0,.5.2.5.4s-.1.5-.4.5Z"/>
  <path class="st0" d="M2.3,11.3H.9c-.3,0-.4-.2-.5-.4s.2-.5.5-.5h1.3c.3,0,.5.2.5.5s-.2.5-.4.5Z"/>
  <path class="st0" d="M4.5,8.7h-1.3c-.3,0-.5-.2-.5-.5s.2-.5.5-.5h1.4c.3,0,.4.3.4.5s-.2.5-.5.5Z"/>
  <path class="st0" d="M3.3,25.1h-1.3c-.3,0-.5-.2-.5-.5s.2-.5.5-.5h1.3c.3,0,.5.2.5.5s-.2.5-.5.5Z"/>
</svg>