<?xml version="1.0" encoding="UTF-8"?>
<svg id="Layer_2" data-name="Layer 2" xmlns="http://www.w3.org/2000/svg" viewBox="0 0 33.32 33.32">
  <defs>
    <style>
      .cls-1 {
        fill: #3d1412;
      }
    </style>
  </defs>
  <g id="Layer_1-2" data-name="Layer 1">
    <path class="cls-1" d="M19.52,1.02c.73-.09,2.56-.16,3.95,1.23.66.66.49,1.66.27,2.3l-2.61-2.61c-.19-.19-.5-.19-.69,0-.19.19-.19.5,0,.69l2.61,2.61c-.64.21-1.64.39-2.3-.27-1.39-1.39-1.32-3.22-1.23-3.95ZM30.16,27.82h-1.11v-2.86h1.11v2.86ZM17.21,27.82v-2.86h1.11v2.86h-1.11ZM28.08,24.95v2.86h-8.79v-2.86h8.79ZM15.03,23h17.31v.98H15.03v-.98ZM19.32,20.66h1.11v1.37h-1.11v-1.37ZM21.4,22.03v-1.37h4.56v1.37h-4.56ZM28.05,20.66v1.37h-1.11v-1.37h1.11ZM5.92,23h1.27v4.82h-1.27v-4.82ZM.98,20.94c0-2.46,2-4.46,4.46-4.46h2.25c2.46,0,4.46,2,4.46,4.46v1.09H.98v-1.09ZM2.1,15.51v-.41c0-2.21,1.8-4.01,4.01-4.01h.9c2.21,0,4.01,1.8,4.01,4.01v.41H2.1ZM32.83,24.95c.27,0,.49-.22.49-.49v-1.95c0-.27-.22-.49-.49-.49h-3.81v-1.37h2.57c.27,0,.49-.22.49-.49v-3.51c0-.27-.22-.49-.49-.49h-2.44c-.27,0-.49.22-.49.49s.22.49.49.49h1.95v2.54h-14.84v-2.54h10.81c.27,0,.49-.22.49-.49s-.22-.49-.49-.49h-11.3c-.27,0-.49.22-.49.49v3.51c0,.27.22.49.49.49h2.57v1.37h-3.81c-.27,0-.49.22-.49.49v1.95c0,.27.22.49.49.49h1.69v2.86h-1.65c-.27,0-.49.22-.49.49s.22.49.49.49h17.76v2.41c0,.63-.51,1.14-1.14,1.14H2.44c-.81,0-1.46-.66-1.46-1.46v-2.08h11.55c.27,0,.49-.22.49-.49s-.22-.49-.49-.49h-4.36v-4.82h4.46c.27,0,.49-.22.49-.49v-1.57c0-1.84-.92-3.47-2.33-4.46h.72c.27,0,.49-.22.49-.49v-.9c0-1.64-.8-3.1-2.02-4.01h.36c.27,0,.49-.22.49-.49v-.79c0-.65-.17-1.3-.48-1.87-.13-.24-.43-.32-.66-.19-.24.13-.32.43-.19.66.24.42.36.91.36,1.4v.3H3.28v-.3c0-1.59,1.29-2.88,2.88-2.88h.79c.44,0,.86.1,1.25.28.24.12.53.01.65-.23.12-.24.01-.53-.23-.65-.52-.25-1.09-.38-1.67-.38h-.79c-2.13,0-3.86,1.73-3.86,3.86v.79c0,.27.22.49.49.49h.36c-1.23.91-2.02,2.37-2.02,4.01v.9c0,.27.22.49.49.49h.72c-1.41.98-2.33,2.61-2.33,4.46v1.57c0,.27.22.49.49.49h4.46v4.82H.49c-.27,0-.49.22-.49.49v2.57c0,1.35,1.09,2.44,2.44,2.44h28.76c1.17,0,2.11-.95,2.11-2.11v-2.9c0-.27-.22-.49-.49-.49h-1.69v-2.86h1.69ZM23.8,5.99l.81.81c.19.19.5.19.69,0,.19-.19.19-.5,0-.69l-.81-.81c.13-.29.29-.74.37-1.24.16-1.02-.09-1.88-.7-2.5C22.21-.39,19.59,0,19.09.1c-.25.05-.44.24-.49.49-.1.51-.48,3.12,1.46,5.07.99.99,2.46.89,3.74.34Z"/>
  </g>
</svg>