<?xml version="1.0" encoding="UTF-8"?>
<svg id="Layer_2" data-name="Layer 2" xmlns="http://www.w3.org/2000/svg" viewBox="0 0 32.86 24.33">
  <defs>
    <style>
      .cls-1 {
        fill: #3d1412;
      }
    </style>
  </defs>
  <g id="Layer_1-2" data-name="Layer 1">
    <path class="cls-1" d="M31.57,10.01s0,0,0,0h-1.38v-3.12h1.38s0,0,0,0v3.1ZM28.9,11.5h-1.32v-6.09h1.32v6.09ZM23.73,20.63h-5.14v-1.44h2.26c.71,0,1.29-.55,1.29-1.22v-2.28c0-.67-.58-1.22-1.29-1.22h-8.84c-.71,0-1.29.55-1.29,1.22v2.28c0,.67.58,1.22,1.29,1.22h2.26v1.44h-5.14v-11.56h14.6v11.56ZM17.3,19.18v1.44h-1.75v-1.44h1.75ZM12.01,17.96v-2.28h8.84v2.28s0,0,0,0h-8.84ZM16.43,1.22c3.91,0,7.12,2.94,7.29,6.63h-14.59c.17-3.68,3.38-6.63,7.29-6.63ZM5.28,11.5h-1.32v-6.09h1.32v6.09s0,0,0,0ZM1.3,10.02s0,0,0,0v-3.1s0,0,0,0h1.38v3.12h-1.38ZM31.56,5.68h-1.38v-.26c0-.67-.58-1.22-1.29-1.22h-1.32c-.71,0-1.29.55-1.29,1.22v2.43h-1.28c-.18-4.36-3.96-7.85-8.58-7.85S8.02,3.49,7.85,7.85h-1.28v-2.43c0-.67-.58-1.22-1.29-1.22h-1.32c-.71,0-1.29.55-1.29,1.22v.26h-1.38c-.71,0-1.3.55-1.3,1.23v3.1c0,.68.58,1.23,1.3,1.23h1.38v.26c0,.67.58,1.22,1.29,1.22h1.32c.71,0,1.29-.55,1.29-1.22v-2.43h1.27v11.55h-2.58c-.71,0-1.29.55-1.29,1.22v1.26c0,.67.58,1.22,1.29,1.22h8.28c.35,0,.64-.27.64-.61s-.29-.61-.64-.61H5.27v-1.26h22.33v1.26h-8.28c-.35,0-.64.27-.64.61s.29.61.64.61h8.28c.71,0,1.29-.55,1.29-1.22v-1.26c0-.67-.58-1.22-1.29-1.22h-2.58v-11.55h1.27v2.43c0,.67.58,1.22,1.29,1.22h1.32c.71,0,1.29-.55,1.29-1.22v-.26h1.38c.71,0,1.3-.55,1.3-1.23v-3.1c0-.68-.58-1.23-1.29-1.23Z"/>
  </g>
</svg>