<?xml version="1.0" encoding="UTF-8"?>
<svg id="Layer_2" data-name="Layer 2" xmlns="http://www.w3.org/2000/svg" viewBox="0 0 29.13 28.13">
  <defs>
    <style>
      .cls-1 {
        fill: #3d1412;
        fill-rule: evenodd;
      }
    </style>
  </defs>
  <g id="Layer_1-2" data-name="Layer 1">
    <path class="cls-1" d="M21.24,17v-3.87c0-.39.31-.68.68-.68s.68.29.68.68v3.65c.53.79,1.4,1.25,2.34,1.25.5,0,.99-.12,1.42-.38,1.33-.77,1.79-2.49,1.02-3.84-.12-.2-.27-.41-.44-.58-.2-.2-.26-.51-.14-.79.32-.67.29-1.47-.09-2.12-.41-.72-1.18-1.14-1.98-1.14-.41,0-.8.1-1.14.31-.07.03-.14.07-.2.12-.17.12-.39.15-.6.1-.2-.07-.36-.22-.43-.41-.05-.1-.1-.2-.15-.31-.36-.63-1.04-1.01-1.76-1.01-.36,0-.7.09-1.01.27-.34.19-.6.46-.79.8.84,1.33,1.06,2.94.65,4.44-.12.44-.31.87-.55,1.28-.53.92-1.31,1.67-2.25,2.15.51.82,1.42,1.31,2.39,1.31.5,0,.97-.12,1.4-.38.38-.2.7-.51.94-.87ZM17.69,13.91s.03-.05.05-.09v-.03l.03-.05.02-.03.02-.05s.03-.05.03-.09l.02-.02.02-.07.02-.02c.09-.26.15-.51.2-.79v-.07l.02-.03v-.09l.02-.05v-.12c.12-1.55-.65-3.11-2.08-3.94-.53-.29-1.09-.48-1.69-.53-.27-.03-.49-.2-.58-.46-.1-.26-.03-.53.17-.72.2-.2.38-.43.51-.68.85-1.47.36-3.36-1.13-4.22-.46-.27-1.01-.41-1.54-.41-1.11,0-2.13.58-2.68,1.54-.09.15-.15.31-.22.46-.07.2-.24.36-.44.41-.2.07-.43.03-.6-.1-.09-.07-.19-.12-.29-.19-.53-.29-1.11-.46-1.72-.46-1.23,0-2.37.67-2.99,1.72-.56.99-.61,2.18-.14,3.21.12.27.07.58-.14.79-.26.26-.48.55-.67.87-.55.96-.7,2.08-.41,3.17.29,1.08.97,1.98,1.95,2.54.63.36,1.37.55,2.08.55,1.45,0,2.76-.72,3.53-1.93v-5.17c0-.38.31-.68.68-.68s.68.31.68.68v5.48c.36.58.85,1.04,1.43,1.38.65.36,1.37.56,2.1.56,1.48,0,2.87-.8,3.62-2.1.03-.05.07-.12.1-.19ZM5.56,13.96c-.39,0-.79-.1-1.14-.31-1.08-.63-1.45-2.01-.82-3.09.19-.32.6-.44.94-.26.32.2.43.61.24.94-.24.43-.1.97.32,1.23.43.24.96.1,1.21-.31.2-.31.61-.41.94-.2.32.19.41.61.22.94-.44.68-1.16,1.06-1.91,1.06h0ZM23.1,28.13H6.03c-.39,0-.68-.31-.68-.68s.29-.68.68-.68h17.07c.38,0,.68.31.68.68s-.31.68-.68.68ZM9.07,23.55v-7.56c-.97.8-2.22,1.25-3.53,1.25-.96,0-1.93-.26-2.76-.73-1.28-.75-2.2-1.95-2.58-3.38-.39-1.42-.19-2.92.55-4.2.17-.29.36-.56.56-.82-.48-1.33-.34-2.8.36-4.04.87-1.48,2.47-2.41,4.18-2.41.73,0,1.47.17,2.13.49.8-1.33,2.25-2.15,3.82-2.15.77,0,1.55.2,2.22.6,2.13,1.23,2.87,3.96,1.64,6.08-.02.02-.02.03-.03.03.39.14.77.29,1.11.5.38.22.72.48,1.02.75.27-.36.61-.65,1.01-.89.51-.29,1.09-.44,1.69-.44,1.13,0,2.2.56,2.82,1.5.46-.2.96-.31,1.47-.31,1.3,0,2.51.7,3.16,1.83.53.9.63,1.98.31,2.95.14.17.26.34.36.53,1.16,2,.48,4.56-1.52,5.72-.65.36-1.37.55-2.1.55-.85,0-1.66-.26-2.34-.72v4.88h3.75c.38,0,.68.31.68.68s-.31.68-.68.68H2.76c-.38,0-.68-.31-.68-.68s.31-.68.68-.68h6.32ZM21.24,23.55v-4.66c-.09.07-.17.12-.26.17-.63.36-1.35.55-2.08.55-1.48,0-2.88-.79-3.62-2.08-.02-.03-.05-.07-.07-.12-.41.1-.82.15-1.25.15-.97,0-1.93-.26-2.78-.75-.26-.15-.51-.32-.75-.51v7.25h10.8Z"/>
  </g>
</svg>