<?xml version="1.0" encoding="UTF-8"?>
<svg id="Layer_2" data-name="Layer 2" xmlns="http://www.w3.org/2000/svg" viewBox="0 0 20.72 31.02">
  <defs>
    <style>
      .cls-1 {
        fill: #3d1412;
      }
    </style>
  </defs>
  <g id="Layer_1-2" data-name="Layer 1">
    <g>
      <path class="cls-1" d="M10.36,25.41L2.73,15.39c-1.41-1.85-2.09-4.14-1.94-6.45.16-2.31,1.15-4.49,2.79-6.13l.19-.19h0C5.57.93,7.89,0,10.36,0s4.79.93,6.58,2.61h0l.19.19c1.64,1.64,2.63,3.82,2.79,6.13.16,2.31-.53,4.61-1.94,6.45l-7.63,10.02ZM4.47,3.79c-1.39,1.41-2.22,3.27-2.36,5.24-.13,2,.46,3.97,1.67,5.56l6.58,8.64,6.58-8.64c1.21-1.59,1.81-3.57,1.67-5.56-.13-1.98-.97-3.84-2.36-5.25l-.04-.04c-1.56-1.56-3.64-2.42-5.85-2.42s-4.28.86-5.84,2.42l-.04.05Z"/>
      <path class="cls-1" d="M13.29,9.59c0,1.62-1.31,2.93-2.93,2.93s-2.93-1.31-2.93-2.93,1.31-2.93,2.93-2.93,2.93,1.31,2.93,2.93"/>
      <path class="cls-1" d="M20.72,25.69c0,1.52-1.14,2.9-3.21,3.9-1.92.92-4.46,1.43-7.15,1.43s-5.23-.51-7.15-1.43c-2.07-1-3.21-2.38-3.21-3.9,0-1.07.58-2.09,1.67-2.95.86-.68,2.03-1.25,3.4-1.66l.87,1.13c-2.81.73-4.62,2.09-4.62,3.48,0,.97.9,1.95,2.47,2.71,1.74.84,4.08,1.3,6.57,1.3s4.83-.46,6.57-1.3c1.57-.76,2.47-1.74,2.47-2.71,0-1.39-1.81-2.75-4.62-3.48l.87-1.13c1.37.41,2.54.98,3.4,1.66,1.09.86,1.67,1.88,1.67,2.95"/>
    </g>
  </g>
</svg>