<?xml version="1.0" encoding="UTF-8"?>
<svg id="Layer_2" data-name="Layer 2" xmlns="http://www.w3.org/2000/svg" viewBox="0 0 28.98 28.95">
  <defs>
    <style>
      .cls-1 {
        fill: #3d1412;
      }
    </style>
  </defs>
  <g id="Layer_1-2" data-name="Layer 1">
    <path class="cls-1" d="M26.2,13.46h-1.81v-1.15l1.69-.83-.46-.86-1.23.62v-1.15h-.97v1.15l-1.21-.62-.43.86,1.67.84v1.15h-1.83s-.03,0-.04,0c-.99,0-1.8-.81-1.8-1.8,0-.89.66-1.65,1.54-1.78.24-.04.42-.26.42-.5h0c.14-1.1,1.07-1.92,2.17-1.92s2.02.81,2.17,1.89v.06h0c0,.24.17.44.4.48.88.13,1.54.89,1.54,1.78,0,.99-.81,1.8-1.8,1.8-.01,0-.03,0-.04,0h.02ZM23.08,23.16l-3.86.77.97-.97c.48-.55.74-1.25.74-1.97,0-1.66-1.35-3.01-3.01-3.01-.73,0-1.43.26-1.98.74l-1.45,1.45-1.45-1.45c-.41-.41-.93-.69-1.49-.81l1.32-1.16c.1-.09.16-.22.16-.36,0-.08-.02-.15-.05-.22l-.74-1.49c.74-.15,1.49-.22,2.24-.22h0c6.06,0,11.1,4.67,11.55,10.72l-2.57-1.93c-.09-.07-.19-.1-.3-.1-.03,0-.06,0-.09,0ZM14.49,27.3l-5.01-5.01c-.39-.38-.6-.9-.6-1.45s.22-1.07.6-1.45c.38-.39.9-.61,1.45-.61s1.07.22,1.45.61l1.78,1.78c.09.09.21.14.34.14s.25-.05.34-.14l1.78-1.78c.38-.38.9-.6,1.45-.6,1.13,0,2.05.92,2.05,2.05,0,.54-.22,1.06-.6,1.45l-5.03,5.01ZM3.39,22.77c1.13-3.78,4.1-6.74,7.89-7.84l.68,1.36-1.96,1.71c-.45.14-.87.39-1.2.73-.56.56-.88,1.33-.88,2.12,0,.33.05.66.16.97l-4.7.95ZM2.79,13.46s-.03,0-.04,0c-.99,0-1.8-.81-1.8-1.8,0-.89.66-1.65,1.54-1.78.24-.04.42-.26.42-.5h0c.14-1.1,1.07-1.92,2.17-1.92s2.02.81,2.17,1.89v.06s0,0,0,0c0,.23.17.44.4.48.88.13,1.54.89,1.54,1.78,0,.99-.81,1.8-1.8,1.8-.01,0-.03,0-.04,0h-1.79v-1.16l1.69-.83-.46-.86-1.23.62v-1.15h-.97v1.15l-1.21-.62-.43.86,1.67.84v1.15h-1.83ZM11.89,8.19s-.02,0-.04,0c-1.16,0-2.1-.94-2.1-2.1,0-1.04.76-1.92,1.79-2.08.24-.06.4-.27.4-.51h0c0-1.41,1.14-2.55,2.55-2.55s2.55,1.14,2.55,2.55v.05h0c0,.24.17.44.4.48.98.2,1.68,1.06,1.68,2.06,0,1.14-.9,2.07-2.04,2.1h-2.11v-1.63l1.67-.83-.43-.86-1.23.61v-1.15h-.97v1.15l-1.23-.61-.43.86,1.67.83v1.63h-2.11ZM27.04,9.02c-.18-1.6-1.53-2.81-3.14-2.81s-2.96,1.21-3.14,2.81c-1.15.36-1.94,1.43-1.94,2.64,0,1.53,1.24,2.77,2.77,2.77h1.83v2.82c-2.23-2.28-5.26-3.62-8.45-3.74v-4.34s2.11,0,2.11,0c0,0,0,0,0,0,1.7,0,3.07-1.38,3.07-3.07,0-1.35-.88-2.54-2.17-2.94-.19-1.79-1.7-3.15-3.49-3.15s-3.31,1.36-3.49,3.15c-1.3.38-2.2,1.58-2.2,2.94,0,1.7,1.37,3.07,3.07,3.07h2.14v4.34c-3.19.12-6.21,1.45-8.45,3.73v-2.81h1.83c1.53,0,2.77-1.24,2.77-2.77,0-1.21-.79-2.28-1.94-2.64-.18-1.6-1.53-2.81-3.14-2.81s-2.96,1.21-3.14,2.81c-1.16.36-1.94,1.43-1.94,2.64,0,1.53,1.24,2.77,2.77,2.77h1.83v3.91c-1.72,2.21-2.66,4.93-2.66,7.73,0,.83.08,1.67.25,2.49l.97-.19c-.15-.75-.23-1.52-.23-2.29s.08-1.53.23-2.29l5.44-1.09c.07.09.15.18.23.27l5.33,5.37c.09.09.21.14.34.14s.25-.05.34-.14l1.59-1.59,1.45,1.45v.77h.97v-.97s0,0,0,0c0-.13-.05-.25-.14-.34l-1.59-1.59,1.03-1.03c.07.04.16.06.24.06.02,0,.05,0,.07,0l4.61-.92,3.01,2.25c-.02.66-.09,1.32-.22,1.96l.97.19c.16-.82.25-1.65.25-2.48,0-2.81-.95-5.54-2.68-7.75v-3.91s1.81,0,1.81,0h.02c1.53,0,2.77-1.24,2.77-2.77,0-1.21-.79-2.28-1.94-2.64h0Z"/>
  </g>
</svg>