<?xml version="1.0" encoding="UTF-8"?>
<svg id="Layer_2" data-name="Layer 2" xmlns="http://www.w3.org/2000/svg" viewBox="0 0 32.71 34.33">
  <defs>
    <style>
      .cls-1 {
        fill: #3d1412;
        fill-rule: evenodd;
      }
    </style>
  </defs>
  <g id="Layer_1-2" data-name="Layer 1">
    <path class="cls-1" d="M8.89,14.81c0,.38.27.69.6.72.92.11.59-.36.59,1.33,0,1.02.5,2.31,1.06,3.18l.57.69c1.05,1.06,2.45,1.97,4.01,1.97s1.97.07,3.28-.57c.21-.1.25-.09.38-.28.23-.32.19-.64-.04-.92-.54-.69-1.58.38-2.97.38-1.23,0-2.41-.54-3.3-1.28-.75-.62-1.48-2.12-1.48-3.17,0-.52-.06-.86.13-1.26.16.1.5.4.73.4.1,0,1.3-.41.38-1.51l-.69-.9c-.09-.13-.14-.2-.22-.31-.53-.71-1.12-.32-1.75.19-.49.4-1.31.83-1.31,1.34M8.96,22.77c.79,0,1.26-.09,1.26-.93,0-.14-.27-.46-.42-.51-.21-.06-.66-.02-.9-.02-1.35,0-2.76-.06-3.92-.73-.53-.3-.95-.54-1.42-.97l-.1-.1s-.08-.08-.13-.13l-.45-.48c-.45-.57-.76-1.16-1.02-1.83-.61-1.52-.38-3.81.47-5.18l.35-.52c.13-.19.25-.32.38-.48.25-.33.54-.59.88-.84.34-.26.61-.47,1.01-.65.31-.14.21-.14.6-.26.31-.1.3-.17.63-.23,2.58-.47,2.15.19,2.64-1.61l1.07-2.38c.47-.66.98-1.26,1.62-1.76l1.03-.7c.53-.31,1.2-.62,1.84-.75.96-.2,1.55-.24,2.55-.24.76,0,1.51.27,2.17.49,1,.33,1.85.89,2.59,1.59.46.43.81.9,1.18,1.41.4.56.68,1.14.91,1.81.42,1.25.04,1.93,1.45,1.93.69,0,1.83.31,2.42.64.8.45,1.11.61,1.81,1.31.34.34.61.74.86,1.13.07.12.04.06.12.21.04.07.03.06.06.13.56,1.02.79,2.27.69,3.42l-.21,1.18c-.3.93-.78,1.87-1.48,2.57-.63.63-1.35,1.22-2.21,1.51-.79.26-1.55.52-2.6.52-.38,0-1.62-.12-1.89.1-.39.31-.42.89,0,1.2.5.37,1.94.09,2.56.09,1.14,0,2.19-.31,3.17-.82l.95-.58c1.07-.7,2.22-2.07,2.64-3.33l.37-1.16c.29-1.07.32-2.55.02-3.58l-.35-1.11c-.06-.16-.08-.24-.15-.38-.28-.54-.56-1.1-.96-1.56-1.38-1.58-2.6-2.33-4.67-2.84-.96-.24-.84.12-1.14-.91-.09-.3-.18-.44-.28-.71-.25-.69-.62-1.34-1.06-1.92-.27-.36-.55-.74-.88-1.05-.76-.7-1.44-1.2-2.33-1.72-.22-.13-.43-.2-.68-.32-.18-.09-.14-.06-.34-.12-.15-.05-.2-.09-.37-.16-.69-.28-1.83-.42-2.63-.42-.91,0-1.77.05-2.59.27-1.46.38-2.86,1.1-3.98,2.13l-.99,1.06c-.11.14-.21.25-.32.41-.08.11-.09.14-.15.24l-.67,1.19c-.17.31-.35.76-.44,1.09-.12.44-.12.78-.59.87-.17.03-.45.05-.63.1-1.45.4-2.34.74-3.53,1.71-.89.73-1.62,1.69-2.09,2.76-.79,1.79-.93,4.13-.15,5.9l.48,1.05c.11.18.15.29.27.46.62.88,1.34,1.61,2.22,2.23.49.34.96.52,1.49.77.8.37,1.62.46,2.52.47l1.46.07ZM5.11,28.55c0,.94.04,1.46.81,2.18,1.02.95,3.4,1.09,4.49-.73.66-1.11,0-2.64-.45-3.58-.1-.22-.1-.15-.2-.33-.3-.54-1.14-1.96-1.7-2.08-.75-.17-1.54,1.25-1.88,1.83-.32.54-.73,1.3-.88,1.91-.05.21-.18.56-.18.81ZM13.6,31.4c0,.45-.05.97.09,1.3.4.94,1.32,1.62,2.43,1.62.55,0,.92.04,1.4-.2,1.48-.72,1.59-1.33,1.59-2.79,0-.29-.06-.5-.14-.72-.23-.64-.51-1.27-.89-1.83-.96-1.46-1.52-2.73-2.7-1.11l-.39.54c-.48.83-.49.75-.97,1.75-.14.3-.42,1.04-.42,1.44ZM22.04,28.68c0,1.05.15,1.37.81,2.04.68.69,2.27.91,3.32.36.48-.25.88-.54,1.18-1.08.48-.86.24-1.96-.1-2.81-.14-.34-.13-.36-.29-.64-.12-.2-.21-.4-.33-.6-.33-.55-1.17-1.99-1.8-1.99-.76,0-1.65,1.83-1.94,2.24l-.47.93c-.1.25-.19.42-.24.69-.06.32-.14.53-.14.86ZM15.07,31.8c0,1.35,2.59,1.6,2.59-.2,0-.41-.22-.87-.39-1.21-.04-.07-.05-.12-.08-.19-.07-.15-.09-.16-.18-.29-.29-.43-.53-1.27-.93-.63l-.37.63c-.26.4-.64,1.32-.64,1.88ZM6.63,28.75c0,.62-.03.6.44.95.28.21.81.27,1.27.17.2-.04.51-.25.64-.43.74-.98-.8-2.98-1.03-3.42-.62.41-1.33,2-1.33,2.72ZM26.09,29.01c0-.94-.19-1.23-.63-2.09-.15-.31-.42-.71-.7-.9-.29.44-.55.83-.8,1.33-.4.8-.78,1.76,0,2.33.74.54,2.13.08,2.13-.67ZM13.07,11.62c0,.54.26.8.86.8.08,0,.32-.16.51-.23,1.92-.69,3.64-.41,5.12.91l.74.92c.14.2.11.12.22.38.54,1.33.52,1.27.52,2.73,0,.9-.74-.11-1.28.45-.63.66.12,1.24.49,1.79,1.02,1.51,1.23,1.32,2.58.28.36-.28,1-.67,1-1.06,0-.43-.33-.8-.86-.8-.37,0-.63.73-.47-.61.14-1.22-.15-2.4-.6-3.44-.08-.19-.16-.26-.28-.45-.49-.77-1.03-1.41-1.82-1.9-.66-.42-.55-.37-1.23-.63l-.86-.27c-1.19-.28-2.14-.27-3.32.11-.17.06-.2.09-.37.16-.27.11-.95.29-.95.84Z"/>
  </g>
</svg>