<?xml version="1.0" encoding="UTF-8"?>
<svg id="Layer_2" data-name="Layer 2" xmlns="http://www.w3.org/2000/svg" viewBox="0 0 62.49 29.27">
  <defs>
    <style>
      .cls-1 {
        fill: #3d1412;
      }
    </style>
  </defs>
  <g id="Layer_1-2" data-name="Layer 1">
    <path class="cls-1" d="M10.1,6.66c0,.15,0,.35.02.51.01.13.03.25.05.33.29,1.11.62,1.56.79,1.81.11.15.18.25.22.39l.08.3.27.06c.25.06.38.17.52.28l.07.06.36.21c.17.09.36.18.55.25.17.06.34.11.53.15.39.08.8.12,1.19.1.34-.01.68-.06,1-.17.53-.17,1.05-.42,1.5-.75.38-.28.71-.61.95-1.02l.28-.44c.22-.41.38-.86.46-1.34.08-.46.08-.95,0-1.45-.03-.2-.08-.38-.13-.55-.05-.16-.11-.32-.17-.48l-.24-.47c-.09-.15-.19-.32-.31-.47-.12-.16-.24-.31-.38-.45l-.02-.02c-.15-.15-.31-.29-.48-.42-.15-.11-.31-.21-.47-.3l-.5-.24c-.48-.21-1.01-.32-1.55-.34-.54-.02-1.08.05-1.58.23-.32.11-.63.26-.92.43-.26.16-.5.35-.71.57l-.4.43-.18.24c-.08.11-.15.23-.22.35-.07.12-.14.24-.19.36-.11.25-.22.55-.29.89-.06.29-.1.61-.1.94M48.31,3.45c-.13-.07-.41-.07-.7-.07v16.04h.07c.15,0,.31-.02.43-.02.04,0,.07,0,.11-.03.05-.02.1-.06.14-.11.01-.01.02-.05.03-.09.02-.08.02-.2.02-.32V4.02c0-.15,0-.32-.04-.44-.02-.06-.04-.11-.06-.13ZM48.47,20.39h.12c1.18,0,2.38-.02,3.53.05.44.02,1.32.01,2.1,0h.5c.03-.75.01-2.31,0-3.28v-.73c0-.51-.07-.93-.2-1.32-.13-.4-.32-.77-.58-1.17,0-.02-.03-.04-.05-.06-.04-.04-.09-.09-.14-.16l-.08-.1-.09-.09c-.16-.16-.46-.39-.76-.59v4.93c.01.44-.1.83-.68.83h-2.48c-.08,0-.15,0-.22-.03v.2c0,.18-.01.36-.05.53-.04.21-.13.4-.27.56-.12.14-.28.26-.45.35-.06.03-.13.06-.19.08ZM47.76,21.45h4.1c-1.08-.05-2.17-.04-3.26-.04h-.84s0,.04,0,.04ZM55.83,21.06c-.05-.2-.07-.54-.08-.96-.01.46-.03.82-.06.96l-.09.39h.32l-.09-.39ZM51.07,7.48l-1.02-1.47v11.65h1.74v-.1s0-6.1,0-6.1l.63.15c.26.06.6.24.93.45.37.24.75.53.95.73l.13.14s.07.08.12.15l.07.07c.06.06.11.11.18.23.3.47.53.92.69,1.41.16.5.25,1.02.25,1.64v2.03s.02-.42.02-.42c.02-.99.04-1.92-.01-2.17l-.07-.37c-.06-.35-.13-.67-.24-.95-.12-.3-.26-.6-.42-.87-.15-.26-.33-.51-.55-.72l-.2-.2c-.15-.15-.39-.35-.64-.53-.22-.16-.44-.3-.6-.37-.09-.05-.2-.1-.3-.14-.14-.06-.31-.15-.45-.19-.06-.01-.1-.02-.2-.07l-.29-.14v-1.08c0-.53,0-1.05,0-1.57v-.08c0-.05,0-.07-.01-.08-.02-.06-.62-.89-.71-1.01ZM18.26,16.1c-.07.01-.18-.58-.19-.3.01.03.02.07.04.12.02.06.03.13.04.2v.08s.3,1.23.3,1.23c.02.09.04.18.07.32.01.06.03.13.05.2.02.09.05.18.07.28.07.3.21.77.23,1.06h.53s.13.02.13.02c-.03-.11-.06-.25-.09-.4-.24-1.05-.56-2.2-.73-3.24-.07-.27.04.32-.28.4l-.16.04ZM20.43,24.41h-.24s.19.26.19.26l.05-.26ZM62.21,25s0-.01,0,0h0ZM22.22,27.53l-.41.71h1.62l.11-.19c.07-.13.13-.24.17-.31.06-.12.11-.2.19-.31l.24-.41.05-.07c.25-.35.51-.67.81-.97.31-.31.67-.58,1.1-.79l.09-.05c.07-.04.13-.07.24-.11.25-.1.8-.24.92-.32.04-.02.08-.03.16-.05.11-.03.28-.04.39-.06h.07c.76-.1,3.99-.08,5.75-.06h.97c.71,0,1.24,0,1.76-.01.63-.01,1.26-.02,1.74-.02h21.89c.49.03,1.14.05,1.22.04l.02-.04c.09-.16.15-.45.15-.74,0-.16-.02-.31-.07-.44-.03-.07-.06-.13-.09-.14-.01,0-.03-.01-.06-.01h-5.74c-.28,0-.6,0-.92-.02-.27,0-.54-.02-.91-.02h-25.58l-1.32.26c-.35.11-.57.19-.78.28-.22.09-.44.21-.78.39-.14.08-.3.19-.47.31-.23.17-.45.34-.62.49-.67.56-1.13,1.35-1.59,2.14l-.32.54ZM40.94,21.58v.04s0-.04,0-.04ZM36.66,11.49l.12.09c.27.2.33.43.39.68.1.37.21.75.32,1.12l.97,3.39c.02.06.03.1.04.13.02.05.03.09.05.16l.19.65c.14.46.21.7.2.93-.01.36-.14.5-.42.77-.49.5-.95,1.03-1.44,1.54l-.02.03c-.04.05-.06.08-.11.12-.06.05-.09.07-.16.1l-.13.07h4.26c-.01-.53-.02-1.59-.01-2.57,0-1.15.03-2.24.08-2.4.02-.05.05-.09.08-.13.17-.21.47-.26.71-.26.18,0,.41.06.43.07l.16.11c.23.22.21,3.07.2,4.49v.69s1.76,0,1.76,0v-.1c.02-.14.04-.29.01-.5-.02-.14-.03-.33-.04-.54,0-.22,0-.44.03-.64.03-.21.03-.73.02-1.15v-.38c0-.1-.01-.16-.02-.23-.01-.08-.02-.15-.02-.28-.01-.45,0-.91,0-1.35.02-.98.05-1.93-.21-2.6-.08-.22-.15-.36-.22-.48-.07-.12-.17-.24-.3-.4-.2-.23-.2-.23-.22-.25-.05-.03-.13-.09-.26-.19l-.66-.39c-.23-.1-.32-.12-.42-.15-.09-.03-.2-.05-.32-.09-.14-.05-.89-.04-1.61-.04-.59,0-1.17,0-1.5-.03h-1.93ZM35.16,18.56l-.03.08c.04.08.31.24.46.39.32.33.64.68.95,1.02.42-.45.83-.92,1.27-1.36.08-.08.12-.04.12-.08,0-.07-.05-.25-.16-.6-.05-.17-.11-.37-.2-.66l-.03-.1c-.02-.05-.04-.1-.06-.21l-.94-3.25c-.39,1.32-.93,3.59-1.38,4.78ZM34.09,18.62c0-.19.03-.26.08-.36.25-.57,1.02-3.54,1.25-4.35.03-.09.24-.81.4-1.39l.14-.54v-.5s-.12.01-.12.01c-.09.02-.53,0-1.11,0-1.14-.02-2.9-.04-3.32.03l-.72.23c-.15.05-.32.14-.49.25-.2.13-.38.27-.52.39l-.4.47-.3.57c-.1.3-.16.51-.2.72-.04.22-.05.46-.05.83v.99c-.02,1.56-.04,4.32,0,5.32.28,0,.69.01,1.09.01.29,0,.54,0,.7.01,0-.06,0-.13,0-.2l.03-.69c-.01-.05-.03-.12-.03-.24v-3.62c0-.55.21-.64.7-.64.04,0,.22,0,.27,0,.54,0,.65.35.65.76v.28s-.01,4.32-.01,4.32h.18c.12-.02.24-.03.4-.03h3.59c-.47-.51-.95-1.04-1.43-1.53-.27-.27-.76-.78-.76-1.13ZM32.11,5.25v.21c0,.11,0,.16,0,.22,0,.06.01.11.03.21l.04.23c.03.23.08.43.14.62.06.19.13.38.23.59.04.08.07.14.1.19.09.14.21.34.29.49.03.04.05.08.09.12l.11.13c.31.33.56.59.83.79.27.2.58.37,1.02.54.03,0,.17.06.19.06.66.22,1.33.27,1.98.17.67-.1,1.31-.35,1.9-.74l.2-.16c.28-.23.46-.39.6-.55.15-.16.28-.36.48-.67.3-.48.48-1.01.56-1.55.08-.58.05-1.19-.08-1.8l-.46-1.13c-.31-.51-.67-.92-1.08-1.24-.43-.34-.92-.59-1.5-.78-.34-.11-.78-.17-1.23-.17-.45,0-.89.05-1.22.16-.14.05-.27.09-.39.14-.12.05-.24.1-.37.16-.12.06-.23.11-.32.17-.09.06-.18.12-.27.19l-.87.81c-.2.23-.36.48-.49.75-.13.28-.24.58-.34.9l-.15.93ZM25.37,21.63l-1.08,1.8c.15-.11.3-.2.44-.28.37-.2.61-.33.87-.43.26-.11.51-.2.91-.32h.05s1.25-.26,1.25-.26l-.05-.22c-.1-.41-.07-4.03-.06-5.92v-.99c0-.42.02-.71.07-1,.05-.28.12-.54.25-.91l.03-.07.35-.67.06-.1.45-.53.04-.04c.18-.17.43-.37.69-.53.23-.15.48-.28.71-.36.28-.09.56-.19.83-.27.44-.09,2.06-.08,3.26-.06-.45-.19-.79-.38-1.1-.61-.34-.26-.62-.54-.97-.91-.05-.06-.1-.11-.16-.18-.05-.06-.1-.12-.15-.21-.12-.18-.22-.34-.32-.53-.05-.09-.09-.16-.15-.28-.11-.25-.2-.48-.27-.72-.07-.24-.12-.48-.17-.76l-.03-.22c-.02-.15-.03-.22-.04-.29,0-.07,0-.14,0-.29v-.26s0-.08,0-.08l.17-1.01.02-.07c.11-.36.24-.71.41-1.06.17-.36.39-.7.66-1.01l.94-.88.04-.03c.12-.09.24-.18.37-.25.14-.09.28-.17.43-.24.14-.06.28-.12.42-.18.14-.06.29-.11.45-.16C35.43.07,35.98,0,36.53,0c.55,0,1.11.07,1.55.22.7.23,1.3.54,1.82.95.52.41.97.92,1.35,1.55l.04.07.49,1.22.03.08c.16.74.2,1.48.1,2.2-.1.68-.33,1.34-.71,1.95-.22.36-.39.59-.59.81-.2.22-.4.4-.7.65-.09.07-.18.15-.27.22-.33.22-.67.4-1.02.55h.07c.29.03.85.03,1.42.03.81,0,1.64,0,1.94.09.13.04.2.06.26.08.16.04.29.08.6.22l.05.03.72.42.07.05c.13.11.17.14.2.15h0c.13.09.14.09.43.44.17.2.29.35.39.52.11.18.2.37.3.64.33.85.3,1.9.27,2.99-.01.43-.02.87,0,1.3,0,.06,0,.12.02.17.01.1.03.19.03.37v.37c0,.46.01,1.04-.03,1.31-.02.14-.02.3-.02.45,0,.16.02.33.04.46.03.3.01.52,0,.71v.14c0,.05,0,.12,0,.19,0,.18-.03.36-.14.49h1.56c-.03-.08-.04-.16-.04-.26v-.55c-.01-.42.06-.73.36-.85-.33-.05-.52-.22-.52-.63V3c0-.19.05-.33.18-.46.13-.13.27-.18.46-.18h.29c.46-.02.92-.03,1.3.19.3.17.46.44.55.75.07.25.08.5.08.72h0s.09,0,.14,0c.41,0,.89.77,1.01.96.36.71,1.47,2.11,2.03,2.91.21.29.21.35.2.7v.07c0,.52,0,1.04,0,1.56v.39c.22.1.42.19.64.29.22.1.5.28.78.48.3.21.59.45.77.63l.2.2c.28.28.51.6.71.93.19.32.35.67.49,1,.15.38.22.75.3,1.15l.07.35c.07.35.05,1.34.03,2.39-.02.88-.04,1.82,0,2.37h3.12l.09.4c.02.1.07.41.07.69,0,.15-.01.3-.05.43-.02.07-.04.13-.08.18h1.31c.21,0,.4.05.56.14.27.15.45.39.56.69.09.24.13.52.13.79,0,.46-.11.94-.28,1.24,0,0,0,0,0,0l-.09.15c-.06.07-.11.13-.18.19-.32.26-1.23.22-1.9.2-.15,0-.29-.01-.46-.01h-21.4c-.7,0-1.21,0-1.72.02-.63.01-1.27.02-1.78.02h-.98c-1.73-.02-4.9-.04-5.63.04h-.08c-.08.02-.21.03-.25.04h-.02s-.08.04-.15.06l-.64.21-.13.05-.27.13c-.33.17-.6.37-.84.6-.25.25-.48.53-.7.84-.07.12-.32.49-.38.63-.05.1-.12.23-.21.38l-.42.7h-5.11l1.71-2.9c-.21,0-.41-.13-.62-.46l-.83-1.16c-.12-.16-.23-.29-.27-.53h-6.46c-.19,0-.39-.04-.57-.1-.17-.05-.32-.11-.43-.16-.13-.06-.26-.12-.39-.19-.14-.08-.27-.18-.4-.3-.09-.09-.17-.18-.24-.26l-.77,3.4c-.03.09-.05.19-.07.29-.02.1-.03.2-.03.3.03.76.04,1.32.01,2.06H1.69l-.21-.22c-.09-.09-.2-.21-.34-.36-.17-.21-.39-.5-.53-.72-.19-.3-.34-.66-.44-1.06-.1-.38-.16-.79-.16-1.18,0-.2.1-.71.23-1.31.2-.93.5-2.1.6-2.52l.02-.11c.01-.07.03-.15.05-.24.02-.08.03-.1.05-.2v-.05c.03-.11.05-.17.07-.23l.03-.08c.06-.25.1-.44.14-.64.06-.28.12-.57.2-.87l.28-1.22c.03-.15.06-.27.09-.4.19-.78.36-1.57.55-2.35l.06-.3c.02-.1.05-.22.08-.34.02-.08.04-.16.06-.26.24-.81.42-1.79.61-2.62.13-.59.26-1.2.64-1.71l.09-.13c.07-.1.14-.21.25-.32.74-.84,1.8-1.32,2.91-1.46.81-.1,1.65-.01,2.42.26-.09-.24-.18-.52-.26-.85-.03-.13-.06-.31-.08-.5-.02-.22-.03-.44-.03-.6,0-.4.05-.79.13-1.15.09-.41.22-.78.36-1.1.08-.17.16-.32.24-.46.08-.14.17-.28.26-.41.2-.29.44-.54.69-.79.27-.28.58-.52.92-.73.35-.22.73-.39,1.12-.53.62-.22,1.29-.31,1.95-.29.67.03,1.34.17,1.93.43.15.06.39.17.53.25.22.12.43.25.63.4.21.16.41.33.59.51l.03.03c.16.17.32.35.47.55.14.19.28.4.39.61.09.17.2.37.27.54.08.19.15.39.22.6.06.21.12.44.16.68.1.61.1,1.22,0,1.79-.1.6-.3,1.16-.58,1.67l-.3.48c-.32.52-.74.96-1.23,1.31-.54.4-1.16.69-1.78.89-.41.14-.85.2-1.29.22-.48.02-.97-.03-1.42-.12-.23-.05-.46-.12-.69-.2l-.1-.04c.07.27.11.54.11.81.01.49-.06.96-.17,1.48-.09.45-.17.72-.23.9l-.04.12s.03.04.11.19c.71,1.43,1.5,2.83,2.25,4.25h3.25c-.07-.36-.15-.74-.24-1.1-.02-.08-.04-.15-.05-.21-.03-.09-.05-.18-.07-.29l-.11-.51c-.1-.42-.2-.83-.28-1.26v-.03c-.04-.09-.07-.16-.07-.33,0-.51.63-.64,1-.72l.11-.02c1.2-.32,1.38-.27,1.53.33.23,1.09.48,2.24.75,3.32.04.21.09.38.13.52.03.12.06.23.08.32.62.07,1.1.35,1.45.75.19.22.34.47.44.74.1.27.15.55.15.84,0,.66-.25,1.34-.8,1.81l-.09.07-.09.06-.18.09v.09c-.03.38-.12.77-.19,1.14l.9-1.52c.18-.32.43-.75.61-.96l.63-1.06.15-.25c.21-.37.49-.87.69-1.05l.21-.18.26.07c.1.03.19.07.28.12l.19.12c.36.24.36.28.36.7v.41s-.23.08-.23.08ZM6.61,11.8c-.14.21-.21.48-.21.8,0,.21.23.63.41.97.46.87.92,1.73,1.38,2.6.03.05.06.11.1.18l3,5.65c.1.21.29.41.5.56.2.14.42.23.6.23h8.1s.08-.01.13-.03c.08-.03.17-.06.23-.1l.05-.02c.06-.05.12-.11.16-.2.1-.17.15-.38.14-.6,0-.21-.06-.41-.18-.57-.06-.08-.13-.14-.22-.2-.1-.05-.12-.06-.21-.07l-6.12-.03c-.71,0-.73-.02-1.03-.59-1.26-2.36-2.51-4.73-3.76-7.1-.2-.39-.41-.78-.61-1.16l-.06-.13c-.2-.37-.47-.64-.78-.76-.29-.11-.62-.11-.95.05-.3.14-.52.31-.66.53ZM5.37,12.6c0-.53.13-.98.38-1.37.25-.38.62-.68,1.09-.9.6-.28,1.21-.28,1.75-.07.54.21,1,.64,1.32,1.24.16.34.35.66.52.99.04.06.06.12.09.17.29.56.59,1.12.88,1.67.03-.12.07-.28.11-.47.09-.46.16-.87.15-1.25,0-.36-.09-.71-.29-1.1l-.11-.23s-.05-.08-.08-.12c-.1-.14-.21-.27-.26-.48l-.08-.29-.29-.08c-.18-.05-.4-.2-.59-.32l-.15-.1c-.78-.47-1.75-.65-2.67-.53-.87.11-1.7.48-2.27,1.12-.05.06-.11.14-.16.22l-.12.17c-.25.33-.36.84-.46,1.32l-.6,2.61c-.01.08-.05.2-.08.32-.02.09-.05.18-.06.26l-.07.34c-.02.11-.05.21-.08.32l-.48,2.05c-.03.12-.06.23-.08.37-.07.37-.19.91-.3,1.27-.08.28-.14.55-.19.82-.05.24-.1.48-.15.69l-.04.14s-.02.08-.03.12v.05c-.03.12-.04.15-.08.3l-.03.13c0,.06-.02.11-.04.19-.1.41-.39,1.56-.59,2.49-.12.53-.2.97-.2,1.09,0,.31.04.62.12.92.07.28.18.54.3.74l.47.63.19.21h6.43l-.04-1.03c0-.17.02-.33.04-.48.03-.14.06-.28.09-.4l1.13-5c-1.29-2.42-2.58-4.84-3.86-7.27-.24-.44-.54-.99-.54-1.46Z"/>
  </g>
</svg>