<?xml version="1.0" encoding="UTF-8"?>
<svg id="Layer_2" data-name="Layer 2" xmlns="http://www.w3.org/2000/svg" viewBox="0 0 24.78 32.18">
  <defs>
    <style>
      .cls-1 {
        fill: #3d1412;
      }
    </style>
  </defs>
  <g id="Layer_1-2" data-name="Layer 1">
    <path class="cls-1" d="M23.25,31.23h-1.89v-3.82c0-.26-.21-.47-.47-.47s-.47.21-.47.47v3.82h-5.92l-.91-6.51.63-.73.14.06c.14.06.29.09.44.09.35,0,.69-.17.9-.47l2.16-3.02,2.72.51c.14.04.28.09.42.15-.5.56-.54,1.41-.05,2.01l.51.64c.26.32.63.53,1.04.57.06,0,.11,0,.17,0,.35,0,.69-.12.96-.34.13.43.2.88.2,1.34v5.11c0,.32-.26.59-.59.59M11.24,31.23l.86-6.18h.59l.86,6.18h-2.31ZM10.05,23.19c-.08.03-.16,0-.21-.06l-1.9-2.66.49-.09s.05,0,.08.02l.12.09s0,0,0,0l2.82,2.1-1.4.6ZM8.95,16.79c-.97-.83-1.54-2.08-1.56-3.42,0-.26-.22-.46-.47-.46h-.38c-.29,0-.52-.23-.52-.52v-1.1c0-.16.07-.3.19-.4.17.01.48.06.74.23,0,0,0,0,0,0,.04.02.07.05.11.08,0,0,0,0,.01.01.02.01.03.03.05.05.01.01.03.03.04.04,0,0,0,0,.01.01.01,0,.02.02.03.03,0,0,0,0,.01,0,.02.01.03.02.05.03,0,0,0,0,0,0,.02,0,.03.02.05.02,0,0,0,0,.01,0,.01,0,.03,0,.04.01,0,0,.01,0,.02,0,.02,0,.04,0,.05.01,0,0,0,0,0,0,.02,0,.04,0,.06,0,0,0,.01,0,.02,0,.01,0,.03,0,.04,0,0,0,0,0,0,0,0,0,0,0,0,0,.02,0,.04,0,.06,0h0s.04,0,.06,0c0,0,.01,0,.02,0,.01,0,.03,0,.04-.01,0,0,.01,0,.02,0,.02,0,.04-.01.06-.02.24-.1.4-.34.4-.6v-1.13c1.21.38,2.71.58,4.16.58s2.95-.2,4.16-.58v1.13c0,.26.16.5.4.6.02,0,.04.01.06.02,0,0,.01,0,.02,0,.01,0,.03,0,.04.01,0,0,.01,0,.02,0,.04,0,.08.01.11.01,0,0,0,0,0,0,0,0,0,0,0,0,.01,0,.03,0,.04,0,0,0,0,0,.01,0,.04,0,.07-.01.11-.02,0,0,0,0,.01,0,.01,0,.03,0,.04-.01,0,0,0,0,.01,0,.02,0,.03-.02.05-.02,0,0,0,0,0,0,.02,0,.03-.02.05-.03,0,0,0,0,.01,0,.01,0,.02-.02.03-.03,0,0,0,0,.01-.01.02-.01.03-.03.04-.04.02-.02.03-.03.05-.04,0,0,0,0,.01-.01.02-.01.03-.03.05-.04,0,0,0,0,0,0,.02-.01.04-.02.05-.04,0,0,0,0,.01,0,.02-.01.03-.02.05-.03,0,0,0,0,0,0,.02-.01.04-.02.06-.03,0,0,0,0,.01,0,.02,0,.03-.02.05-.02,0,0,0,0,0,0,.02,0,.04-.02.06-.02,0,0,0,0,.01,0,.02,0,.04-.01.05-.02,0,0,0,0,0,0,.02,0,.04-.01.06-.02,0,0,0,0,0,0,.14-.04.28-.06.36-.07.12.1.19.24.19.4v1.1c0,.29-.23.52-.52.52h-.38c-.26,0-.47.2-.47.46-.03,1.34-.6,2.59-1.56,3.42-1,.86-2.16,1.31-3.44,1.32-1.28-.02-2.44-.46-3.44-1.32ZM17.49,9.31c.29-.14.53-.28.74-.42v1.1c-.21.04-.48.11-.74.25v-.92ZM7.29,9.31v.92c-.26-.13-.52-.21-.74-.25v-1.1c.2.14.45.29.74.42ZM7.24,8.22s-.01,0-.02-.01c-.03-.02-.06-.04-.09-.06-.01,0-.02-.02-.03-.02-.02-.02-.05-.03-.07-.05-.02-.01-.03-.02-.04-.03-.02-.01-.03-.03-.05-.04-.02-.01-.03-.03-.05-.04-.01-.01-.02-.02-.04-.03-.02-.02-.04-.04-.05-.05,0,0-.02-.02-.02-.03,0,0,0,0,0,0h7.92c.26,0,.47-.21.47-.47s-.21-.47-.47-.47H6.55v-1.21c0-.23.15-.43.37-.49,1.29-.36,3.23-.79,5.16-.79h0c2.26,0,4.57.51,5.75.81.23.06.39.26.39.5v1.19h-1.26c-.26,0-.47.21-.47.47s.21.47.47.47h1.04s0,0,0,0c0,0-.02.02-.02.03-.02.02-.03.04-.05.05-.01.01-.02.02-.04.03-.02.01-.03.03-.05.04-.02.01-.03.03-.05.04-.01.01-.03.02-.04.03-.02.02-.04.03-.07.05-.01,0-.02.02-.03.02-.03.02-.06.04-.09.06,0,0-.01,0-.02.01-.2.12-.43.24-.7.35,0,0-.01,0-.02,0-1.01.42-2.53.73-4.43.73s-3.42-.31-4.43-.73c0,0-.01,0-.02,0-.27-.11-.5-.23-.7-.35ZM5.61,6.56c-.61-.37-.93-.79-.93-1.19,0-.85,1.14-2.01,2.19-2.72.94-.64,2.91-1.7,5.52-1.7s4.58,1.07,5.52,1.7c1.05.71,2.19,1.87,2.19,2.72,0,.41-.33.82-.93,1.19v-.86c0-.67-.45-1.25-1.1-1.41-1.22-.31-3.62-.84-5.98-.84h0c-2.04,0-4.07.45-5.42.83-.63.18-1.06.75-1.06,1.4v.87ZM13.31,23.61l-.43.5h-.98l-.43-.5.92-.39.92.39ZM12.39,22.12l-2.75-2.05c.26-.34.42-.77.42-1.21v-.28c.73.3,1.5.46,2.33.47h.01c.82,0,1.6-.17,2.33-.47v.28c0,.43.16.87.42,1.21l-2.75,2.05ZM16.14,20.49s0,0,0,0l.12-.09s.05-.02.08-.02l.49.09-1.9,2.66c-.05.07-.13.09-.21.06l-1.4-.6,2.82-2.1ZM21.77,21.87l.1-.08c.21.15.41.31.59.49,0,0,0,0,.01.01.05.05.1.1.14.15.01.02.03.03.04.05.05.05.09.11.14.16.01.01.02.03.03.04.04.05.08.1.12.15.01.02.03.04.04.05.04.06.08.12.12.18,0,0,0,0,0,0,.05.07.09.15.13.22l-.2.16c-.13.1-.29.15-.45.13-.16-.02-.31-.1-.41-.22l-.51-.64c-.21-.26-.17-.65.09-.86ZM3.1,22.73l-.51.64c-.1.13-.25.21-.41.22-.16.02-.32-.03-.45-.13l-.2-.16c.04-.08.09-.15.13-.22,0,0,0,0,0,0,.04-.06.08-.12.12-.18.01-.02.03-.04.04-.05.04-.05.08-.1.12-.15.01-.01.02-.03.03-.04.04-.06.09-.11.14-.16.01-.02.03-.03.04-.05.05-.05.09-.1.14-.15,0,0,0,0,.01-.01.18-.18.38-.34.59-.49l.1.08c.13.1.21.25.22.41.02.16-.03.32-.13.45ZM16.51,28.86v-.98h2.14v.98h-2.14ZM18.83,26.94h-2.48c-.42,0-.77.35-.77.77v1.32c0,.42.35.77.77.77h2.48c.42,0,.77-.35.77-.77v-1.32c0-.42-.35-.77-.77-.77ZM8.26,28.86h-2.14v-.98h2.14v.98ZM8.44,26.94h-2.48c-.42,0-.77.35-.77.77v1.32c0,.42.35.77.77.77h2.48c.42,0,.77-.35.77-.77v-1.32c0-.42-.35-.77-.77-.77ZM23.98,22.69s0-.01-.01-.02c-.03-.04-.05-.09-.08-.13-.02-.02-.03-.05-.05-.07-.02-.03-.04-.06-.06-.09-.03-.04-.05-.07-.08-.11,0-.01-.02-.02-.02-.03,0,0-.01-.01-.02-.02-.03-.04-.07-.08-.1-.13-.01-.01-.02-.03-.04-.04-.03-.04-.07-.08-.1-.12-.01-.02-.03-.03-.04-.05-.03-.03-.06-.06-.09-.1-.02-.02-.04-.05-.07-.07-.02-.02-.03-.03-.05-.05-.65-.66-1.45-1.14-2.36-1.41-.02,0-.03,0-.05-.01,0,0-4.26-.79-4.26-.79,0,0-.02,0-.02,0-.2-.03-.4,0-.59.07-.15-.18-.25-.43-.25-.66v-.77c.27-.17.53-.37.78-.58,1.06-.91,1.72-2.22,1.86-3.65.78-.04,1.39-.68,1.39-1.46v-1.1c0-.44-.2-.86-.53-1.13v-2.53c1.54-.76,1.88-1.64,1.88-2.27,0-1.07-1-2.41-2.6-3.5-1.03-.7-3.18-1.87-6.05-1.87s-5.02,1.17-6.05,1.87c-1.61,1.09-2.6,2.43-2.6,3.5,0,.62.33,1.51,1.88,2.27v2.53c-.34.27-.53.69-.53,1.13v1.1c0,.78.62,1.43,1.39,1.46.14,1.43.81,2.74,1.86,3.65.25.22.51.41.78.58v.77c0,.23-.1.48-.25.66-.19-.08-.4-.11-.61-.07l-4.26.79s-.03,0-.05.01c-.9.27-1.7.75-2.35,1.4-.02.02-.04.03-.05.05-.02.02-.04.05-.06.07-.03.03-.06.06-.09.1-.01.02-.03.03-.04.05-.03.04-.07.08-.1.12-.01.01-.02.03-.03.04-.03.04-.07.08-.1.13,0,0-.01.01-.02.02,0,.01-.02.02-.02.03-.03.04-.05.07-.08.11-.02.03-.04.06-.06.09-.02.02-.03.05-.05.07-.03.04-.06.09-.08.13,0,0,0,.01-.01.02-.52.86-.79,1.83-.79,2.85v.57c0,.26.21.47.47.47s.47-.21.47-.47v-.57c0-.46.07-.91.2-1.34.28.22.61.34.96.34.06,0,.11,0,.17,0,.41-.04.78-.25,1.04-.57l.51-.64c.26-.32.38-.73.34-1.14-.04-.33-.17-.63-.39-.87.14-.06.27-.1.42-.15l2.72-.51,2.16,3.02c.22.3.55.47.9.47.15,0,.3-.03.44-.09l.14-.06.63.73-.91,6.51h-5.92v-3.82c0-.26-.21-.47-.47-.47s-.47.21-.47.47v3.82h-1.89c-.32,0-.59-.26-.59-.59v-2.34c0-.26-.21-.47-.47-.47S0,28.05,0,28.31v2.34c0,.84.69,1.53,1.53,1.53h21.72c.84,0,1.53-.69,1.53-1.53v-5.11c0-1.02-.27-1.99-.79-2.85Z"/>
  </g>
</svg>