<?xml version="1.0" encoding="UTF-8"?>
<svg id="Layer_2" data-name="Layer 2" xmlns="http://www.w3.org/2000/svg" viewBox="0 0 26.97 31.82">
  <defs>
    <style>
      .cls-1 {
        fill: #3d1412;
      }
    </style>
  </defs>
  <g id="Layer_1-2" data-name="Layer 1">
    <path class="cls-1" d="M13.72,30.76h-5.3v-.53c0-.29.24-.53.53-.53h4.24c.29,0,.53.24.53.53v.53ZM10.01,19.62h2.12v9.01h-2.12v-9.01ZM10.01,16.97h2.12v1.59h-2.12v-1.59ZM10.54,9.01c0-.29.24-.53.53-.53s.53.24.53.53v6.89h-1.06v-6.89h0ZM17.96,3.18h4.24v.53c0,.29-.24.53-.53.53h-3.18c-.29,0-.53-.24-.53-.53v-.53ZM17.96,1.06h3.71c.29,0,.53.24.53.53v.53h-4.24v-1.06h0ZM23.26,30.76h-8.48v-.53c0-.88-.71-1.59-1.59-1.59v-11.67c0-.38-.2-.73-.53-.91v-7.04c0-.67-.43-1.27-1.06-1.49V3.18c0-1.17.95-2.12,2.12-2.12h3.18v2.65c0,.88.71,1.59,1.59,1.59h3.18c.88,0,1.59-.71,1.59-1.59V1.59c0-.88-.71-1.59-1.59-1.59h-7.95c-1.76,0-3.18,1.43-3.18,3.18v4.34c-.63.22-1.06.82-1.06,1.49v7.04c-.33.19-.53.54-.53.91v11.67c-.88,0-1.59.71-1.59,1.59v.53H.53c-.29,0-.53.24-.53.53s.24.53.53.53h22.73c.29,0,.53-.24.53-.53s-.24-.53-.53-.53ZM16.9,5.83c0-.14-.06-.28-.16-.37-.1-.1-.23-.16-.37-.16s-.28.06-.37.16l-1.59,1.59c-.14.13-.19.33-.14.51.05.18.19.33.38.38.18.05.38,0,.51-.14l1.59-1.59c.1-.1.16-.23.16-.37ZM25.01,7.8c.1.1.23.16.38.16.21,0,.41-.13.49-.33.08-.2.04-.43-.11-.58l-1.59-1.59c-.21-.2-.54-.2-.75,0-.21.21-.21.54,0,.75l1.59,1.59ZM16.66,9.49c.26.13.58.02.71-.24l1.06-2.12c.09-.17.07-.37-.03-.53-.1-.16-.29-.25-.48-.24-.19.01-.36.12-.44.29l-1.06,2.12c-.06.13-.07.27-.03.4.04.13.14.24.27.31ZM19.55,6.89v2.12c0,.29.24.53.53.53s.53-.24.53-.53v-2.12c0-.29-.24-.53-.53-.53s-.53.24-.53.53ZM22.37,6.39c-.13-.04-.28-.03-.4.03-.13.06-.22.17-.27.31-.04.13-.03.28.03.4l1.06,2.12c.13.26.45.37.71.24.26-.13.37-.45.24-.71l-1.06-2.12c-.06-.13-.17-.22-.31-.27ZM26.44,30.76h-1.06c-.29,0-.53.24-.53.53s.24.53.53.53h1.06c.29,0,.53-.24.53-.53s-.24-.53-.53-.53Z"/>
  </g>
</svg>