<?xml version="1.0" encoding="UTF-8"?>
<svg id="Layer_2" data-name="Layer 2" xmlns="http://www.w3.org/2000/svg" viewBox="0 0 32.75 24.03">
  <defs>
    <style>
      .cls-1 {
        fill: #3d1412;
        fill-rule: evenodd;
      }
    </style>
  </defs>
  <g id="Layer_1-2" data-name="Layer 1">
    <path class="cls-1" d="M3.13,17.35c.19-.11.38-.22.57-.32,2.6-1.46,5.2-2.91,7.8-4.37.92-.51,1.07-1.1.54-1.97-.44-.73-.88-1.46-1.31-2.19-.56-.96-.22-2.02.83-2.5,3.63-1.64,7.26-3.27,10.89-4.9.66-.3,1.4-.19,1.84.39.38.5.36,1.23-.09,1.69-.17.17-.4.3-.62.41-2.52,1.21-5.05,2.41-7.58,3.61-.98.46-1.18,1.18-.56,2.04,1.72,2.38,3.45,4.77,5.17,7.15.11.15.21.29.31.44l.19.26-.31.11c-.07.03-.15.05-.22.08-.61.24-1.27.43-1.84.74-1.58.85-3.15.88-4.72-.02-1.94-1.11-3.86-1.14-5.81-.03-1.7.97-3.38.9-5.03-.12-.08-.05-.09-.1-.13-.16l-.13-.21.22-.13ZM11.2,11.72c-.12.07-.24.15-.36.21-2.92,1.63-5.83,3.26-8.74,4.9-.46.26-.9.43-1.45.36-.34-.04-.63.1-.65.45-.02.34.31.49.62.5.81,0,1.55.25,2.24.64,1.98,1.13,3.93,1.11,5.9-.02,1.54-.88,3.12-.87,4.65.01,1.99,1.14,3.95,1.12,5.93-.02,1.51-.86,3.08-.87,4.59,0,1.99,1.14,3.94,1.17,5.93.03.69-.4,1.42-.63,2.24-.64.32,0,.62-.14.63-.48,0-.35-.32-.48-.64-.47-1.04.02-1.98.35-2.87.85-1.57.9-3.15.82-4.72-.06-.54-.3-1.18-.46-1.75-.7-.21-.09-.44-.2-.58-.39-1.96-2.71-3.91-5.42-5.86-8.13-.07-.09-.12-.19-.18-.28l-.14-.23.25-.12c1.07-.51,2.14-1.02,3.21-1.53,1.56-.74,3.12-1.47,4.67-2.23,1.01-.49,1.61-1.5,1.35-2.57-.38-1.55-2.04-2.2-3.52-1.54-3.59,1.61-7.18,3.23-10.76,4.85-1.68.76-2.21,2.4-1.31,3.94.46.78.92,1.56,1.39,2.34l.12.21-.21.13ZM26.58,24.02c1.23,0,2.29-.2,3.33-.83.68-.42,1.43-.62,2.24-.64.3,0,.62-.15.6-.48-.02-.32-.31-.45-.61-.45-.97,0-1.86.24-2.67.73-1.64.97-3.28.97-4.94.05-1.96-1.09-3.89-1.05-5.82.06-.26.15-.52.29-.81.38-1.34.43-2.64.32-3.85-.39-1.97-1.15-3.92-1.14-5.9,0-.26.15-.52.29-.81.39-1.34.43-2.65.35-3.86-.38-.91-.55-1.9-.87-2.98-.82-.26.01-.48.21-.48.47,0,.24.2.45.46.45.98.01,1.84.32,2.66.81,1.06.64,2.24.78,3.46.63.77-.09,1.47-.38,2.13-.76,1.55-.91,3.16-.93,4.72,0,1.32.78,2.72,1.02,4.23.66.59-.14,1.15-.42,1.67-.7,1.54-.81,3.1-.85,4.63,0,.72.41,1.76.84,2.61.84ZM26.81,14.96c-2.29,0-4.13-1.74-4.13-3.92,0-2.22,1.85-3.95,4.18-3.94,2.3,0,4.1,1.79,4.09,3.96,0,2.18-1.85,3.91-4.14,3.91ZM26.79,15.92c2.83.01,5.16-2.16,5.18-4.85.02-2.72-2.31-4.93-5.16-4.93-2.77,0-5.11,2.2-5.13,4.84-.02,2.7,2.27,4.94,5.11,4.95Z"/>
  </g>
</svg>