<?xml version="1.0" encoding="UTF-8"?>
<svg id="Layer_2" data-name="Layer 2" xmlns="http://www.w3.org/2000/svg" viewBox="0 0 31.1 31.1">
  <defs>
    <style>
      .cls-1 {
        fill: #3d1412;
      }
    </style>
  </defs>
  <g id="Layer_1-2" data-name="Layer 1">
    <path class="cls-1" d="M19.93,20.18v-1.53l.11-.07c.1-.07.2-.14.3-.21l.29-.22.15-.06h8.96v2.34h-9.81v-.25ZM17.73,25.14c-.33.33-.58.71-.75,1.12-.14.34-.23.7-.25,1.08h1.36c.02-.19.07-.38.14-.56.1-.25.26-.48.46-.68.2-.2.43-.35.68-.45.25-.1.52-.16.8-.16.45,0,.87.14,1.21.38.35.25.63.61.77,1.02l.16.45h.64c.64,0,1.24.22,1.74.58.51.37.9.9,1.11,1.5l.11.33H5.18l.11-.33c.21-.6.61-1.13,1.11-1.5.49-.36,1.1-.58,1.74-.58h.64l.16-.45c.14-.41.42-.76.77-1.02.34-.24.75-.38,1.21-.38.28,0,.55.06.8.16.25.1.48.26.68.46.2.2.35.43.45.68.07.18.12.36.15.56h1.36c-.03-.38-.11-.74-.25-1.08-.17-.41-.42-.79-.75-1.12-.11-.11-.22-.21-.34-.3-.12-.09-.25-.18-.38-.25l-.12-.07v-12.67c0-.83.34-1.59.89-2.14.55-.55,1.3-.89,2.14-.89s1.59.34,2.14.89c.55.55.89,1.3.89,2.14v12.67l-.12.07c-.13.08-.26.16-.38.25-.12.09-.23.19-.34.3ZM1.36,20.18v-2.1h8.96l.15.06.29.22c.1.07.2.14.3.21l.11.07v1.78H1.36v-.25ZM15.55,7.47c-1.21,0-2.3.49-3.1,1.28-.79.79-1.28,1.89-1.28,3.1v4.53l-.42.17c-.61-.62-1.09-1.36-1.42-2.17-.32-.8-.5-1.65-.5-2.53,0-1.85.75-3.53,1.97-4.75,1.22-1.22,2.9-1.97,4.75-1.97s3.53.75,4.75,1.97c1.22,1.22,1.97,2.9,1.97,4.75,0,.88-.18,1.74-.5,2.53-.33.81-.81,1.54-1.42,2.17l-.42-.17v-4.53c0-1.21-.49-2.3-1.28-3.1-.79-.79-1.89-1.28-3.1-1.28ZM29.74,1.6v15.12h-7.73l.26-.38c.44-.66.79-1.39,1.02-2.15.23-.75.35-1.54.35-2.34,0-2.23-.91-4.25-2.37-5.71-1.46-1.46-3.48-2.37-5.71-2.37s-4.25.91-5.71,2.37c-1.46,1.46-2.37,3.48-2.37,5.71,0,.81.12,1.59.35,2.34.23.76.58,1.49,1.02,2.15l.26.38H1.36V1.36h28.38v.25ZM14.87,16.23h1.36v-3.21h-1.36v3.21ZM14.87,19.93h1.36v-1.36h-1.36v1.36ZM27.89,27.33h1.36v-1.36h-1.36v1.36ZM1.85,25.48h1.36v-1.36h-1.36v1.36ZM31.1,0H0v21.78h11.17v2.34h-.25c-.64,0-1.23.17-1.74.46-.53.31-.97.75-1.27,1.28l-.06.11h-.13c-.51.06-1,.2-1.45.42-.45.22-.87.52-1.24.89-.31.31-.56.66-.76,1.04-.2.38-.35.78-.43,1.21l-.04.2H0v1.36h31.1v-1.36h-3.81l-.04-.2c-.08-.42-.23-.83-.43-1.21-.2-.38-.45-.73-.76-1.04-.37-.37-.78-.67-1.24-.89-.45-.22-.94-.36-1.45-.41h-.13s-.06-.12-.06-.12c-.31-.54-.75-.98-1.27-1.28-.51-.3-1.11-.47-1.74-.47h-.25v-2.34h11.17V0Z"/>
  </g>
</svg>