<?xml version="1.0" encoding="UTF-8"?>
<svg id="Layer_2" data-name="Layer 2" xmlns="http://www.w3.org/2000/svg" viewBox="0 0 28.74 28.74">
  <defs>
    <style>
      .cls-1 {
        fill: #3d1412;
      }
    </style>
  </defs>
  <g id="Layer_1-2" data-name="Layer 1">
    <path class="cls-1" d="M6.5,14.79c1.7-.7,3.93,1.5,3.94,1.5l.33.32-.27.37c-.28.38-1.84,1.31-3.22,2.13-.83.49-1.59.95-1.91,1.18l-.66-.8c1.54-1.46,1.47-4.19,1.47-4.2v-.36s.32-.14.32-.14ZM9.28,16.66c-.51-.42-1.38-1.02-2.07-.98-.03.55-.14,1.55-.52,2.57l.06-.03c.95-.56,1.99-1.18,2.54-1.56ZM15.68,7.21c-.04.69.56,1.56.98,2.07.37-.55.99-1.59,1.56-2.54l.03-.06c-1.01.38-2.02.49-2.57.52ZM16.29,10.44s-2.2-2.24-1.5-3.94l.14-.33h.36s2.73.08,4.2-1.46l.8.66c-.23.32-.68,1.09-1.18,1.91-.82,1.38-1.75,2.95-2.13,3.22l-.37.27-.32-.33ZM19.67,13.3c-.08-1.05,0-2.92,1.31-4.56-.97.92-2.04,1.82-3.18,2.63.35.55,1.06,1.51,1.87,1.93ZM23.66,23.66c.27.33.61.66.97.97-.31-.36-.63-.69-.97-.97ZM11.37,17.8c-.81,1.14-1.7,2.21-2.63,3.18,1.64-1.3,3.5-1.39,4.55-1.31-.42-.82-1.38-1.52-1.93-1.87ZM5.55,10.12c.41-.45.31-1.15.2-1.57-.78.07-1.05-.03-1.32-.14-.06-.02-.12-.05-.16-.06-.25-.06-.85.11-.85.11l-.15.02c-1.84-.02-2.84-2.05-2.85-2.06l-.25-.47.47-.24c.24-.12.49-.15.73-.14-.4-.38-.63-.75-.76-1.1-.3-.81-.01-1.46.22-1.79.11-.16-.45-1.6-.45-1.61l-.4-1.07,1.07.4s1.45.56,1.61.45c.33-.23.98-.52,1.79-.22.34.13.71.36,1.1.76,0-.24.02-.5.14-.73l.24-.47.47.25s2.04,1,2.06,2.85l-.02.15s-.17.61-.11.85c.01.05.03.1.06.16.11.27.21.54.14,1.32.42.11,1.12.2,1.57-.2.16-.65.91-3,3.28-3.63,2.48-.66,11.38-.97,11.4-.97h.08s2.13.31.51,2.79l.06-.05s2.48-1.58,2.87,1.38c.29,2.18-1.28,14.41-1.34,14.83-.02.18-.34,4.09,1.57,6.91l.19.27-.17.28s-.24.44-.75.44c0,.51-.44.75-.44.75l-.28.17-.27-.19c-2.82-1.92-6.72-1.59-6.91-1.57-.42.05-12.66,1.62-14.83,1.34-2.96-.39-1.39-2.86-1.38-2.87l.05-.06c-2.48,1.63-2.78-.5-2.78-.5v-.08s.3-8.92.96-11.4c.63-2.37,2.98-3.12,3.63-3.28ZM6.6,7.78s.88,2.04-.44,3.2l-.25.12s-2.41.45-2.97,2.56c-.6,2.27-.91,10.33-.93,11.11.04.1.28.49,1.69-.63,1.14-.9,2.4-1.97,3.64-3.2,1.23-1.22,2.43-2.61,3.46-4.14l.26-.39.42.22s2.93,1.6,3.07,3.62l.05.71-.7-.17s-2.58-.66-4.64,1.11c-2.44,2.1-4.35,3.82-4.71,4.15-.12.22-.49,1.06.67,1.22,2.08.28,14.54-1.33,14.57-1.34h.02s3.06-.3,5.93.86l-.19-.14c-1.33-.99-3.3-2.45-3.55-4.08l-.11-.7.7.11c1.63.25,3.09,2.22,4.08,3.55l.14.19c-1.16-2.86-.87-5.91-.87-5.93v-.02s1.61-12.49,1.34-14.57c-.15-1.16-1-.79-1.22-.67-.33.36-2.06,2.27-4.15,4.71-1.77,2.06-1.11,4.63-1.11,4.64l.17.7-.71-.05c-2.03-.14-3.62-3.06-3.62-3.07l-.22-.42.39-.26c1.53-1.03,2.91-2.24,4.14-3.47,1.23-1.24,2.3-2.5,3.2-3.64,1.11-1.41.73-1.65.63-1.69-.78.03-8.84.33-11.11.93-2.11.56-2.56,2.97-2.56,2.97l-.12.25c-1.16,1.32-3.19.44-3.2.44l-.38-.15.06-.4c.12-.85.05-1.04-.03-1.23-.03-.08-.06-.16-.09-.28-.11-.43.03-1.09.09-1.32-.04-.58-.42-1.05-.79-1.37.03.32.03.59-.2.82-.53.53-1.13.02-1.13.01l-.13-.13c-.4-.56-.77-.83-1.08-.95-.39-.14-.68-.01-.84.09-.34.23-1.01.14-1.58,0,.15.57.24,1.24,0,1.58-.11.15-.24.45-.09.84.11.31.39.67.95,1.08l.13.13s.51.61-.01,1.13c-.23.23-.5.23-.82.2.32.37.79.75,1.37.79.23-.06.89-.21,1.32-.09.12.03.2.06.28.09.19.07.38.15,1.23.03l.4-.06.16.38Z"/>
  </g>
</svg>